<svg xmlns="http://www.w3.org/2000/svg" xmlns:xlink="http://www.w3.org/1999/xlink" viewBox="0 0 1312.46 701.33">
  <defs>
    <style>
      .cls-1 {
        fill: url(#radial-gradient);
      }

      .cls-2 {
        clip-path: url(#clip-path);
      }

      .cls-3 {
        fill: #666;
        opacity: 0.61;
      }

      .cls-4 {
        fill: url(#linear-gradient);
      }

      .cls-5 {
        fill: #fff;
      }

      .cls-6 {
        fill: #abe2cf;
      }

      .cls-7 {
        fill: #7d7d7d;
      }

      .cls-8 {
        fill: #1c5366;
      }

      .cls-9 {
        fill: #d9615b;
      }

      .cls-10 {
        fill: #592464;
      }
    </style>
    <radialGradient id="radial-gradient" cx="279.8" cy="111.77" r="858.66" gradientUnits="userSpaceOnUse">
      <stop offset="0" stop-color="#ff512a" />
      <stop offset="0.24" stop-color="#e38161" />
      <stop offset="0.49" stop-color="#cbab90" />
      <stop offset="0.71" stop-color="#bac9b2" />
      <stop offset="0.88" stop-color="#afdbc7" />
      <stop offset="1" stop-color="#abe2cf" />
    </radialGradient>
    <clipPath id="clip-path" transform="translate(0 14.68)">
      <path class="cls-1" d="M639.12,415.61H309.3a30.67,30.67,0,0,1-30.66-30.67l0-239.22a30.67,30.67,0,0,1,30.67-30.66H488.05A30.67,30.67,0,0,0,518.72,84.4V55.09A30.67,30.67,0,0,1,549.4,24.43h721.73A30.67,30.67,0,0,1,1301.8,55.1l0,411a30.66,30.66,0,0,1-30.51,30.66l-88.85.44a30.67,30.67,0,0,0-30.52,30.66v89a30.67,30.67,0,0,1-30.69,30.67l-420.77-.26a30.67,30.67,0,0,1-30.65-30.67V446.28A30.67,30.67,0,0,0,639.12,415.61Z" />
    </clipPath>
    <linearGradient id="linear-gradient" x1="1047.77" y1="611.6" x2="748.15" y2="593.06" gradientUnits="userSpaceOnUse">
      <stop offset="0.05" stop-color="#d9615b" />
      <stop offset="0.99" stop-color="#592464" />
    </linearGradient>
  </defs>
  <g id="Layer_2" data-name="Layer 2">
    <g id="Layer_1-2" data-name="Layer 1">
      <g id="Git">
        <g id="name">
          <path class="cls-1" d="M639.12,415.61H309.3a30.67,30.67,0,0,1-30.66-30.67l0-239.22a30.67,30.67,0,0,1,30.67-30.66H488.05A30.67,30.67,0,0,0,518.72,84.4V55.09A30.67,30.67,0,0,1,549.4,24.43h721.73A30.67,30.67,0,0,1,1301.8,55.1l0,411a30.66,30.66,0,0,1-30.51,30.66l-88.85.44a30.67,30.67,0,0,0-30.52,30.66v89a30.67,30.67,0,0,1-30.69,30.67l-420.77-.26a30.67,30.67,0,0,1-30.65-30.67V446.28A30.67,30.67,0,0,0,639.12,415.61Z" transform="translate(0 14.68)" />


          <path class="cls-3" d="M461,90.67l-430.65.85A30.35,30.35,0,0,1,0,61.17v-30A30.35,30.35,0,0,1,30.35.85L461,0a30.35,30.35,0,0,1,30.35,30.35v30A30.35,30.35,0,0,1,461,90.67Z" transform="translate(0 14.68)" />
          <path class="cls-4" d="M736.65,589.33h2.72v22.91h-2.72Z" transform="translate(0 14.68)" />
          <path class="cls-4" d="M743.27,595.92h2.59v2.4H746a5.69,5.69,0,0,1,2.11-2.08,5.81,5.81,0,0,1,3-.83,5.66,5.66,0,0,1,3.12.86,4.87,4.87,0,0,1,1.9,2.31,6.75,6.75,0,0,1,2.29-2.31,6.3,6.3,0,0,1,3.31-.86,5.2,5.2,0,0,1,4.24,1.71,7.07,7.07,0,0,1,1.43,4.66v10.46h-2.69v-10a4.81,4.81,0,0,0-.93-3.29,3.53,3.53,0,0,0-2.75-1,3.73,3.73,0,0,0-2.21.71,4.74,4.74,0,0,0-1.55,1.89,6,6,0,0,0-.56,2.56v9.21H754v-10a4.87,4.87,0,0,0-.93-3.33,3.49,3.49,0,0,0-2.72-1,3.68,3.68,0,0,0-2.21.72,4.8,4.8,0,0,0-1.55,1.93,6,6,0,0,0-.56,2.57v9.15h-2.72Z" transform="translate(0 14.68)" />
          <path class="cls-4" d="M772.49,612.05a5.13,5.13,0,0,1-3-4.74,4.74,4.74,0,0,1,2-4,8,8,0,0,1,4.92-1.46,11.31,11.31,0,0,1,2.74.32,7,7,0,0,1,1.94.74v-1a3.67,3.67,0,0,0-1.28-2.92,4.79,4.79,0,0,0-3.24-1.11,5.55,5.55,0,0,0-2.51.59,4.67,4.67,0,0,0-1.84,1.65l-2.05-1.53a6.6,6.6,0,0,1,2.66-2.31,8.44,8.44,0,0,1,3.74-.83,7.41,7.41,0,0,1,5.22,1.74,6.17,6.17,0,0,1,1.89,4.76v10.33H781.1v-2.33H781a5.85,5.85,0,0,1-2.11,2,6.08,6.08,0,0,1-3.17.83A7,7,0,0,1,772.49,612.05Zm6-2.4a5.35,5.35,0,0,0,1.89-1.89,5,5,0,0,0,.71-2.59,6.86,6.86,0,0,0-1.89-.83,8.75,8.75,0,0,0-2.37-.32,5.26,5.26,0,0,0-3.38.93,3,3,0,0,0-1.13,2.4,2.66,2.66,0,0,0,1,2.17,4,4,0,0,0,2.59.83A4.91,4.91,0,0,0,778.5,609.65Z" transform="translate(0 14.68)" />
          <path class="cls-4" d="M789.05,618.32a6.48,6.48,0,0,1-2.51-3.23L789,614a4.61,4.61,0,0,0,1.78,2.29,5.07,5.07,0,0,0,3,.88,5.15,5.15,0,0,0,3.92-1.47,5.81,5.81,0,0,0,1.39-4.16v-1.82H799a5.93,5.93,0,0,1-2.25,2,6.91,6.91,0,0,1-3.31.78,7.18,7.18,0,0,1-3.86-1.08,7.73,7.73,0,0,1-2.77-3.05,10.17,10.17,0,0,1,0-8.88,7.66,7.66,0,0,1,2.77-3,7.1,7.1,0,0,1,3.86-1.09,6.91,6.91,0,0,1,3.31.78,5.94,5.94,0,0,1,2.25,2.07h.13v-2.34h2.59V611.6a7.86,7.86,0,0,1-2.17,6,9,9,0,0,1-10.48.72Zm7.42-9a5.25,5.25,0,0,0,1.92-2.11,6.94,6.94,0,0,0,.72-3.26,7.05,7.05,0,0,0-.72-3.3,5.16,5.16,0,0,0-1.92-2.1,5.28,5.28,0,0,0-5.36,0,5.27,5.27,0,0,0-1.93,2.11,7,7,0,0,0-.72,3.27,7.05,7.05,0,0,0,.72,3.28,5,5,0,0,0,4.62,2.83A5,5,0,0,0,796.47,609.36Z" transform="translate(0 14.68)" />
          <path class="cls-4" d="M805.29,592.34a1.87,1.87,0,0,1-.58-1.38,1.82,1.82,0,0,1,.58-1.36,2,2,0,0,1,2.75,0,1.86,1.86,0,0,1,.58,1.36,1.93,1.93,0,0,1-.56,1.38,1.89,1.89,0,0,1-1.4.57A1.87,1.87,0,0,1,805.29,592.34Zm0,3.58H808v16.32h-2.69Z" transform="translate(0 14.68)" />
          <path class="cls-4" d="M811.62,595.92h2.6v2.4h.12a5.49,5.49,0,0,1,2.15-2.06,6.11,6.11,0,0,1,3.13-.85,5.77,5.77,0,0,1,4.5,1.71,6.71,6.71,0,0,1,1.55,4.66v10.46H823v-10a4.32,4.32,0,0,0-1.09-3.29,4.16,4.16,0,0,0-3-1,4,4,0,0,0-2.35.74,4.88,4.88,0,0,0-1.62,1.94,5.77,5.77,0,0,0-.58,2.51v9.18h-2.72Z" transform="translate(0 14.68)" />
          <path class="cls-4" d="M832,611.63a7.73,7.73,0,0,1-2.89-3.08,9.41,9.41,0,0,1-1-4.44,9.74,9.74,0,0,1,1-4.33,7.85,7.85,0,0,1,2.79-3.19,7.46,7.46,0,0,1,4.14-1.18,7.87,7.87,0,0,1,4.16,1.07,7.11,7.11,0,0,1,2.71,3,9.53,9.53,0,0,1,.94,4.32,6.12,6.12,0,0,1-.06.83H830.76a6.44,6.44,0,0,0,.89,3.14,5.35,5.35,0,0,0,2,1.92,5.47,5.47,0,0,0,2.57.64,5.21,5.21,0,0,0,4.83-2.94l2.31,1.12a7.76,7.76,0,0,1-7.23,4.28A8,8,0,0,1,832,611.63Zm8.9-9.28a5.08,5.08,0,0,0-.58-2,4.33,4.33,0,0,0-1.6-1.73,5,5,0,0,0-2.75-.71,4.65,4.65,0,0,0-3.26,1.24,5.86,5.86,0,0,0-1.76,3.24Z" transform="translate(0 14.68)" />
          <path class="cls-4" d="M860.29,586.9h2.47v29.18h-2.47Z" transform="translate(0 14.68)" />
          <path class="cls-4" d="M880.71,589.33h8.22a6.89,6.89,0,0,1,3.25.8,6.29,6.29,0,0,1,2.42,2.21,5.83,5.83,0,0,1,.89,3.17,5.08,5.08,0,0,1-.84,2.91,5.6,5.6,0,0,1-2.29,1.92v.13a5.72,5.72,0,0,1,2.81,2,5.22,5.22,0,0,1,1.09,3.3,6.1,6.1,0,0,1-.94,3.34,6.5,6.5,0,0,1-2.53,2.32,7.16,7.16,0,0,1-3.41.83h-8.67Zm8.22,9.92a3.84,3.84,0,0,0,2-.54,4,4,0,0,0,1.36-1.4,3.46,3.46,0,0,0,.48-1.74,3.5,3.5,0,0,0-.47-1.71,3.79,3.79,0,0,0-1.31-1.39,3.52,3.52,0,0,0-2-.55h-5.63v7.33Zm.61,10.4a3.76,3.76,0,0,0,2.07-.58,4,4,0,0,0,1.4-1.48,3.92,3.92,0,0,0,.5-1.88,3.79,3.79,0,0,0-.51-1.87,3.9,3.9,0,0,0-1.44-1.47,4.13,4.13,0,0,0-2.15-.56h-6v7.84Z" transform="translate(0 14.68)" />
          <path class="cls-4" d="M902,611.63a7.69,7.69,0,0,1-2.9-3.08,9.41,9.41,0,0,1-1-4.44,9.75,9.75,0,0,1,1-4.33,7.9,7.9,0,0,1,2.78-3.19,7.49,7.49,0,0,1,4.15-1.18,7.9,7.9,0,0,1,4.16,1.07,7.16,7.16,0,0,1,2.7,3,9.53,9.53,0,0,1,.94,4.32,6.12,6.12,0,0,1-.06.83H900.74a6.44,6.44,0,0,0,.9,3.14,5.25,5.25,0,0,0,2,1.92,5.48,5.48,0,0,0,2.58.64,5.23,5.23,0,0,0,4.83-2.94l2.3,1.12a8.08,8.08,0,0,1-2.85,3.12,8,8,0,0,1-4.38,1.16A7.89,7.89,0,0,1,902,611.63Zm8.89-9.28a5.23,5.23,0,0,0-.57-2,4.4,4.4,0,0,0-1.6-1.73,5,5,0,0,0-2.75-.71,4.69,4.69,0,0,0-3.27,1.24,5.92,5.92,0,0,0-1.76,3.24Z" transform="translate(0 14.68)" />
          <path class="cls-4" d="M916.23,589.33H919v22.91h-2.72Z" transform="translate(0 14.68)" />
          <path class="cls-4" d="M922.53,592.34A1.9,1.9,0,0,1,922,591a1.85,1.85,0,0,1,.57-1.36,1.94,1.94,0,0,1,1.38-.56,1.9,1.9,0,0,1,1.37.56,1.82,1.82,0,0,1,.58,1.36,1.93,1.93,0,0,1-.56,1.38,1.87,1.87,0,0,1-1.39.57A1.91,1.91,0,0,1,922.53,592.34Zm0,3.58h2.69v16.32h-2.69Z" transform="translate(0 14.68)" />
          <path class="cls-4" d="M927.08,595.92H930L935,609h.07l5.12-13.12h2.85l-6.66,16.32h-2.75Z" transform="translate(0 14.68)" />
          <path class="cls-4" d="M947.24,611.63a7.69,7.69,0,0,1-2.9-3.08,9.41,9.41,0,0,1-1-4.44,9.75,9.75,0,0,1,1-4.33,7.9,7.9,0,0,1,2.78-3.19,7.48,7.48,0,0,1,4.14-1.18,7.87,7.87,0,0,1,4.16,1.07,7.11,7.11,0,0,1,2.71,3,9.53,9.53,0,0,1,.94,4.32,6.12,6.12,0,0,1-.06.83H946a6.34,6.34,0,0,0,.9,3.14,5.25,5.25,0,0,0,2,1.92,5.47,5.47,0,0,0,2.57.64,5.23,5.23,0,0,0,4.84-2.94l2.3,1.12a8.08,8.08,0,0,1-2.85,3.12,8,8,0,0,1-4.38,1.16A7.89,7.89,0,0,1,947.24,611.63Zm8.89-9.28a5.23,5.23,0,0,0-.57-2,4.4,4.4,0,0,0-1.6-1.73,5,5,0,0,0-2.76-.71,4.67,4.67,0,0,0-3.26,1.24,5.86,5.86,0,0,0-1.76,3.24Z" transform="translate(0 14.68)" />
          <path class="cls-4" d="M975.56,586.9H978v29.18h-2.46Z" transform="translate(0 14.68)" />
          <path class="cls-4" d="M1001.6,589.33h3.08l8.7,22.91h-3l-2.3-6.3h-9.89l-2.3,6.3h-3Zm5.57,14-3-8.26-.93-2.46h-.12l-.9,2.46-3,8.26Z" transform="translate(0 14.68)" />
          <path class="cls-4" d="M1017.86,611.62a7.9,7.9,0,0,1-2.94-3.1,9.19,9.19,0,0,1-1.06-4.44,9.29,9.29,0,0,1,1.06-4.45,7.77,7.77,0,0,1,2.94-3.1,8.16,8.16,0,0,1,4.26-1.12,7.75,7.75,0,0,1,4.46,1.23,6.85,6.85,0,0,1,2.58,3.28l-2.47,1a4.71,4.71,0,0,0-1.81-2.29,5.18,5.18,0,0,0-2.89-.79,5,5,0,0,0-2.69.79,5.66,5.66,0,0,0-2,2.19,7.33,7.33,0,0,0,0,6.46,5.76,5.76,0,0,0,2,2.2,5,5,0,0,0,2.69.78,5.4,5.4,0,0,0,3-.8,4.76,4.76,0,0,0,1.86-2.27l2.43,1a7.15,7.15,0,0,1-2.67,3.27,7.79,7.79,0,0,1-4.46,1.24A8.08,8.08,0,0,1,1017.86,611.62Z" transform="translate(0 14.68)" />
          <path class="cls-4" d="M1031.52,589.33h2.72v6.75l-.12,2.24h.12a5.4,5.4,0,0,1,2.13-2.08,6.35,6.35,0,0,1,3.19-.83,5.81,5.81,0,0,1,4.54,1.74,6.71,6.71,0,0,1,1.57,4.63v10.46H1043v-10a4.3,4.3,0,0,0-1.12-3.26,4.1,4.1,0,0,0-2.91-1.06,4,4,0,0,0-2.36.77,5.72,5.72,0,0,0-2.32,4.51v9.09h-2.72Z" transform="translate(0 14.68)" />
          <path class="cls-4" d="M1052,611.63a7.76,7.76,0,0,1-2.9-3.08,9.41,9.41,0,0,1-1-4.44,9.75,9.75,0,0,1,1-4.33,7.9,7.9,0,0,1,2.78-3.19,7.49,7.49,0,0,1,4.15-1.18,7.87,7.87,0,0,1,4.16,1.07,7.16,7.16,0,0,1,2.7,3,9.53,9.53,0,0,1,1,4.32,6.2,6.2,0,0,1-.07.83h-12.93a6.55,6.55,0,0,0,.9,3.14,5.25,5.25,0,0,0,2,1.92,5.48,5.48,0,0,0,2.58.64,5.23,5.23,0,0,0,4.83-2.94l2.3,1.12a8.14,8.14,0,0,1-2.84,3.12,8.05,8.05,0,0,1-4.39,1.16A7.94,7.94,0,0,1,1052,611.63Zm8.9-9.28a5.42,5.42,0,0,0-.58-2,4.33,4.33,0,0,0-1.6-1.73,5,5,0,0,0-2.75-.71,4.69,4.69,0,0,0-3.27,1.24,5.92,5.92,0,0,0-1.76,3.24Z" transform="translate(0 14.68)" />
          <path class="cls-4" d="M1066.47,592.34a1.87,1.87,0,0,1-.58-1.38,1.82,1.82,0,0,1,.58-1.36,1.9,1.9,0,0,1,1.37-.56,1.93,1.93,0,0,1,1.38.56,1.85,1.85,0,0,1,.57,1.36,1.89,1.89,0,0,1-.56,1.38,2,2,0,0,1-2.76,0Zm0,3.58h2.69v16.32h-2.69Z" transform="translate(0 14.68)" />
          <path class="cls-4" d="M1071,595.92h2.91L1079,609h.06l5.12-13.12H1087l-6.66,16.32h-2.75Z" transform="translate(0 14.68)" />
          <path class="cls-4" d="M1091.17,611.63a7.76,7.76,0,0,1-2.9-3.08,9.41,9.41,0,0,1-1-4.44,9.75,9.75,0,0,1,1-4.33,7.9,7.9,0,0,1,2.78-3.19,7.49,7.49,0,0,1,4.15-1.18,7.9,7.9,0,0,1,4.16,1.07,7.16,7.16,0,0,1,2.7,3,9.53,9.53,0,0,1,1,4.32,6.2,6.2,0,0,1-.07.83H1090a6.55,6.55,0,0,0,.9,3.14,5.25,5.25,0,0,0,2,1.92,5.48,5.48,0,0,0,2.58.64,5.23,5.23,0,0,0,4.83-2.94l2.3,1.12a8.14,8.14,0,0,1-2.84,3.12,8.05,8.05,0,0,1-4.39,1.16A7.94,7.94,0,0,1,1091.17,611.63Zm8.9-9.28a5.42,5.42,0,0,0-.58-2,4.33,4.33,0,0,0-1.6-1.73,5,5,0,0,0-2.75-.71,4.69,4.69,0,0,0-3.27,1.24,5.92,5.92,0,0,0-1.76,3.24Z" transform="translate(0 14.68)" />
          <path class="cls-5" d="M64.56,60.8H59.83v-28h4.73Zm13.54-12H64.2V44.36H78.1Zm-.36-16h4.69v28H77.74Z" transform="translate(0 14.68)" />
          <path class="cls-5" d="M88.44,35.92A2.71,2.71,0,0,1,86.35,35a3,3,0,0,1-.82-2.16,2.94,2.94,0,0,1,.82-2.08,2.71,2.71,0,0,1,2.09-.88,2.8,2.8,0,0,1,2.09.82,2.84,2.84,0,0,1,.82,2.1,3.19,3.19,0,0,1-.8,2.18A2.69,2.69,0,0,1,88.44,35.92ZM86.18,60.8V39.44H90.7V60.8Z" transform="translate(0 14.68)" />
          <path class="cls-5" d="M106,43.6v-4h13v4Zm9.91,17.48a6.58,6.58,0,0,1-5-1.82,7.43,7.43,0,0,1-1.74-5.34V34.72h4.51v19a3.47,3.47,0,0,0,.73,2.36,2.54,2.54,0,0,0,2,.84,3.54,3.54,0,0,0,2.47-.88l1.31,3.56a5.43,5.43,0,0,1-2,1.08A8,8,0,0,1,115.89,61.08Z" transform="translate(0 14.68)" />
          <path class="cls-5" d="M132.3,39.16a8.41,8.41,0,0,1,4.17,1,7.19,7.19,0,0,1,2.88,3.08,11.65,11.65,0,0,1,1.07,5.32V60.8h-4.55V49.2a6.38,6.38,0,0,0-1.2-4.24,4.27,4.27,0,0,0-3.42-1.4,5.53,5.53,0,0,0-2.84.72,4.71,4.71,0,0,0-1.91,2.14,8.34,8.34,0,0,0-.68,3.58V60.8h-4.51V31.12h4.51V45.24l-.94-1.8a7.11,7.11,0,0,1,2.93-3.16A8.78,8.78,0,0,1,132.3,39.16Z" transform="translate(0 14.68)" />
          <path class="cls-5" d="M152.65,61.08A10.94,10.94,0,0,1,147,59.66a9.92,9.92,0,0,1-3.75-3.88,11.69,11.69,0,0,1-1.33-5.66,12,12,0,0,1,1.29-5.66,10,10,0,0,1,3.57-3.88A9.58,9.58,0,0,1,152,39.16,9.39,9.39,0,0,1,157,40.54a9.61,9.61,0,0,1,3.49,3.86,12.69,12.69,0,0,1,1.28,5.88c0,.19,0,.42,0,.7a7.15,7.15,0,0,1-.06.74H145.52V48.4h13.79l-1.82,1a6.77,6.77,0,0,0-.67-3.22,5.17,5.17,0,0,0-4.86-3A5.56,5.56,0,0,0,149,44a5.18,5.18,0,0,0-2,2.22,7.61,7.61,0,0,0-.69,3.32v.8a7.08,7.08,0,0,0,.79,3.4,5.55,5.55,0,0,0,2.23,2.3,6.75,6.75,0,0,0,3.39.82A6.7,6.7,0,0,0,158,54.52l2.47,3.12a8.67,8.67,0,0,1-3.33,2.56A11,11,0,0,1,152.65,61.08Z" transform="translate(0 14.68)" />
          <path class="cls-5" d="M163.46,60.8V39.44h4.33v5.88l-.51-1.72A6.47,6.47,0,0,1,170,40.3a8.85,8.85,0,0,1,4.63-1.14v4.76a4.43,4.43,0,0,0-.51-.06l-.48,0a5.42,5.42,0,0,0-4.15,1.64,7.15,7.15,0,0,0-1.52,5V60.8Z" transform="translate(0 14.68)" />
          <path class="cls-5" d="M184.76,61.08a10.94,10.94,0,0,1-5.66-1.42,9.78,9.78,0,0,1-3.75-3.88A11.69,11.69,0,0,1,174,50.12a12,12,0,0,1,1.29-5.66,9.9,9.9,0,0,1,3.57-3.88,9.54,9.54,0,0,1,5.19-1.42,9.39,9.39,0,0,1,5.06,1.38,9.61,9.61,0,0,1,3.49,3.86,12.69,12.69,0,0,1,1.27,5.88c0,.19,0,.42,0,.7s0,.53-.06.74h-16.2V48.4h13.8l-1.82,1a6.89,6.89,0,0,0-.67-3.22,5.44,5.44,0,0,0-2-2.2,5.37,5.37,0,0,0-2.91-.78,5.53,5.53,0,0,0-2.93.78,5.06,5.06,0,0,0-2,2.22,7.61,7.61,0,0,0-.69,3.32v.8a7.19,7.19,0,0,0,.78,3.4,5.58,5.58,0,0,0,2.24,2.3,6.75,6.75,0,0,0,3.39.82,6.7,6.7,0,0,0,5.28-2.36l2.47,3.12a8.82,8.82,0,0,1-3.33,2.56A11,11,0,0,1,184.76,61.08Z" transform="translate(0 14.68)" />
          <path class="cls-5" d="M194.33,66.88,196.41,58l.69,3a2.94,2.94,0,0,1-2.17-.86,3.22,3.22,0,0,1-.85-2.38,3.3,3.3,0,0,1,.85-2.38,2.78,2.78,0,0,1,2.1-.9,2.71,2.71,0,0,1,2.12.92,3.39,3.39,0,0,1,.82,2.36,5.63,5.63,0,0,1-.07.9,8.3,8.3,0,0,1-.25,1.06c-.13.4-.3.91-.51,1.52l-1.9,5.68Z" transform="translate(0 14.68)" />
          <path class="cls-5" d="M216.75,60.8v-28h4.74v28Z" transform="translate(0 14.68)" />
          <path class="cls-5" d="M245.69,61.08a8.39,8.39,0,0,1-3.82-.82,6,6,0,0,1-3.42-5.58,6.69,6.69,0,0,1,.78-3.24,5.42,5.42,0,0,1,2.57-2.28,11.19,11.19,0,0,1,4.73-.84h5.64v3.32h-5.31a4.44,4.44,0,0,0-3.12.82,2.81,2.81,0,0,0-.81,2.06,2.58,2.58,0,0,0,1,2.12,4.21,4.21,0,0,0,2.73.8,5.49,5.49,0,0,0,3-.84,4.83,4.83,0,0,0,2-2.48l.73,3A5.49,5.49,0,0,1,250,60,8.08,8.08,0,0,1,245.69,61.08Zm6.12-.28V56.44l-.22-.88V48a4.63,4.63,0,0,0-1.22-3.42,5,5,0,0,0-3.7-1.22,9.4,9.4,0,0,0-3.16.56,8.08,8.08,0,0,0-2.7,1.56L239,41.84a11.07,11.07,0,0,1,3.75-2,14.82,14.82,0,0,1,4.48-.68,9,9,0,0,1,6.55,2.24c1.53,1.49,2.29,3.79,2.29,6.88V60.8Z" transform="translate(0 14.68)" />
          <path class="cls-5" d="M283.73,39.16a8.31,8.31,0,0,1,4.13,1,6.81,6.81,0,0,1,2.83,3.08,12.25,12.25,0,0,1,1,5.32V60.8h-4.51V49.2A6.56,6.56,0,0,0,286,45a4,4,0,0,0-3.25-1.4,4.84,4.84,0,0,0-2.64.72,4.71,4.71,0,0,0-1.79,2.14,8.76,8.76,0,0,0-.63,3.54V60.8h-4.52V49.2A6.62,6.62,0,0,0,272.07,45a4,4,0,0,0-3.26-1.4,4.84,4.84,0,0,0-2.64.72,4.71,4.71,0,0,0-1.79,2.14,8.76,8.76,0,0,0-.63,3.54V60.8h-4.52V39.44h4.34v5.72l-.81-1.72a7.31,7.31,0,0,1,2.86-3.16,8.23,8.23,0,0,1,4.32-1.12,7.72,7.72,0,0,1,4.73,1.48,7.35,7.35,0,0,1,2.66,4.56l-1.75-.72a8.09,8.09,0,0,1,3.09-3.84A8.8,8.8,0,0,1,283.73,39.16Z" transform="translate(0 14.68)" />
          <path class="cls-6" d="M321.77,61.2a13.8,13.8,0,0,1-5.48-1.06,12.9,12.9,0,0,1-4.35-3,14.17,14.17,0,0,1-2.87-4.56,16.77,16.77,0,0,1,0-11.52A13.89,13.89,0,0,1,312,36.48a13.08,13.08,0,0,1,4.37-3,14,14,0,0,1,5.55-1.06,14.18,14.18,0,0,1,5.81,1.16,11.56,11.56,0,0,1,4.38,3.4l-3,3.2a10,10,0,0,0-3.22-2.42,9.17,9.17,0,0,0-3.81-.78,9.43,9.43,0,0,0-3.73.72,8.6,8.6,0,0,0-2.93,2,9.54,9.54,0,0,0-1.93,3.12,11.65,11.65,0,0,0,0,7.9,9.53,9.53,0,0,0,1.93,3.14,8.71,8.71,0,0,0,2.91,2,9.35,9.35,0,0,0,3.72.72,10.3,10.3,0,0,0,3.65-.66,9.75,9.75,0,0,0,3.37-2.22l2.66,3.88a13.27,13.27,0,0,1-4.59,2.66A16.33,16.33,0,0,1,321.77,61.2Zm5.5-4.24V46.52h4.44V57.64Z" transform="translate(0 14.68)" />
          <path class="cls-6" d="M340.66,61.08a8.39,8.39,0,0,1-3.82-.82A6.16,6.16,0,0,1,334.31,58a6.23,6.23,0,0,1-.89-3.3,6.69,6.69,0,0,1,.78-3.24,5.42,5.42,0,0,1,2.57-2.28,11.23,11.23,0,0,1,4.73-.84h5.64v3.32h-5.31a4.4,4.4,0,0,0-3.11.82,2.78,2.78,0,0,0-.82,2.06,2.58,2.58,0,0,0,1,2.12,4.25,4.25,0,0,0,2.73.8,5.47,5.47,0,0,0,3-.84,4.83,4.83,0,0,0,1.95-2.48l.73,3A5.45,5.45,0,0,1,345,60,8.08,8.08,0,0,1,340.66,61.08Zm6.12-.28V56.44l-.22-.88V48a4.63,4.63,0,0,0-1.22-3.42,5,5,0,0,0-3.69-1.22,9.41,9.41,0,0,0-3.17.56,8,8,0,0,0-2.69,1.56L334,41.84a11.07,11.07,0,0,1,3.75-2,14.87,14.87,0,0,1,4.48-.68,9,9,0,0,1,6.55,2.24c1.53,1.49,2.3,3.79,2.3,6.88V60.8Z" transform="translate(0 14.68)" />
          <path class="cls-6" d="M365.2,39.16a8.41,8.41,0,0,1,4.17,1,7.11,7.11,0,0,1,2.87,3.08,11.52,11.52,0,0,1,1.08,5.32V60.8h-4.55V49.2A6.33,6.33,0,0,0,367.56,45a4.27,4.27,0,0,0-3.42-1.4,5.58,5.58,0,0,0-2.84.72,4.76,4.76,0,0,0-1.91,2.14,8.35,8.35,0,0,0-.67,3.58V60.8h-4.51V39.44h4.33v5.8l-.77-1.8a7.17,7.17,0,0,1,2.93-3.16A8.84,8.84,0,0,1,365.2,39.16Z" transform="translate(0 14.68)" />
          <path class="cls-6" d="M385.55,61.08a10.94,10.94,0,0,1-5.66-1.42,9.78,9.78,0,0,1-3.75-3.88,11.69,11.69,0,0,1-1.33-5.66,12,12,0,0,1,1.29-5.66,9.9,9.9,0,0,1,3.57-3.88,9.54,9.54,0,0,1,5.19-1.42,9.39,9.39,0,0,1,5.06,1.38,9.61,9.61,0,0,1,3.49,3.86,12.69,12.69,0,0,1,1.27,5.88c0,.19,0,.42,0,.7s0,.53-.06.74h-16.2V48.4h13.8l-1.82,1a6.89,6.89,0,0,0-.67-3.22,5.44,5.44,0,0,0-2-2.2,5.37,5.37,0,0,0-2.91-.78,5.53,5.53,0,0,0-2.93.78,5.06,5.06,0,0,0-2,2.22,7.61,7.61,0,0,0-.69,3.32v.8a7.19,7.19,0,0,0,.78,3.4,5.58,5.58,0,0,0,2.24,2.3,6.75,6.75,0,0,0,3.39.82,6.7,6.7,0,0,0,5.28-2.36l2.47,3.12a8.82,8.82,0,0,1-3.33,2.56A11,11,0,0,1,385.55,61.08Z" transform="translate(0 14.68)" />
          <path class="cls-6" d="M402.37,61.08a15.4,15.4,0,0,1-4.7-.7,12.12,12.12,0,0,1-3.57-1.7l1.75-3.8a11.67,11.67,0,0,0,3.13,1.5,11.94,11.94,0,0,0,3.68.58,5.88,5.88,0,0,0,3.07-.62,1.93,1.93,0,0,0,1-1.7A1.53,1.53,0,0,0,406,53.3a4.81,4.81,0,0,0-1.71-.7c-.7-.16-1.49-.31-2.35-.44a23.68,23.68,0,0,1-2.58-.54,8.54,8.54,0,0,1-2.35-1,5.12,5.12,0,0,1-1.71-1.78,5.9,5.9,0,0,1-.66-3,6,6,0,0,1,1.06-3.5,6.89,6.89,0,0,1,3-2.34,11.17,11.17,0,0,1,4.53-.84,16.64,16.64,0,0,1,3.95.5A10.78,10.78,0,0,1,410.56,41l-1.79,3.8A8.85,8.85,0,0,0,406,43.62a11.92,11.92,0,0,0-2.81-.34,5.7,5.7,0,0,0-3.06.66,2,2,0,0,0-1,1.7,1.66,1.66,0,0,0,.65,1.44,4.82,4.82,0,0,0,1.71.74c.71.17,1.49.33,2.35.48s1.72.33,2.57.56a9.92,9.92,0,0,1,2.34,1,4.59,4.59,0,0,1,1.73,1.74,6.46,6.46,0,0,1-.42,6.42,7,7,0,0,1-3,2.28A11.93,11.93,0,0,1,402.37,61.08Z" transform="translate(0 14.68)" />
          <path class="cls-6" d="M423.37,39.16a8.41,8.41,0,0,1,4.17,1,7.11,7.11,0,0,1,2.87,3.08,11.52,11.52,0,0,1,1.08,5.32V60.8h-4.55V49.2a6.38,6.38,0,0,0-1.2-4.24,4.3,4.3,0,0,0-3.43-1.4,5.58,5.58,0,0,0-2.84.72,4.76,4.76,0,0,0-1.91,2.14,8.35,8.35,0,0,0-.67,3.58V60.8h-4.51V31.12h4.51V45.24l-.95-1.8a7.22,7.22,0,0,1,2.93-3.16A8.84,8.84,0,0,1,423.37,39.16Z" transform="translate(0 14.68)" />
          <rect class="cls-3" x="15.2" y="129.35" width="240.1" height="240.1" rx="30.58" />
          <path class="cls-7" d="M53.53,493.47v-18.2h2.11v18.2Z" transform="translate(0 14.68)" />
          <path class="cls-7" d="M71,493.6a7.66,7.66,0,0,1-2.92-.51,4.33,4.33,0,0,1-1.89-1.41,3.35,3.35,0,0,1-.65-2.06,3.54,3.54,0,0,1,.55-1.94,3.82,3.82,0,0,1,1.82-1.4,8.86,8.86,0,0,1,3.4-.54h5.15v1.38H71.35a4.85,4.85,0,0,0-3,.7,2.25,2.25,0,0,0,.15,3.62,4.8,4.8,0,0,0,2.79.7,5.88,5.88,0,0,0,2.95-.71,4.26,4.26,0,0,0,1.81-2.07l.45,1.27a4.48,4.48,0,0,1-2,2.16A7,7,0,0,1,71,493.6Zm5.15-.13v-3l-.08-.49v-5A3.39,3.39,0,0,0,75,482.23a4.7,4.7,0,0,0-3.17-.93,8.78,8.78,0,0,0-2.77.44,7.34,7.34,0,0,0-2.21,1.17l-.92-1.38a8.27,8.27,0,0,1,2.74-1.36,11.55,11.55,0,0,1,3.35-.48A6.83,6.83,0,0,1,76.49,481a4.9,4.9,0,0,1,1.58,4v8.48Z" transform="translate(0 14.68)" />
          <path class="cls-7" d="M101,479.69a7.46,7.46,0,0,1,3.18.63,4.69,4.69,0,0,1,2.1,1.94,6.4,6.4,0,0,1,.76,3.28v7.93h-2v-7.75a4.36,4.36,0,0,0-1.13-3.26,4.31,4.31,0,0,0-3.17-1.11,5.83,5.83,0,0,0-2.66.58,4.19,4.19,0,0,0-1.74,1.7,5.37,5.37,0,0,0-.61,2.66v7.18h-2v-7.75a4.32,4.32,0,0,0-1.14-3.26,4.38,4.38,0,0,0-3.19-1.11,5.83,5.83,0,0,0-2.64.58,4.1,4.1,0,0,0-1.75,1.7,5.37,5.37,0,0,0-.61,2.66v7.18h-2V479.82H84.3v3.69l-.31-.65a5.05,5.05,0,0,1,2.2-2.33,7.37,7.37,0,0,1,3.6-.84,6.66,6.66,0,0,1,3.73,1,4.59,4.59,0,0,1,2,3l-.79-.29A5.52,5.52,0,0,1,97,480.71,7.49,7.49,0,0,1,101,479.69Z" transform="translate(0 14.68)" />
          <path class="cls-7" d="M123.72,493.6a8.25,8.25,0,0,1-3.9-.9,7,7,0,0,1-2.71-2.48,7.06,7.06,0,0,1,0-7.21,7,7,0,0,1,2.71-2.44,9.12,9.12,0,0,1,7.84,0,6.89,6.89,0,0,1,2.7,2.45,6.52,6.52,0,0,1,1,3.6,6.61,6.61,0,0,1-1,3.6,6.78,6.78,0,0,1-2.72,2.47A8.36,8.36,0,0,1,123.72,493.6Zm0-1.64a6,6,0,0,0,2.87-.66,5,5,0,0,0,2-1.88,5.73,5.73,0,0,0,0-5.6,4.93,4.93,0,0,0-2-1.86,6.46,6.46,0,0,0-5.69,0,5,5,0,0,0-2,1.86,5.67,5.67,0,0,0,0,5.6,5.11,5.11,0,0,0,2,1.88A5.88,5.88,0,0,0,123.72,492Z" transform="translate(0 14.68)" />
          <path class="cls-7" d="M141.9,479.69a7.69,7.69,0,0,1,3.21.63,4.84,4.84,0,0,1,2.16,1.94,6.3,6.3,0,0,1,.78,3.28v7.93h-2v-7.75a4.23,4.23,0,0,0-1.18-3.26,4.66,4.66,0,0,0-3.32-1.11,6.31,6.31,0,0,0-2.77.58,4.22,4.22,0,0,0-1.82,1.7,5.16,5.16,0,0,0-.64,2.66v7.18h-2V479.82h1.93v3.74l-.31-.7a5.13,5.13,0,0,1,2.28-2.33A7.74,7.74,0,0,1,141.9,479.69Z" transform="translate(0 14.68)" />
          <path class="cls-7" d="M162.79,493.6a7.57,7.57,0,0,1-2.91-.51,4.3,4.3,0,0,1-1.9-1.41,3.42,3.42,0,0,1-.65-2.06,3.54,3.54,0,0,1,.55-1.94,3.8,3.8,0,0,1,1.83-1.4,8.79,8.79,0,0,1,3.4-.54h5.15v1.38h-5.1a4.85,4.85,0,0,0-3,.7,2.25,2.25,0,0,0,.16,3.62,4.76,4.76,0,0,0,2.79.7,5.84,5.84,0,0,0,2.94-.71,4.21,4.21,0,0,0,1.81-2.07l.45,1.27a4.46,4.46,0,0,1-2,2.16A7,7,0,0,1,162.79,493.6Zm5.15-.13v-3l-.08-.49v-5a3.39,3.39,0,0,0-1.07-2.68,4.7,4.7,0,0,0-3.17-.93,8.67,8.67,0,0,0-2.76.44,7.28,7.28,0,0,0-2.22,1.17l-.91-1.38a8.32,8.32,0,0,1,2.73-1.36,11.57,11.57,0,0,1,3.36-.48A6.8,6.8,0,0,1,168.3,481a4.9,4.9,0,0,1,1.58,4v8.48Z" transform="translate(0 14.68)" />
          <path class="cls-7" d="M178.22,498.64a6.72,6.72,0,0,1-1.75-.22,4,4,0,0,1-1.41-.66l.71-1.41a3.71,3.71,0,0,0,2.33.7,2.45,2.45,0,0,0,1.84-.65,2.6,2.6,0,0,0,.64-1.92V479.82h2v14.66a4.09,4.09,0,0,1-1.12,3A4.42,4.42,0,0,1,178.22,498.64Zm3.39-21.84a1.53,1.53,0,0,1-1.06-.39,1.23,1.23,0,0,1-.42-.94,1.19,1.19,0,0,1,.42-.92,1.57,1.57,0,0,1,1.06-.38,1.6,1.6,0,0,1,1,.37,1.15,1.15,0,0,1,.43.91,1.26,1.26,0,0,1-.42,1A1.47,1.47,0,0,1,181.61,476.8Z" transform="translate(0 14.68)" />
          <path class="cls-7" d="M193.13,493.6a8.25,8.25,0,0,1-3.9-.9,7,7,0,0,1-2.7-2.48,7,7,0,0,1,0-7.21,6.85,6.85,0,0,1,2.7-2.44,9.12,9.12,0,0,1,7.84,0,7,7,0,0,1,2.71,2.45,6.6,6.6,0,0,1,1,3.6,6.7,6.7,0,0,1-1,3.6,6.85,6.85,0,0,1-2.72,2.47A8.43,8.43,0,0,1,193.13,493.6Zm0-1.64a6.11,6.11,0,0,0,2.88-.66,5,5,0,0,0,2-1.88,5.73,5.73,0,0,0,0-5.6,5,5,0,0,0-2-1.86,6.48,6.48,0,0,0-5.7,0,5.09,5.09,0,0,0-2,1.86,5.67,5.67,0,0,0,0,5.6,5.11,5.11,0,0,0,2,1.88A5.94,5.94,0,0,0,193.13,492Z" transform="translate(0 14.68)" />
          <path class="cls-7" d="M209.87,493.6a8,8,0,0,1-3.33-.65,4.94,4.94,0,0,1-2.21-1.95,6.23,6.23,0,0,1-.78-3.25v-7.93h2v7.72a4.3,4.3,0,0,0,1.18,3.29,4.7,4.7,0,0,0,3.32,1.1,5.89,5.89,0,0,0,2.71-.58,4.06,4.06,0,0,0,1.77-1.71,5.43,5.43,0,0,0,.61-2.67v-7.15h2v13.65h-1.93v-3.75l.31.68a5.23,5.23,0,0,1-2.21,2.35A7,7,0,0,1,209.87,493.6Z" transform="translate(0 14.68)" />
          <path class="cls-7" d="M221.62,493.47V479.82h1.94v3.71l-.2-.65a4.55,4.55,0,0,1,2.1-2.37,7.46,7.46,0,0,1,3.67-.82v1.79h-.22l-.23,0a4.62,4.62,0,0,0-5,5.05v7Z" transform="translate(0 14.68)" />
          <path class="cls-7" d="M239.24,479.69a7.65,7.65,0,0,1,3.2.63,4.84,4.84,0,0,1,2.16,1.94,6.3,6.3,0,0,1,.79,3.28v7.93h-2v-7.75a4.23,4.23,0,0,0-1.18-3.26,4.63,4.63,0,0,0-3.31-1.11,6.33,6.33,0,0,0-2.78.58,4.33,4.33,0,0,0-1.82,1.7,5.16,5.16,0,0,0-.64,2.66v7.18h-2V479.82h1.94v3.74l-.32-.7a5.23,5.23,0,0,1,2.28-2.33A7.78,7.78,0,0,1,239.24,479.69Z" transform="translate(0 14.68)" />
          <path class="cls-7" d="M256,493.6a8.91,8.91,0,0,1-4.1-.9,7,7,0,0,1-2.76-2.47,6.62,6.62,0,0,1-1-3.6,6.63,6.63,0,0,1,3.57-6.05,7.71,7.71,0,0,1,3.74-.89,7.85,7.85,0,0,1,3.74.87,6.52,6.52,0,0,1,2.58,2.44,7,7,0,0,1,.94,3.63,2.45,2.45,0,0,1,0,.27c0,.1,0,.2,0,.3h-13v-1.38h11.93l-.8.55a5,5,0,0,0-.7-2.64,4.91,4.91,0,0,0-1.89-1.81,5.74,5.74,0,0,0-2.76-.65,5.83,5.83,0,0,0-2.76.65,4.78,4.78,0,0,0-1.91,1.82,5.29,5.29,0,0,0-.68,2.68v.29a5,5,0,0,0,.75,2.74A5.21,5.21,0,0,0,253,491.3a7,7,0,0,0,3.09.66,7.25,7.25,0,0,0,2.54-.44,5.34,5.34,0,0,0,2-1.36l1.14,1.2a6.45,6.45,0,0,1-2.49,1.66A9,9,0,0,1,256,493.6Z" transform="translate(0 14.68)" />
          <path class="cls-7" d="M265.48,498.64a6.4,6.4,0,0,1-2-.31,4.51,4.51,0,0,1-1.64-.94l.94-1.38a4.49,4.49,0,0,0,1.24.77,4,4,0,0,0,1.5.27,2.93,2.93,0,0,0,1.72-.5,4.9,4.9,0,0,0,1.38-1.78l1-2,.22-.28L276,479.82h2l-7.48,15.28a7.86,7.86,0,0,1-1.38,2.11,4.28,4.28,0,0,1-1.64,1.1A5.56,5.56,0,0,1,265.48,498.64Zm4-4.78-6.89-14h2.11l6.09,12.53Z" transform="translate(0 14.68)" />
          <path class="cls-7" d="M283.52,481.35v-1.53h9.25v1.53Zm7.06,12.25a4.68,4.68,0,0,1-3.25-1,3.83,3.83,0,0,1-1.13-2.94V476.8h2v12.71a2.44,2.44,0,0,0,.67,1.85,2.64,2.64,0,0,0,1.92.65,3.45,3.45,0,0,0,2.22-.7l.71,1.32a3.77,3.77,0,0,1-1.44.73A6.21,6.21,0,0,1,290.58,493.6Z" transform="translate(0 14.68)" />
          <path class="cls-7" d="M301.76,493.6a8.18,8.18,0,0,1-3.89-.9,7,7,0,0,1-2.71-2.48,7.06,7.06,0,0,1,0-7.21,7,7,0,0,1,2.71-2.44,8.29,8.29,0,0,1,3.89-.88,8.42,8.42,0,0,1,3.95.89,7,7,0,0,1,2.7,2.45,6.6,6.6,0,0,1,1,3.6,6.7,6.7,0,0,1-1,3.6,6.78,6.78,0,0,1-2.72,2.47A8.4,8.4,0,0,1,301.76,493.6Zm0-1.64a6.09,6.09,0,0,0,2.88-.66,5.11,5.11,0,0,0,2-1.88,5.8,5.8,0,0,0,0-5.6,5.06,5.06,0,0,0-2-1.86,6.46,6.46,0,0,0-5.69,0,5.11,5.11,0,0,0-2,1.86,5.33,5.33,0,0,0,2,7.48A5.94,5.94,0,0,0,301.76,492Z" transform="translate(0 14.68)" />
          <path class="cls-7" d="M318.58,493.47V479.82h1.94v3.71l-.2-.65a4.57,4.57,0,0,1,2.11-2.37,7.43,7.43,0,0,1,3.67-.82v1.79h-.23l-.23,0a5,5,0,0,0-3.7,1.32,5,5,0,0,0-1.33,3.73v7Z" transform="translate(0 14.68)" />
          <path class="cls-7" d="M334.78,493.6a8.91,8.91,0,0,1-4.1-.9,6.83,6.83,0,0,1-2.76-2.47,6.63,6.63,0,0,1-1-3.6,6.72,6.72,0,0,1,1-3.59,6.79,6.79,0,0,1,2.61-2.46,7.75,7.75,0,0,1,3.75-.89,7.85,7.85,0,0,1,3.74.87,6.52,6.52,0,0,1,2.58,2.44,7,7,0,0,1,.93,3.63,2.44,2.44,0,0,1,0,.27c0,.1,0,.2,0,.3h-13v-1.38h11.93l-.8.55a5,5,0,0,0-.7-2.64,4.91,4.91,0,0,0-1.89-1.81,6.18,6.18,0,0,0-5.52,0,4.78,4.78,0,0,0-1.91,1.82,5.19,5.19,0,0,0-.68,2.68v.29a5,5,0,0,0,.75,2.74,5.15,5.15,0,0,0,2.11,1.85,7,7,0,0,0,3.09.66,7.25,7.25,0,0,0,2.54-.44,5.34,5.34,0,0,0,2-1.36l1.14,1.2a6.45,6.45,0,0,1-2.49,1.66A9,9,0,0,1,334.78,493.6Z" transform="translate(0 14.68)" />
          <path class="cls-7" d="M345.45,476.8a1.48,1.48,0,0,1-1.05-.39,1.21,1.21,0,0,1-.43-.94,1.17,1.17,0,0,1,.43-.92,1.52,1.52,0,0,1,1.05-.38,1.56,1.56,0,0,1,1.05.37,1.12,1.12,0,0,1,.43.91,1.28,1.28,0,0,1-.41,1A1.5,1.5,0,0,1,345.45,476.8Zm-1,16.67V479.82h2v13.65Z" transform="translate(0 14.68)" />
          <path class="cls-7" d="M369.56,479.69a7.44,7.44,0,0,1,3.17.63,4.77,4.77,0,0,1,2.11,1.94,6.5,6.5,0,0,1,.75,3.28v7.93h-2v-7.75a3.9,3.9,0,0,0-4.3-4.37,5.83,5.83,0,0,0-2.66.58,4.11,4.11,0,0,0-1.73,1.7,5.37,5.37,0,0,0-.62,2.66v7.18h-2v-7.75a3.93,3.93,0,0,0-4.32-4.37,5.84,5.84,0,0,0-2.65.58,4.16,4.16,0,0,0-1.75,1.7,5.37,5.37,0,0,0-.61,2.66v7.18h-2V479.82h1.93v3.69l-.31-.65a5.05,5.05,0,0,1,2.2-2.33,7.37,7.37,0,0,1,3.6-.84,6.64,6.64,0,0,1,3.73,1,4.64,4.64,0,0,1,2,3l-.8-.29a5.57,5.57,0,0,1,2.32-2.69A7.5,7.5,0,0,1,369.56,479.69Z" transform="translate(0 14.68)" />
          <path class="cls-7" d="M384.1,493.6a7.66,7.66,0,0,1-2.92-.51,4.33,4.33,0,0,1-1.89-1.41,3.35,3.35,0,0,1-.65-2.06,3.54,3.54,0,0,1,.55-1.94,3.82,3.82,0,0,1,1.82-1.4,8.86,8.86,0,0,1,3.4-.54h5.15v1.38h-5.09a4.85,4.85,0,0,0-3,.7,2.25,2.25,0,0,0,.15,3.62,4.8,4.8,0,0,0,2.79.7,5.88,5.88,0,0,0,2.95-.71,4.26,4.26,0,0,0,1.81-2.07l.45,1.27a4.48,4.48,0,0,1-2,2.16A7,7,0,0,1,384.1,493.6Zm5.15-.13v-3l-.08-.49v-5a3.39,3.39,0,0,0-1.07-2.68,4.7,4.7,0,0,0-3.17-.93,8.78,8.78,0,0,0-2.77.44,7.34,7.34,0,0,0-2.21,1.17l-.92-1.38a8.27,8.27,0,0,1,2.74-1.36,11.55,11.55,0,0,1,3.35-.48,6.83,6.83,0,0,1,4.49,1.31,4.9,4.9,0,0,1,1.58,4v8.48Z" transform="translate(0 14.68)" />
          <path class="cls-7" d="M401.49,493a8.6,8.6,0,0,1-3.84-.85,6.63,6.63,0,0,1-2.69-2.35,6.17,6.17,0,0,1-1-3.46,6.06,6.06,0,0,1,1-3.44,6.51,6.51,0,0,1,2.69-2.33,8.59,8.59,0,0,1,3.84-.83,8.36,8.36,0,0,1,3.59.75,6,6,0,0,1,2.53,2.24,7.4,7.4,0,0,1,0,7.22,6.17,6.17,0,0,1-2.53,2.27A8.08,8.08,0,0,1,401.49,493Zm.37,5.69a13.77,13.77,0,0,1-3.93-.55,7.79,7.79,0,0,1-3-1.56l1-1.4a8.06,8.06,0,0,0,2.61,1.37,10.72,10.72,0,0,0,3.28.5,6.11,6.11,0,0,0,4.19-1.21,4.81,4.81,0,0,0,1.33-3.75v-3.41l.29-2.34-.2-2.34v-4.13h1.93v12q0,3.54-1.89,5.19A8.27,8.27,0,0,1,401.86,498.64Zm-.17-7.33a6.41,6.41,0,0,0,2.93-.64,5,5,0,0,0,2-1.77,5,5,0,0,0,0-5.21,5.1,5.1,0,0,0-2-1.76,7.11,7.11,0,0,0-5.85,0,5,5,0,0,0-2,1.76,5.07,5.07,0,0,0,0,5.21,4.84,4.84,0,0,0,2,1.77A6.46,6.46,0,0,0,401.69,491.31Z" transform="translate(0 14.68)" />
          <path class="cls-7" d="M414.81,476.8a1.48,1.48,0,0,1-1.05-.39,1.21,1.21,0,0,1-.43-.94,1.17,1.17,0,0,1,.43-.92,1.52,1.52,0,0,1,1.05-.38,1.56,1.56,0,0,1,1.05.37,1.12,1.12,0,0,1,.43.91,1.28,1.28,0,0,1-.41,1A1.52,1.52,0,0,1,414.81,476.8Zm-1,16.67V479.82h2v13.65Z" transform="translate(0 14.68)" />
          <path class="cls-7" d="M427.87,479.69a7.61,7.61,0,0,1,3.2.63,4.86,4.86,0,0,1,2.17,1.94,6.3,6.3,0,0,1,.78,3.28v7.93h-2v-7.75a4.23,4.23,0,0,0-1.18-3.26,4.66,4.66,0,0,0-3.32-1.11,6.28,6.28,0,0,0-2.77.58,4.22,4.22,0,0,0-1.82,1.7,5.16,5.16,0,0,0-.64,2.66v7.18h-2V479.82h1.94v3.74l-.31-.7a5.16,5.16,0,0,1,2.27-2.33A7.81,7.81,0,0,1,427.87,479.69Z" transform="translate(0 14.68)" />
          <path class="cls-7" d="M444.64,493.6a8.88,8.88,0,0,1-4.1-.9,6.83,6.83,0,0,1-2.76-2.47,6.54,6.54,0,0,1-1-3.6,6.63,6.63,0,0,1,3.57-6.05,7.74,7.74,0,0,1,3.74-.89,7.86,7.86,0,0,1,3.75.87,6.42,6.42,0,0,1,2.57,2.44,6.91,6.91,0,0,1,.94,3.63,2.44,2.44,0,0,1,0,.27c0,.1,0,.2,0,.3h-13v-1.38h11.92l-.79.55a4.94,4.94,0,0,0-2.59-4.45,5.75,5.75,0,0,0-2.77-.65,5.85,5.85,0,0,0-2.76.65,4.76,4.76,0,0,0-1.9,1.82,5.19,5.19,0,0,0-.69,2.68v.29a5,5,0,0,0,.76,2.74,5.12,5.12,0,0,0,2.1,1.85,7,7,0,0,0,3.09.66,7.34,7.34,0,0,0,2.55-.44,5.23,5.23,0,0,0,2-1.36l1.14,1.2a6.31,6.31,0,0,1-2.49,1.66A8.9,8.9,0,0,1,444.64,493.6Z" transform="translate(0 14.68)" />
          <path class="cls-7" d="M458.21,481.35v-1.53h9.25v1.53Zm2.68,12.12V478.1a3.89,3.89,0,0,1,1.16-2.94,4.7,4.7,0,0,1,3.36-1.12,6.43,6.43,0,0,1,1.65.21,3.57,3.57,0,0,1,1.34.65l-.68,1.38a3.25,3.25,0,0,0-1-.51,4.39,4.39,0,0,0-1.22-.17,2.77,2.77,0,0,0-2,.65,2.58,2.58,0,0,0-.68,1.93v2.08l.06.86v12.35Z" transform="translate(0 14.68)" />
          <path class="cls-7" d="M469,493.47V479.82h1.93v3.71l-.2-.65a4.57,4.57,0,0,1,2.11-2.37,7.46,7.46,0,0,1,3.67-.82v1.79h-.23l-.22,0a5,5,0,0,0-3.7,1.32A5,5,0,0,0,471,486.5v7Z" transform="translate(0 14.68)" />
          <path class="cls-7" d="M484.93,493.6a8.18,8.18,0,0,1-3.89-.9,7,7,0,0,1-2.71-2.48,7.06,7.06,0,0,1,0-7.21,7,7,0,0,1,2.71-2.44,8.29,8.29,0,0,1,3.89-.88,8.42,8.42,0,0,1,3.95.89,7,7,0,0,1,2.7,2.45,6.52,6.52,0,0,1,1,3.6,6.61,6.61,0,0,1-1,3.6,6.78,6.78,0,0,1-2.72,2.47A8.4,8.4,0,0,1,484.93,493.6Zm0-1.64a6.09,6.09,0,0,0,2.88-.66,5.11,5.11,0,0,0,2-1.88,5.8,5.8,0,0,0,0-5.6,5.06,5.06,0,0,0-2-1.86,6.46,6.46,0,0,0-5.69,0,5.11,5.11,0,0,0-2,1.86,5.33,5.33,0,0,0,2,7.48A5.94,5.94,0,0,0,484.93,492Z" transform="translate(0 14.68)" />
          <path class="cls-7" d="M503.12,479.69a7.61,7.61,0,0,1,3.2.63,4.91,4.91,0,0,1,2.17,1.94,6.3,6.3,0,0,1,.78,3.28v7.93h-2v-7.75a4.26,4.26,0,0,0-1.18-3.26,4.67,4.67,0,0,0-3.32-1.11,6.28,6.28,0,0,0-2.77.58,4.3,4.3,0,0,0-1.83,1.7,5.26,5.26,0,0,0-.64,2.66v7.18h-2V479.82h1.94v3.74l-.31-.7a5.16,5.16,0,0,1,2.27-2.33A7.81,7.81,0,0,1,503.12,479.69Z" transform="translate(0 14.68)" />
          <path class="cls-7" d="M511.2,481.35v-1.53h9.25v1.53Zm7.06,12.25a4.65,4.65,0,0,1-3.24-1,3.8,3.8,0,0,1-1.14-2.94V476.8h2v12.71a2.44,2.44,0,0,0,.67,1.85,2.64,2.64,0,0,0,1.92.65,3.45,3.45,0,0,0,2.22-.7l.71,1.32a3.77,3.77,0,0,1-1.44.73A6.21,6.21,0,0,1,518.26,493.6Z" transform="translate(0 14.68)" />
          <path class="cls-7" d="M529.7,493.6a8.94,8.94,0,0,1-4.1-.9,7,7,0,0,1-2.76-2.47,6.62,6.62,0,0,1-1-3.6,6.63,6.63,0,0,1,3.57-6.05,7.74,7.74,0,0,1,3.74-.89,7.89,7.89,0,0,1,3.75.87,6.49,6.49,0,0,1,2.57,2.44,6.91,6.91,0,0,1,.94,3.63c0,.09,0,.18,0,.27s0,.2,0,.3h-13v-1.38h11.92l-.8.55a4.89,4.89,0,0,0-2.59-4.45,5.69,5.69,0,0,0-2.76-.65,5.85,5.85,0,0,0-2.76.65,4.85,4.85,0,0,0-1.91,1.82,5.29,5.29,0,0,0-.68,2.68v.29a4.93,4.93,0,0,0,.76,2.74,5.12,5.12,0,0,0,2.1,1.85,7,7,0,0,0,3.09.66,7.34,7.34,0,0,0,2.55-.44,5.39,5.39,0,0,0,2-1.36l1.14,1.2A6.31,6.31,0,0,1,533,493,9,9,0,0,1,529.7,493.6Z" transform="translate(0 14.68)" />
          <path class="cls-7" d="M547,479.69a7.65,7.65,0,0,1,3.2.63,4.84,4.84,0,0,1,2.16,1.94,6.2,6.2,0,0,1,.79,3.28v7.93h-2v-7.75a4.23,4.23,0,0,0-1.19-3.26,4.63,4.63,0,0,0-3.31-1.11,6.36,6.36,0,0,0-2.78.58,4.33,4.33,0,0,0-1.82,1.7,5.26,5.26,0,0,0-.64,2.66v7.18h-2V479.82h1.94v3.74l-.32-.7a5.23,5.23,0,0,1,2.28-2.33A7.78,7.78,0,0,1,547,479.69Z" transform="translate(0 14.68)" />
          <path class="cls-7" d="M563.34,493.6a8.09,8.09,0,0,1-3.82-.89,7.05,7.05,0,0,1-2.67-9.72,6.67,6.67,0,0,1,2.67-2.43,8.2,8.2,0,0,1,3.82-.87,7.63,7.63,0,0,1,3.52.8,6.09,6.09,0,0,1,2.47,2.36,7.21,7.21,0,0,1,.93,3.78,7.34,7.34,0,0,1-.91,3.77,6.18,6.18,0,0,1-2.46,2.38A7.58,7.58,0,0,1,563.34,493.6Zm.15-1.64a6.12,6.12,0,0,0,2.86-.66,5.07,5.07,0,0,0,2-1.88,5.8,5.8,0,0,0,0-5.6,5,5,0,0,0-2-1.86,6.12,6.12,0,0,0-2.86-.66,5.93,5.93,0,0,0-2.82.66,5,5,0,0,0-2,1.86,5.67,5.67,0,0,0,0,5.6,5.07,5.07,0,0,0,2,1.88A5.93,5.93,0,0,0,563.49,492Zm5.63,1.51v-4.11l.2-2.76-.28-2.75v-9.68h2v19.3Z" transform="translate(0 14.68)" />
          <path class="cls-7" d="M56.15,553.47l-5.63-13.65h1.93l5.13,12.66h-.89L62,539.82h1.73l5.21,12.66H68l5.21-12.66h1.85l-5.66,13.65H67.51l-5-11.91h.6l-5,11.91Z" transform="translate(0 14.68)" />
          <path class="cls-7" d="M78,536.8a1.52,1.52,0,0,1-1-.39,1.24,1.24,0,0,1-.43-.94,1.2,1.2,0,0,1,.43-.92,1.56,1.56,0,0,1,1-.38,1.61,1.61,0,0,1,1.06.37,1.14,1.14,0,0,1,.42.91,1.25,1.25,0,0,1-.41,1A1.48,1.48,0,0,1,78,536.8Zm-1,16.67V539.82h2v13.65Z" transform="translate(0 14.68)" />
          <path class="cls-7" d="M81.06,541.35v-1.53h9.25v1.53Zm7,12.25a4.65,4.65,0,0,1-3.24-1,3.8,3.8,0,0,1-1.14-2.94V536.8h2v12.71a2.44,2.44,0,0,0,.67,1.85,2.67,2.67,0,0,0,1.92.65,3.45,3.45,0,0,0,2.22-.7l.71,1.32a3.73,3.73,0,0,1-1.43.73A6.28,6.28,0,0,1,88.11,553.6Z" transform="translate(0 14.68)" />
          <path class="cls-7" d="M101.38,539.69a7.65,7.65,0,0,1,3.2.63,4.84,4.84,0,0,1,2.16,1.94,6.3,6.3,0,0,1,.78,3.28v7.93h-2v-7.75a4.23,4.23,0,0,0-1.18-3.26,4.65,4.65,0,0,0-3.31-1.11,6.33,6.33,0,0,0-2.78.58,4.28,4.28,0,0,0-1.82,1.7,5.16,5.16,0,0,0-.64,2.66v7.18h-2v-19.3h2v9.39l-.4-.7a5.18,5.18,0,0,1,2.28-2.33A7.75,7.75,0,0,1,101.38,539.69Z" transform="translate(0 14.68)" />
          <path class="cls-7" d="M122.66,553.62a12.73,12.73,0,0,1-4.08-.64,8.43,8.43,0,0,1-3.09-1.7l1-1.48a7.43,7.43,0,0,0,2.6,1.51,10.29,10.29,0,0,0,3.57.6,6.24,6.24,0,0,0,3.8-1,3.13,3.13,0,0,0,1.33-2.65,3.17,3.17,0,0,0-1.3-2.66,6.8,6.8,0,0,0-4.08-1H121v-1.38l6.14-7,.29.73h-11.1v-1.66h12.81v1.32l-6.15,7-1-.6h.77a8.32,8.32,0,0,1,5.36,1.46,4.61,4.61,0,0,1,1.78,3.74,5,5,0,0,1-.79,2.76,5.35,5.35,0,0,1-2.41,1.92A10,10,0,0,1,122.66,553.62Z" transform="translate(0 14.68)" />
          <path class="cls-7" d="M138.86,553.6a8.16,8.16,0,0,1-3.83-.89,7,7,0,0,1-2.66-9.72,6.58,6.58,0,0,1,2.66-2.43,8.28,8.28,0,0,1,3.83-.87,7.56,7.56,0,0,1,3.51.8,6.12,6.12,0,0,1,2.48,2.36,7.2,7.2,0,0,1,.92,3.78,7.34,7.34,0,0,1-.91,3.77,6.06,6.06,0,0,1-2.46,2.38A7.51,7.51,0,0,1,138.86,553.6ZM139,552a6.09,6.09,0,0,0,2.86-.66,5,5,0,0,0,2-1.88,5.73,5.73,0,0,0,0-5.6,5,5,0,0,0-2-1.86,6.09,6.09,0,0,0-2.86-.66,6,6,0,0,0-2.82.66,5.09,5.09,0,0,0-2,1.86,5.67,5.67,0,0,0,0,5.6,5.14,5.14,0,0,0,2,1.88A6,6,0,0,0,139,552Zm5.64,1.51v-4.11l.2-2.76-.29-2.75v-9.68h2v19.3Z" transform="translate(0 14.68)" />
          <path class="cls-7" d="M163.48,553.6a8.54,8.54,0,0,1-4-.9,6.87,6.87,0,0,1-2.75-2.47,7,7,0,0,1,0-7.22,6.8,6.8,0,0,1,2.75-2.44,8.65,8.65,0,0,1,4-.88,8.45,8.45,0,0,1,3.44.67,5.47,5.47,0,0,1,2.42,2l-1.51.94a4.59,4.59,0,0,0-1.91-1.54,6.12,6.12,0,0,0-2.47-.49,6.23,6.23,0,0,0-2.88.66,5.1,5.1,0,0,0-2,1.86,5.27,5.27,0,0,0,2,7.48,6.23,6.23,0,0,0,2.88.66,6.13,6.13,0,0,0,2.47-.5,4.66,4.66,0,0,0,1.91-1.5l1.51.93a5.58,5.58,0,0,1-2.42,2A8.29,8.29,0,0,1,163.48,553.6Z" transform="translate(0 14.68)" />
          <path class="cls-7" d="M177.93,553.6a8.18,8.18,0,0,1-3.89-.9,7,7,0,0,1-2.71-2.48,7.06,7.06,0,0,1,0-7.21,7,7,0,0,1,2.71-2.44,8.29,8.29,0,0,1,3.89-.88,8.42,8.42,0,0,1,3.95.89,7,7,0,0,1,2.7,2.45,6.52,6.52,0,0,1,1,3.6,6.61,6.61,0,0,1-1,3.6,6.78,6.78,0,0,1-2.72,2.47A8.4,8.4,0,0,1,177.93,553.6Zm0-1.64a6.09,6.09,0,0,0,2.88-.66,5.11,5.11,0,0,0,2-1.88,5.8,5.8,0,0,0,0-5.6,5.06,5.06,0,0,0-2-1.86,6.46,6.46,0,0,0-5.69,0,5.11,5.11,0,0,0-2,1.86,5.33,5.33,0,0,0,2,7.48A5.94,5.94,0,0,0,177.93,552Z" transform="translate(0 14.68)" />
          <path class="cls-7" d="M196.12,539.69a7.61,7.61,0,0,1,3.2.63,4.91,4.91,0,0,1,2.17,1.94,6.3,6.3,0,0,1,.78,3.28v7.93h-2v-7.75a4.26,4.26,0,0,0-1.18-3.26,4.67,4.67,0,0,0-3.32-1.11,6.28,6.28,0,0,0-2.77.58,4.3,4.3,0,0,0-1.83,1.7,5.26,5.26,0,0,0-.64,2.66v7.18h-2V539.82h1.94v3.74l-.31-.7a5.16,5.16,0,0,1,2.27-2.33A7.81,7.81,0,0,1,196.12,539.69Z" transform="translate(0 14.68)" />
          <path class="cls-7" d="M204.2,541.35v-1.53h9.25v1.53Zm7.06,12.25a4.65,4.65,0,0,1-3.24-1,3.8,3.8,0,0,1-1.14-2.94V536.8h2v12.71a2.44,2.44,0,0,0,.67,1.85,2.64,2.64,0,0,0,1.92.65,3.45,3.45,0,0,0,2.22-.7l.71,1.32a3.77,3.77,0,0,1-1.44.73A6.21,6.21,0,0,1,211.26,553.6Z" transform="translate(0 14.68)" />
          <path class="cls-7" d="M222.7,553.6a8.94,8.94,0,0,1-4.1-.9,7,7,0,0,1-2.76-2.47,6.62,6.62,0,0,1-1-3.6,6.71,6.71,0,0,1,1-3.59,6.82,6.82,0,0,1,2.62-2.46,7.74,7.74,0,0,1,3.74-.89,7.82,7.82,0,0,1,3.74.87,6.45,6.45,0,0,1,2.58,2.44,6.91,6.91,0,0,1,.94,3.63c0,.09,0,.18,0,.27s0,.2,0,.3h-13v-1.38h11.93l-.8.55a4.89,4.89,0,0,0-2.59-4.45,5.69,5.69,0,0,0-2.76-.65,5.85,5.85,0,0,0-2.76.65,4.85,4.85,0,0,0-1.91,1.82,5.29,5.29,0,0,0-.68,2.68v.29a4.93,4.93,0,0,0,.76,2.74,5.12,5.12,0,0,0,2.1,1.85,7,7,0,0,0,3.09.66,7.34,7.34,0,0,0,2.55-.44,5.39,5.39,0,0,0,2-1.36l1.14,1.2A6.31,6.31,0,0,1,226,553,9,9,0,0,1,222.7,553.6Z" transform="translate(0 14.68)" />
          <path class="cls-7" d="M240,539.69a7.65,7.65,0,0,1,3.2.63,4.84,4.84,0,0,1,2.16,1.94,6.3,6.3,0,0,1,.79,3.28v7.93h-2v-7.75a4.23,4.23,0,0,0-1.18-3.26,4.63,4.63,0,0,0-3.31-1.11,6.36,6.36,0,0,0-2.78.58,4.33,4.33,0,0,0-1.82,1.7,5.16,5.16,0,0,0-.64,2.66v7.18h-2V539.82h1.94v3.74l-.32-.7a5.23,5.23,0,0,1,2.28-2.33A7.78,7.78,0,0,1,240,539.69Z" transform="translate(0 14.68)" />
          <path class="cls-7" d="M248.06,541.35v-1.53h9.25v1.53Zm7.06,12.25a4.66,4.66,0,0,1-3.25-1,3.83,3.83,0,0,1-1.13-2.94V536.8h2v12.71a2.44,2.44,0,0,0,.67,1.85,2.64,2.64,0,0,0,1.92.65,3.45,3.45,0,0,0,2.22-.7l.71,1.32a3.77,3.77,0,0,1-1.44.73A6.21,6.21,0,0,1,255.12,553.6Z" transform="translate(0 14.68)" />
          <path class="cls-7" d="M261.24,553.6a1.49,1.49,0,0,1-1.07-.42,1.36,1.36,0,0,1-.44-1,1.31,1.31,0,0,1,.44-1,1.55,1.55,0,0,1,1.07-.39,1.57,1.57,0,0,1,1.07.39,1.31,1.31,0,0,1,.44,1,1.36,1.36,0,0,1-.44,1A1.5,1.5,0,0,1,261.24,553.6Z" transform="translate(0 14.68)" />
          <path class="cls-7" d="M269.38,553.47l9.1-18.2h2.08l9.11,18.2h-2.22l-8.37-17.09h.86l-8.37,17.09ZM273,548.6l.63-1.56h11.58l.63,1.56Z" transform="translate(0 14.68)" />
          <path class="cls-7" d="M291.35,558.51V539.82h1.93v4.1l-.2,2.73.29,2.76v9.1Zm7.71-4.91a7.5,7.5,0,0,1-3.5-.82,6.3,6.3,0,0,1-2.49-2.37,7.21,7.21,0,0,1-.93-3.78,7.3,7.3,0,0,1,.92-3.78,6,6,0,0,1,2.47-2.36,7.7,7.7,0,0,1,3.53-.8,8.28,8.28,0,0,1,3.83.87,6.6,6.6,0,0,1,2.66,2.44,7.3,7.3,0,0,1,0,7.27,6.74,6.74,0,0,1-2.66,2.44A8.16,8.16,0,0,1,299.06,553.6Zm-.14-1.64a6,6,0,0,0,2.84-.66,5.16,5.16,0,0,0,2-1.88,5.24,5.24,0,0,0,.74-2.79,5.18,5.18,0,0,0-.74-2.78,5.32,5.32,0,0,0-2-1.88,5.87,5.87,0,0,0-2.84-.67,6,6,0,0,0-2.86.67,5.08,5.08,0,0,0-2,1.88,5.17,5.17,0,0,0-.73,2.78,5.23,5.23,0,0,0,.73,2.79,4.94,4.94,0,0,0,2,1.88A6.09,6.09,0,0,0,298.92,552Z" transform="translate(0 14.68)" />
          <path class="cls-7" d="M309.45,558.51V539.82h1.93v4.1l-.19,2.73.28,2.76v9.1Zm7.71-4.91a7.5,7.5,0,0,1-3.5-.82,6.3,6.3,0,0,1-2.49-2.37,7.2,7.2,0,0,1-.92-3.78,7.3,7.3,0,0,1,.91-3.78,6,6,0,0,1,2.47-2.36,7.7,7.7,0,0,1,3.53-.8,8.25,8.25,0,0,1,3.83.87,6.54,6.54,0,0,1,2.66,2.44,7.3,7.3,0,0,1,0,7.27,6.68,6.68,0,0,1-2.66,2.44A8.13,8.13,0,0,1,317.16,553.6ZM317,552a6,6,0,0,0,2.85-.66,5.43,5.43,0,0,0,2-7.45,5.36,5.36,0,0,0-2-1.88,6.42,6.42,0,0,0-5.71,0,5.1,5.1,0,0,0-2.72,4.66,5.23,5.23,0,0,0,.73,2.79,5,5,0,0,0,2,1.88A6.09,6.09,0,0,0,317,552Z" transform="translate(0 14.68)" />
          <path class="cls-7" d="M327.55,553.47v-19.3h2v19.3Z" transform="translate(0 14.68)" />
          <path class="cls-7" d="M334.12,558.64a6.3,6.3,0,0,1-2-.31,4.43,4.43,0,0,1-1.64-.94l.94-1.38a4.35,4.35,0,0,0,1.24.77,3.92,3.92,0,0,0,1.49.27,2.89,2.89,0,0,0,1.72-.5,4.7,4.7,0,0,0,1.38-1.78l1-2,.23-.28,6.15-12.66h2L339.1,555.1a7.41,7.41,0,0,1-1.38,2.11,4.25,4.25,0,0,1-1.63,1.1A5.58,5.58,0,0,1,334.12,558.64Zm4-4.78-6.89-14h2.11l6.09,12.53Z" transform="translate(0 14.68)" />
          <path class="cls-7" d="M349.27,536.8a1.53,1.53,0,0,1-1.06-.39,1.23,1.23,0,0,1-.42-.94,1.19,1.19,0,0,1,.42-.92,1.57,1.57,0,0,1,1.06-.38,1.6,1.6,0,0,1,1.05.37,1.15,1.15,0,0,1,.43.91,1.26,1.26,0,0,1-.42,1A1.47,1.47,0,0,1,349.27,536.8Zm-1,16.67V539.82h2v13.65Z" transform="translate(0 14.68)" />
          <path class="cls-7" d="M362.33,539.69a7.65,7.65,0,0,1,3.2.63,4.84,4.84,0,0,1,2.16,1.94,6.2,6.2,0,0,1,.79,3.28v7.93h-2v-7.75a4.23,4.23,0,0,0-1.19-3.26,4.63,4.63,0,0,0-3.31-1.11,6.36,6.36,0,0,0-2.78.58,4.33,4.33,0,0,0-1.82,1.7,5.26,5.26,0,0,0-.64,2.66v7.18h-2V539.82h1.94v3.74l-.32-.7a5.23,5.23,0,0,1,2.28-2.33A7.78,7.78,0,0,1,362.33,539.69Z" transform="translate(0 14.68)" />
          <path class="cls-7" d="M378.75,553a8.6,8.6,0,0,1-3.84-.85,6.63,6.63,0,0,1-2.69-2.35,6.17,6.17,0,0,1-1-3.46,6.06,6.06,0,0,1,1-3.44,6.51,6.51,0,0,1,2.69-2.33,8.59,8.59,0,0,1,3.84-.83,8.36,8.36,0,0,1,3.59.75,6,6,0,0,1,2.53,2.24,7.4,7.4,0,0,1,0,7.22,6.17,6.17,0,0,1-2.53,2.27A8.08,8.08,0,0,1,378.75,553Zm.37,5.69a13.77,13.77,0,0,1-3.93-.55,7.79,7.79,0,0,1-3-1.56l1-1.4a8.06,8.06,0,0,0,2.61,1.37,10.72,10.72,0,0,0,3.28.5,6.11,6.11,0,0,0,4.19-1.21,4.81,4.81,0,0,0,1.33-3.75v-3.41l.29-2.34-.2-2.34v-4.13h1.93v12q0,3.54-1.89,5.19A8.27,8.27,0,0,1,379.12,558.64Zm-.17-7.33a6.41,6.41,0,0,0,2.93-.64,5,5,0,0,0,2-1.77,5,5,0,0,0,0-5.21,5.1,5.1,0,0,0-2-1.76,7.11,7.11,0,0,0-5.85,0,5,5,0,0,0-2,1.76,5.07,5.07,0,0,0,0,5.21,4.84,4.84,0,0,0,2,1.77A6.46,6.46,0,0,0,379,551.31Z" transform="translate(0 14.68)" />
          <path class="cls-7" d="M397.31,553.47v-19.3h2v19.3Zm1.59-3.54.06-2.37,9.3-7.74h2.48l-6.57,5.74-1.14.89Zm10,3.54-6.23-7.1,1.31-1.43,7.4,8.53Z" transform="translate(0 14.68)" />
          <path class="cls-7" d="M420.62,539.69a7.65,7.65,0,0,1,3.2.63,4.84,4.84,0,0,1,2.16,1.94,6.3,6.3,0,0,1,.78,3.28v7.93h-2v-7.75a4.23,4.23,0,0,0-1.18-3.26,4.65,4.65,0,0,0-3.31-1.11,6.33,6.33,0,0,0-2.78.58,4.28,4.28,0,0,0-1.82,1.7,5.16,5.16,0,0,0-.64,2.66v7.18h-2V539.82h1.93v3.74l-.31-.7a5.13,5.13,0,0,1,2.28-2.33A7.75,7.75,0,0,1,420.62,539.69Z" transform="translate(0 14.68)" />
          <path class="cls-7" d="M437.12,553.6a8.25,8.25,0,0,1-3.9-.9,7,7,0,0,1-2.7-2.48,7,7,0,0,1,0-7.21,6.85,6.85,0,0,1,2.7-2.44,9.12,9.12,0,0,1,7.84,0,7,7,0,0,1,2.71,2.45,6.6,6.6,0,0,1,1,3.6,6.7,6.7,0,0,1-1,3.6,6.85,6.85,0,0,1-2.72,2.47A8.43,8.43,0,0,1,437.12,553.6Zm0-1.64a6.11,6.11,0,0,0,2.88-.66,5,5,0,0,0,2-1.88,5.73,5.73,0,0,0,0-5.6,5,5,0,0,0-2-1.86,6,6,0,0,0-2.85-.66,6,6,0,0,0-2.84.66,5.11,5.11,0,0,0-2,1.86,5.33,5.33,0,0,0,2,7.48A5.94,5.94,0,0,0,437.12,552Z" transform="translate(0 14.68)" />
          <path class="cls-7" d="M450.3,553.47l-5.64-13.65h1.94l5.12,12.66h-.88l5.27-12.66h1.73l5.21,12.66h-.88l5.21-12.66h1.85l-5.67,13.65h-1.9l-5-11.91h.59l-5,11.91Z" transform="translate(0 14.68)" />
          <path class="cls-7" d="M471.08,553.47v-19.3h2v19.3Z" transform="translate(0 14.68)" />
          <path class="cls-7" d="M483.88,553.6a8.94,8.94,0,0,1-4.1-.9,7,7,0,0,1-2.76-2.47,6.62,6.62,0,0,1-1-3.6,6.63,6.63,0,0,1,3.57-6,7.74,7.74,0,0,1,3.74-.89,7.89,7.89,0,0,1,3.75.87,6.49,6.49,0,0,1,2.57,2.44,6.91,6.91,0,0,1,.94,3.63,2.44,2.44,0,0,1,0,.27c0,.1,0,.2,0,.3h-13v-1.38h11.92l-.8.55a4.89,4.89,0,0,0-2.59-4.45,5.69,5.69,0,0,0-2.76-.65,5.85,5.85,0,0,0-2.76.65,4.76,4.76,0,0,0-1.9,1.82,5.19,5.19,0,0,0-.69,2.68v.29a4.93,4.93,0,0,0,.76,2.74,5.12,5.12,0,0,0,2.1,1.85,7,7,0,0,0,3.09.66,7.34,7.34,0,0,0,2.55-.44,5.39,5.39,0,0,0,2-1.36l1.14,1.2a6.31,6.31,0,0,1-2.49,1.66A9,9,0,0,1,483.88,553.6Z" transform="translate(0 14.68)" />
          <path class="cls-7" d="M499.48,553.6a8.16,8.16,0,0,1-3.83-.89,6.77,6.77,0,0,1-2.66-2.45,7.3,7.3,0,0,1,0-7.27,6.65,6.65,0,0,1,2.66-2.43,8.28,8.28,0,0,1,3.83-.87,7.56,7.56,0,0,1,3.51.8,6.12,6.12,0,0,1,2.48,2.36,7.21,7.21,0,0,1,.93,3.78,7.34,7.34,0,0,1-.92,3.77,6.06,6.06,0,0,1-2.46,2.38A7.51,7.51,0,0,1,499.48,553.6Zm.14-1.64a6.09,6.09,0,0,0,2.86-.66,4.94,4.94,0,0,0,2-1.88,5.73,5.73,0,0,0,0-5.6,4.89,4.89,0,0,0-2-1.86,6.09,6.09,0,0,0-2.86-.66,6,6,0,0,0-2.82.66,5.16,5.16,0,0,0-2,1.86,5.32,5.32,0,0,0,2,7.48A6,6,0,0,0,499.62,552Zm5.64,1.51v-4.11l.2-2.76-.29-2.75v-9.68h2v19.3Z" transform="translate(0 14.68)" />
          <path class="cls-7" d="M517.64,553a8.61,8.61,0,0,1-3.85-.85,6.66,6.66,0,0,1-2.68-2.35,6.18,6.18,0,0,1-1-3.46,6.06,6.06,0,0,1,1-3.44,6.54,6.54,0,0,1,2.68-2.33,8.6,8.6,0,0,1,3.85-.83,8.28,8.28,0,0,1,3.58.75,5.93,5.93,0,0,1,2.54,2.24,7.4,7.4,0,0,1,0,7.22,6.13,6.13,0,0,1-2.54,2.27A8,8,0,0,1,517.64,553Zm.37,5.69a13.77,13.77,0,0,1-3.93-.55,7.91,7.91,0,0,1-3.05-1.56l1-1.4a8.11,8.11,0,0,0,2.6,1.37,10.78,10.78,0,0,0,3.29.5,6.07,6.07,0,0,0,4.18-1.21,4.78,4.78,0,0,0,1.34-3.75v-3.41l.29-2.34-.2-2.34v-4.13h1.93v12q0,3.54-1.89,5.19A8.29,8.29,0,0,1,518,558.64Zm-.17-7.33a6.44,6.44,0,0,0,2.93-.64,5,5,0,0,0,2-1.77,5,5,0,0,0,0-5.21,5.17,5.17,0,0,0-2-1.76,7.11,7.11,0,0,0-5.85,0,5,5,0,0,0-2,1.76,5,5,0,0,0,0,5.21,4.84,4.84,0,0,0,2,1.77A6.43,6.43,0,0,0,517.84,551.31Z" transform="translate(0 14.68)" />
          <path class="cls-7" d="M536.28,553.6a8.91,8.91,0,0,1-4.1-.9,6.83,6.83,0,0,1-2.76-2.47,6.63,6.63,0,0,1-1-3.6,6.66,6.66,0,0,1,3.58-6,7.71,7.71,0,0,1,3.74-.89,7.85,7.85,0,0,1,3.74.87,6.52,6.52,0,0,1,2.58,2.44,7,7,0,0,1,.94,3.63,2.45,2.45,0,0,1,0,.27c0,.1,0,.2,0,.3H530v-1.38h11.93l-.8.55a5,5,0,0,0-.7-2.64,4.91,4.91,0,0,0-1.89-1.81,6.18,6.18,0,0,0-5.52,0,4.78,4.78,0,0,0-1.91,1.82,5.29,5.29,0,0,0-.68,2.68v.29a5,5,0,0,0,.75,2.74,5.15,5.15,0,0,0,2.11,1.85,7,7,0,0,0,3.09.66,7.25,7.25,0,0,0,2.54-.44,5.34,5.34,0,0,0,2-1.36l1.14,1.2a6.45,6.45,0,0,1-2.49,1.66A9,9,0,0,1,536.28,553.6Z" transform="translate(0 14.68)" />
          <path class="cls-7" d="M549.85,541.35v-1.53h9.25v1.53Zm2.68,12.12V538.1a3.89,3.89,0,0,1,1.17-2.94,4.66,4.66,0,0,1,3.35-1.12,6.43,6.43,0,0,1,1.65.21,3.49,3.49,0,0,1,1.34.65l-.68,1.38a3.15,3.15,0,0,0-1-.51,4.33,4.33,0,0,0-1.22-.17,2.74,2.74,0,0,0-2,.65,2.54,2.54,0,0,0-.69,1.93v2.08l.06.86v12.35Z" transform="translate(0 14.68)" />
          <path class="cls-7" d="M560.64,553.47V539.82h1.94v3.71l-.2-.65a4.55,4.55,0,0,1,2.1-2.37,7.46,7.46,0,0,1,3.67-.82v1.79h-.22l-.23,0a4.62,4.62,0,0,0-5,5v7Z" transform="translate(0 14.68)" />
          <path class="cls-7" d="M576.58,553.6a8.25,8.25,0,0,1-3.9-.9,7,7,0,0,1-2.71-2.48,7.06,7.06,0,0,1,0-7.21,7,7,0,0,1,2.71-2.44,9.12,9.12,0,0,1,7.84,0,6.89,6.89,0,0,1,2.7,2.45,6.53,6.53,0,0,1,1,3.6,6.62,6.62,0,0,1-1,3.6,6.82,6.82,0,0,1-2.71,2.47A8.43,8.43,0,0,1,576.58,553.6Zm0-1.64a6,6,0,0,0,2.87-.66,5,5,0,0,0,2-1.88,5.73,5.73,0,0,0,0-5.6,4.93,4.93,0,0,0-2-1.86,6.46,6.46,0,0,0-5.69,0,5.09,5.09,0,0,0-2,1.86,5.67,5.67,0,0,0,0,5.6,5.11,5.11,0,0,0,2,1.88A5.88,5.88,0,0,0,576.58,552Z" transform="translate(0 14.68)" />
          <path class="cls-7" d="M605.81,539.69a7.44,7.44,0,0,1,3.17.63,4.77,4.77,0,0,1,2.11,1.94,6.5,6.5,0,0,1,.75,3.28v7.93h-2v-7.75a3.9,3.9,0,0,0-4.3-4.37,5.83,5.83,0,0,0-2.66.58,4.11,4.11,0,0,0-1.73,1.7,5.37,5.37,0,0,0-.62,2.66v7.18h-2v-7.75a3.93,3.93,0,0,0-4.32-4.37,5.84,5.84,0,0,0-2.65.58,4.16,4.16,0,0,0-1.75,1.7,5.37,5.37,0,0,0-.61,2.66v7.18h-2V539.82h1.93v3.69l-.31-.65a5.05,5.05,0,0,1,2.2-2.33,7.37,7.37,0,0,1,3.6-.84,6.64,6.64,0,0,1,3.73,1,4.64,4.64,0,0,1,2,3l-.8-.29a5.57,5.57,0,0,1,2.32-2.69A7.5,7.5,0,0,1,605.81,539.69Z" transform="translate(0 14.68)" />
          <path class="cls-7" d="M57,613.47l-6.63-13.65h2.1l6.09,12.66h-1l6.17-12.66h2L59,613.47Z" transform="translate(0 14.68)" />
          <path class="cls-7" d="M71.09,613.6a7.57,7.57,0,0,1-2.91-.51,4.3,4.3,0,0,1-1.9-1.41,3.42,3.42,0,0,1-.65-2.06,3.54,3.54,0,0,1,.56-1.94,3.77,3.77,0,0,1,1.82-1.4,8.79,8.79,0,0,1,3.4-.54h5.15v1.38h-5.1a4.85,4.85,0,0,0-3,.7,2.25,2.25,0,0,0,.16,3.62,4.76,4.76,0,0,0,2.79.7,5.82,5.82,0,0,0,2.94-.71,4.21,4.21,0,0,0,1.81-2.07l.46,1.27a4.48,4.48,0,0,1-2,2.16A7,7,0,0,1,71.09,613.6Zm5.16-.13v-3l-.09-.49v-5.05a3.39,3.39,0,0,0-1.07-2.68,4.7,4.7,0,0,0-3.17-.93,8.67,8.67,0,0,0-2.76.44,7.52,7.52,0,0,0-2.22,1.17L66,601.53a8.32,8.32,0,0,1,2.73-1.36,11.57,11.57,0,0,1,3.36-.48A6.8,6.8,0,0,1,76.6,601a4.9,4.9,0,0,1,1.58,4v8.48Z" transform="translate(0 14.68)" />
          <path class="cls-7" d="M82.48,613.47V599.82h1.93v3.71l-.2-.65a4.57,4.57,0,0,1,2.11-2.37,7.46,7.46,0,0,1,3.67-.82v1.79h-.23l-.22,0a4.62,4.62,0,0,0-5,5v7Z" transform="translate(0 14.68)" />
          <path class="cls-7" d="M93.49,596.8a1.5,1.5,0,0,1-1-.39,1.24,1.24,0,0,1-.43-.94,1.2,1.2,0,0,1,.43-.92,1.54,1.54,0,0,1,1-.38,1.61,1.61,0,0,1,1.06.37,1.14,1.14,0,0,1,.42.91,1.25,1.25,0,0,1-.41,1A1.5,1.5,0,0,1,93.49,596.8Zm-1,16.67V599.82h2v13.65Z" transform="translate(0 14.68)" />
          <path class="cls-7" d="M105,613.6a8.25,8.25,0,0,1-3.9-.9,7,7,0,0,1-2.7-2.48,7,7,0,0,1,0-7.21,6.85,6.85,0,0,1,2.7-2.44,9.12,9.12,0,0,1,7.84,0,6.89,6.89,0,0,1,2.7,2.45,6.53,6.53,0,0,1,1,3.6,6.62,6.62,0,0,1-1,3.6A6.82,6.82,0,0,1,109,612.7,8.43,8.43,0,0,1,105,613.6Zm0-1.64a6,6,0,0,0,2.87-.66,5,5,0,0,0,2-1.88,5.73,5.73,0,0,0,0-5.6,4.93,4.93,0,0,0-2-1.86,6.46,6.46,0,0,0-5.69,0,5.09,5.09,0,0,0-2,1.86,5.67,5.67,0,0,0,0,5.6,5.11,5.11,0,0,0,2,1.88A5.91,5.91,0,0,0,105,612Z" transform="translate(0 14.68)" />
          <path class="cls-7" d="M121.75,613.6a8,8,0,0,1-3.33-.65,5,5,0,0,1-2.2-2,6.23,6.23,0,0,1-.78-3.25v-7.93h2v7.72a4.3,4.3,0,0,0,1.18,3.29,4.67,4.67,0,0,0,3.31,1.1,5.93,5.93,0,0,0,2.72-.58,4.06,4.06,0,0,0,1.77-1.71,5.54,5.54,0,0,0,.61-2.67v-7.15h2v13.65h-1.94v-3.75l.32.68a5.23,5.23,0,0,1-2.21,2.35A7,7,0,0,1,121.75,613.6Z" transform="translate(0 14.68)" />
          <path class="cls-7" d="M137.52,613.6a12.49,12.49,0,0,1-3.5-.48,8.13,8.13,0,0,1-2.59-1.21l.91-1.46a8.88,8.88,0,0,0,2.33,1.08,9.89,9.89,0,0,0,3,.45,5.84,5.84,0,0,0,3.08-.61,1.87,1.87,0,0,0,.94-1.62,1.47,1.47,0,0,0-.53-1.19,3.54,3.54,0,0,0-1.38-.64,17,17,0,0,0-1.91-.38c-.7-.11-1.4-.23-2.09-.37a7.76,7.76,0,0,1-1.89-.61,3.59,3.59,0,0,1-1.38-1.1,3.05,3.05,0,0,1-.53-1.87,3.23,3.23,0,0,1,.68-2,4.63,4.63,0,0,1,2-1.39,9,9,0,0,1,3.23-.5,11.92,11.92,0,0,1,2.9.35,8.23,8.23,0,0,1,2.39.92l-.88,1.48a7.13,7.13,0,0,0-2.13-.89,9.36,9.36,0,0,0-2.28-.28,5.37,5.37,0,0,0-3,.64,1.89,1.89,0,0,0-1,1.62,1.54,1.54,0,0,0,.53,1.23,3.76,3.76,0,0,0,1.39.68,15.56,15.56,0,0,0,1.91.41c.69.1,1.39.23,2.08.38a9.7,9.7,0,0,1,1.91.59,3.47,3.47,0,0,1,1.39,1.07,2.91,2.91,0,0,1,.53,1.81,3.14,3.14,0,0,1-.73,2.06,4.77,4.77,0,0,1-2.1,1.36A10.31,10.31,0,0,1,137.52,613.6Z" transform="translate(0 14.68)" />
          <path class="cls-7" d="M158.41,613.6a8.16,8.16,0,0,1-3.83-.89,6.77,6.77,0,0,1-2.66-2.45,7.3,7.3,0,0,1,0-7.27,6.65,6.65,0,0,1,2.66-2.43,8.28,8.28,0,0,1,3.83-.87,7.63,7.63,0,0,1,3.52.8,6.15,6.15,0,0,1,2.47,2.36,7.21,7.21,0,0,1,.93,3.78,7.44,7.44,0,0,1-.91,3.77,6.14,6.14,0,0,1-2.47,2.38A7.51,7.51,0,0,1,158.41,613.6Zm.14-1.64a6.06,6.06,0,0,0,2.86-.66,5,5,0,0,0,2-1.88,5.8,5.8,0,0,0,0-5.6,5,5,0,0,0-2-1.86,6.06,6.06,0,0,0-2.86-.66,5.92,5.92,0,0,0-2.81.66,5.11,5.11,0,0,0-2,1.86,5.67,5.67,0,0,0,0,5.6,5.16,5.16,0,0,0,2,1.88A5.92,5.92,0,0,0,158.55,612Zm5.64,1.51v-4.11l.2-2.76-.29-2.75v-9.68h2v19.3Z" transform="translate(0 14.68)" />
          <path class="cls-7" d="M176.65,613.6a8.25,8.25,0,0,1-3.9-.9,7,7,0,0,1-2.7-2.48,7,7,0,0,1,0-7.21,6.92,6.92,0,0,1,2.7-2.44,9.15,9.15,0,0,1,7.85,0,7,7,0,0,1,2.7,2.45,6.6,6.6,0,0,1,1,3.6,6.7,6.7,0,0,1-1,3.6,6.85,6.85,0,0,1-2.72,2.47A8.4,8.4,0,0,1,176.65,613.6Zm0-1.64a6.09,6.09,0,0,0,2.88-.66,5.11,5.11,0,0,0,2-1.88,5.8,5.8,0,0,0,0-5.6,5.06,5.06,0,0,0-2-1.86,6,6,0,0,0-2.85-.66,6,6,0,0,0-2.84.66,5.11,5.11,0,0,0-2,1.86,5.33,5.33,0,0,0,2,7.48A5.94,5.94,0,0,0,176.65,612Z" transform="translate(0 14.68)" />
          <path class="cls-7" d="M205.88,599.69a7.46,7.46,0,0,1,3.18.63,4.69,4.69,0,0,1,2.1,1.94,6.5,6.5,0,0,1,.76,3.28v7.93h-2v-7.75a3.91,3.91,0,0,0-4.3-4.37,5.8,5.8,0,0,0-2.66.58,4.19,4.19,0,0,0-1.74,1.7,5.37,5.37,0,0,0-.61,2.66v7.18h-2v-7.75a4.32,4.32,0,0,0-1.14-3.26,4.38,4.38,0,0,0-3.19-1.11,5.8,5.8,0,0,0-2.64.58,4.1,4.1,0,0,0-1.75,1.7,5.37,5.37,0,0,0-.62,2.66v7.18h-2V599.82h1.94v3.69l-.31-.65a5.05,5.05,0,0,1,2.2-2.33,7.37,7.37,0,0,1,3.6-.84,6.66,6.66,0,0,1,3.73,1,4.63,4.63,0,0,1,2,3l-.8-.29a5.57,5.57,0,0,1,2.32-2.69A7.53,7.53,0,0,1,205.88,599.69Z" transform="translate(0 14.68)" />
          <path class="cls-7" d="M220.43,613.6a7.62,7.62,0,0,1-2.92-.51,4.21,4.21,0,0,1-1.89-1.41,3.36,3.36,0,0,1-.66-2.06,3.54,3.54,0,0,1,.56-1.94,3.77,3.77,0,0,1,1.82-1.4,8.82,8.82,0,0,1,3.4-.54h5.15v1.38H220.8a4.86,4.86,0,0,0-3,.7,2.25,2.25,0,0,0,.16,3.62,4.76,4.76,0,0,0,2.79.7,5.82,5.82,0,0,0,2.94-.71,4.21,4.21,0,0,0,1.81-2.07l.46,1.27a4.48,4.48,0,0,1-2,2.16A7,7,0,0,1,220.43,613.6Zm5.15-.13v-3l-.09-.49v-5.05a3.36,3.36,0,0,0-1.07-2.68,4.69,4.69,0,0,0-3.17-.93,8.67,8.67,0,0,0-2.76.44,7.52,7.52,0,0,0-2.22,1.17l-.91-1.38a8.32,8.32,0,0,1,2.73-1.36,11.57,11.57,0,0,1,3.36-.48,6.78,6.78,0,0,1,4.48,1.31,4.87,4.87,0,0,1,1.58,4v8.48Z" transform="translate(0 14.68)" />
          <path class="cls-7" d="M232.83,596.8a1.52,1.52,0,0,1-1.05-.39,1.24,1.24,0,0,1-.43-.94,1.2,1.2,0,0,1,.43-.92,1.56,1.56,0,0,1,1.05-.38,1.61,1.61,0,0,1,1.06.37,1.14,1.14,0,0,1,.42.91,1.25,1.25,0,0,1-.41,1A1.48,1.48,0,0,1,232.83,596.8Zm-1,16.67V599.82h2v13.65Z" transform="translate(0 14.68)" />
          <path class="cls-7" d="M245.9,599.69a7.65,7.65,0,0,1,3.2.63,4.84,4.84,0,0,1,2.16,1.94,6.3,6.3,0,0,1,.79,3.28v7.93h-2v-7.75a4.23,4.23,0,0,0-1.18-3.26,4.63,4.63,0,0,0-3.31-1.11,6.36,6.36,0,0,0-2.78.58,4.33,4.33,0,0,0-1.82,1.7,5.16,5.16,0,0,0-.64,2.66v7.18h-2V599.82h1.94v3.74l-.32-.7a5.23,5.23,0,0,1,2.28-2.33A7.78,7.78,0,0,1,245.9,599.69Z" transform="translate(0 14.68)" />
          <path class="cls-7" d="M260.33,613.6a12.44,12.44,0,0,1-3.5-.48,8,8,0,0,1-2.59-1.21l.91-1.46a8.58,8.58,0,0,0,2.33,1.08,9.89,9.89,0,0,0,3,.45,5.8,5.8,0,0,0,3.07-.61,1.84,1.84,0,0,0,.94-1.62,1.46,1.46,0,0,0-.52-1.19,3.68,3.68,0,0,0-1.38-.64,17,17,0,0,0-1.91-.38c-.7-.11-1.4-.23-2.09-.37a7.7,7.7,0,0,1-1.9-.61,3.75,3.75,0,0,1-1.38-1.1,3,3,0,0,1-.52-1.87,3.23,3.23,0,0,1,.68-2,4.57,4.57,0,0,1,2-1.39,9,9,0,0,1,3.23-.5,12,12,0,0,1,2.9.35A8.23,8.23,0,0,1,266,601l-.88,1.48a7.3,7.3,0,0,0-2.14-.89,9.22,9.22,0,0,0-2.27-.28,5.43,5.43,0,0,0-3,.64,1.9,1.9,0,0,0-1,1.62,1.54,1.54,0,0,0,.53,1.23,3.69,3.69,0,0,0,1.39.68,15.56,15.56,0,0,0,1.91.41c.69.1,1.38.23,2.08.38a9.6,9.6,0,0,1,1.9.59,3.43,3.43,0,0,1,1.4,1.07,2.9,2.9,0,0,1,.52,1.81,3.14,3.14,0,0,1-.72,2.06,4.8,4.8,0,0,1-2.11,1.36A10.21,10.21,0,0,1,260.33,613.6Z" transform="translate(0 14.68)" />
          <path class="cls-7" d="M272.94,601.35v-1.53h9.24v1.53ZM280,613.6a4.65,4.65,0,0,1-3.24-1,3.8,3.8,0,0,1-1.14-2.94V596.8h2v12.71a2.44,2.44,0,0,0,.67,1.85,2.67,2.67,0,0,0,1.92.65,3.45,3.45,0,0,0,2.22-.7l.71,1.32a3.8,3.8,0,0,1-1.43.73A6.28,6.28,0,0,1,280,613.6Z" transform="translate(0 14.68)" />
          <path class="cls-7" d="M291.18,613.6a8.25,8.25,0,0,1-3.9-.9,7,7,0,0,1-2.7-2.48,7,7,0,0,1,0-7.21,6.85,6.85,0,0,1,2.7-2.44,9.12,9.12,0,0,1,7.84,0,6.89,6.89,0,0,1,2.7,2.45,6.53,6.53,0,0,1,1,3.6,6.62,6.62,0,0,1-1,3.6,6.82,6.82,0,0,1-2.71,2.47A8.43,8.43,0,0,1,291.18,613.6Zm0-1.64a6,6,0,0,0,2.87-.66,5,5,0,0,0,2-1.88,5.73,5.73,0,0,0,0-5.6,4.93,4.93,0,0,0-2-1.86,6.46,6.46,0,0,0-5.69,0,5.09,5.09,0,0,0-2,1.86,5.67,5.67,0,0,0,0,5.6,5.11,5.11,0,0,0,2,1.88A5.91,5.91,0,0,0,291.18,612Z" transform="translate(0 14.68)" />
          <path class="cls-7" d="M308,618.51V599.82h1.93v4.1l-.2,2.73.29,2.76v9.1Zm7.71-4.91a7.5,7.5,0,0,1-3.5-.82,6.3,6.3,0,0,1-2.49-2.37,7.21,7.21,0,0,1-.93-3.78,7.3,7.3,0,0,1,.92-3.78,6,6,0,0,1,2.47-2.36,7.68,7.68,0,0,1,3.53-.8,8.28,8.28,0,0,1,3.83.87A6.6,6.6,0,0,1,322.2,603a7.3,7.3,0,0,1,0,7.27,6.74,6.74,0,0,1-2.66,2.44A8.16,8.16,0,0,1,315.71,613.6Zm-.14-1.64a6,6,0,0,0,2.84-.66,5.16,5.16,0,0,0,2-1.88,5.24,5.24,0,0,0,.74-2.79,5.18,5.18,0,0,0-.74-2.78,5.32,5.32,0,0,0-2-1.88,5.87,5.87,0,0,0-2.84-.67,6,6,0,0,0-2.86.67,5.08,5.08,0,0,0-2,1.88,5.17,5.17,0,0,0-.73,2.78,5.23,5.23,0,0,0,.73,2.79,4.94,4.94,0,0,0,2,1.88A6.09,6.09,0,0,0,315.57,612Z" transform="translate(0 14.68)" />
          <path class="cls-7" d="M326.1,613.47V599.82H328v3.71l-.19-.65a4.51,4.51,0,0,1,2.1-2.37,7.46,7.46,0,0,1,3.67-.82v1.79h-.22l-.23,0a4.62,4.62,0,0,0-5,5v7Z" transform="translate(0 14.68)" />
          <path class="cls-7" d="M342,613.6a8.25,8.25,0,0,1-3.9-.9,7,7,0,0,1-2.71-2.48,7.06,7.06,0,0,1,0-7.21,7,7,0,0,1,2.71-2.44,9.12,9.12,0,0,1,7.84,0,6.89,6.89,0,0,1,2.7,2.45,6.52,6.52,0,0,1,1,3.6,6.61,6.61,0,0,1-1,3.6A6.78,6.78,0,0,1,346,612.7,8.36,8.36,0,0,1,342,613.6Zm0-1.64a6,6,0,0,0,2.87-.66,5,5,0,0,0,2-1.88,5.73,5.73,0,0,0,0-5.6,4.93,4.93,0,0,0-2-1.86,6.46,6.46,0,0,0-5.69,0,5,5,0,0,0-2,1.86,5.35,5.35,0,0,0,2,7.48A6,6,0,0,0,342,612Z" transform="translate(0 14.68)" />
          <path class="cls-7" d="M356,613.47l-6.63-13.65h2.11l6.09,12.66h-1l6.18-12.66h2l-6.66,13.65Z" transform="translate(0 14.68)" />
          <path class="cls-7" d="M367.42,596.8a1.52,1.52,0,0,1-1.05-.39,1.24,1.24,0,0,1-.43-.94,1.2,1.2,0,0,1,.43-.92,1.56,1.56,0,0,1,1.05-.38,1.61,1.61,0,0,1,1.06.37,1.14,1.14,0,0,1,.42.91,1.25,1.25,0,0,1-.41,1A1.48,1.48,0,0,1,367.42,596.8Zm-1,16.67V599.82h2v13.65Z" transform="translate(0 14.68)" />
          <path class="cls-7" d="M378.81,613.6a8.13,8.13,0,0,1-3.83-.89,7,7,0,0,1-2.66-9.72,6.58,6.58,0,0,1,2.66-2.43,8.25,8.25,0,0,1,3.83-.87,7.56,7.56,0,0,1,3.51.8,6.12,6.12,0,0,1,2.48,2.36,8.24,8.24,0,0,1,0,7.55,6.06,6.06,0,0,1-2.46,2.38A7.51,7.51,0,0,1,378.81,613.6ZM379,612a6.09,6.09,0,0,0,2.86-.66,5,5,0,0,0,2-1.88,5.73,5.73,0,0,0,0-5.6,5,5,0,0,0-2-1.86,6.09,6.09,0,0,0-2.86-.66,6,6,0,0,0-2.82.66,5.09,5.09,0,0,0-2,1.86,5.67,5.67,0,0,0,0,5.6,5.14,5.14,0,0,0,2,1.88A6,6,0,0,0,379,612Zm5.64,1.51v-4.11l.19-2.76-.28-2.75v-9.68h2v19.3Z" transform="translate(0 14.68)" />
          <path class="cls-7" d="M397.31,613.6a8.91,8.91,0,0,1-4.1-.9,6.83,6.83,0,0,1-2.76-2.47,6.54,6.54,0,0,1-1-3.6,6.68,6.68,0,0,1,3.57-6,7.75,7.75,0,0,1,3.75-.89,7.85,7.85,0,0,1,3.74.87,6.42,6.42,0,0,1,2.57,2.44,6.91,6.91,0,0,1,.94,3.63,2.44,2.44,0,0,1,0,.27c0,.1,0,.2,0,.3H391v-1.38h11.92l-.79.55a4.94,4.94,0,0,0-2.59-4.45,6.18,6.18,0,0,0-5.52,0,4.72,4.72,0,0,0-1.91,1.82,5.19,5.19,0,0,0-.68,2.68v.29a5,5,0,0,0,.75,2.74,5.09,5.09,0,0,0,2.11,1.85,6.93,6.93,0,0,0,3.08.66,7.34,7.34,0,0,0,2.55-.44,5.34,5.34,0,0,0,2-1.36l1.13,1.2a6.31,6.31,0,0,1-2.49,1.66A8.9,8.9,0,0,1,397.31,613.6Z" transform="translate(0 14.68)" />
          <path class="cls-7" d="M419.56,613.6a8.94,8.94,0,0,1-4.1-.9,7,7,0,0,1-2.76-2.47,6.62,6.62,0,0,1-1-3.6,6.71,6.71,0,0,1,1-3.59,6.82,6.82,0,0,1,2.62-2.46,7.74,7.74,0,0,1,3.74-.89,7.82,7.82,0,0,1,3.74.87,6.45,6.45,0,0,1,2.58,2.44,6.91,6.91,0,0,1,.94,3.63,2.45,2.45,0,0,1,0,.27c0,.1,0,.2,0,.3h-13v-1.38h11.93l-.8.55a4.89,4.89,0,0,0-2.59-4.45,5.69,5.69,0,0,0-2.76-.65,5.85,5.85,0,0,0-2.76.65,4.85,4.85,0,0,0-1.91,1.82,5.29,5.29,0,0,0-.68,2.68v.29a4.93,4.93,0,0,0,.76,2.74,5.12,5.12,0,0,0,2.1,1.85,7,7,0,0,0,3.09.66,7.34,7.34,0,0,0,2.55-.44,5.39,5.39,0,0,0,2-1.36l1.14,1.2a6.31,6.31,0,0,1-2.49,1.66A9,9,0,0,1,419.56,613.6Z" transform="translate(0 14.68)" />
          <path class="cls-7" d="M426.88,601.35v-1.53h9.25v1.53Zm2.67,12.12V598.1a3.89,3.89,0,0,1,1.17-2.94,4.7,4.7,0,0,1,3.36-1.12,6.43,6.43,0,0,1,1.65.21,3.64,3.64,0,0,1,1.34.65l-.69,1.38a3.09,3.09,0,0,0-1-.51,4.4,4.4,0,0,0-1.23-.17,2.74,2.74,0,0,0-2,.65,2.54,2.54,0,0,0-.68,1.93v2.08l.05.86v12.35Z" transform="translate(0 14.68)" />
          <path class="cls-7" d="M435.33,601.35v-1.53h9.25v1.53ZM438,613.47V598.1a3.89,3.89,0,0,1,1.17-2.94,4.7,4.7,0,0,1,3.36-1.12,6.43,6.43,0,0,1,1.65.21,3.57,3.57,0,0,1,1.34.65l-.68,1.38a3.25,3.25,0,0,0-1-.51,4.39,4.39,0,0,0-1.22-.17,2.77,2.77,0,0,0-2,.65,2.58,2.58,0,0,0-.68,1.93v2.08l.06.86v12.35Zm10.34-16.67a1.53,1.53,0,0,1-1.06-.39,1.23,1.23,0,0,1-.42-.94,1.19,1.19,0,0,1,.42-.92,1.57,1.57,0,0,1,1.06-.38,1.6,1.6,0,0,1,1.05.37,1.15,1.15,0,0,1,.43.91,1.26,1.26,0,0,1-.42,1A1.47,1.47,0,0,1,448.34,596.8Zm-1,16.67V599.82h2v13.65Z" transform="translate(0 14.68)" />
          <path class="cls-7" d="M460,613.6a8.56,8.56,0,0,1-4-.9,6.9,6.9,0,0,1-2.74-2.47,7,7,0,0,1,0-7.22,6.84,6.84,0,0,1,2.74-2.44,8.68,8.68,0,0,1,4-.88,8.49,8.49,0,0,1,3.45.67,5.47,5.47,0,0,1,2.42,2l-1.51.94a4.59,4.59,0,0,0-1.91-1.54,6.55,6.55,0,0,0-5.35.17,5,5,0,0,0-2,1.86,5.71,5.71,0,0,0,0,5.62,5.18,5.18,0,0,0,2,1.86,6.49,6.49,0,0,0,5.35.16,4.66,4.66,0,0,0,1.91-1.5l1.51.93a5.58,5.58,0,0,1-2.42,2A8.34,8.34,0,0,1,460,613.6Z" transform="translate(0 14.68)" />
          <path class="cls-7" d="M469.43,596.8a1.53,1.53,0,0,1-1.06-.39,1.23,1.23,0,0,1-.42-.94,1.19,1.19,0,0,1,.42-.92,1.57,1.57,0,0,1,1.06-.38,1.6,1.6,0,0,1,1.05.37,1.15,1.15,0,0,1,.43.91,1.26,1.26,0,0,1-.42,1A1.47,1.47,0,0,1,469.43,596.8Zm-1,16.67V599.82h2v13.65Z" transform="translate(0 14.68)" />
          <path class="cls-7" d="M481.21,613.6a8.91,8.91,0,0,1-4.1-.9,6.83,6.83,0,0,1-2.76-2.47,6.54,6.54,0,0,1-1-3.6,6.68,6.68,0,0,1,3.57-6,7.75,7.75,0,0,1,3.75-.89,7.85,7.85,0,0,1,3.74.87A6.52,6.52,0,0,1,487,603a7,7,0,0,1,.93,3.63,2.44,2.44,0,0,1,0,.27c0,.1,0,.2,0,.3h-13v-1.38h11.92l-.79.55a4.94,4.94,0,0,0-2.59-4.45,6.18,6.18,0,0,0-5.52,0,4.72,4.72,0,0,0-1.91,1.82,5.19,5.19,0,0,0-.68,2.68v.29a5,5,0,0,0,.75,2.74,5.15,5.15,0,0,0,2.11,1.85,6.93,6.93,0,0,0,3.08.66,7.3,7.3,0,0,0,2.55-.44,5.34,5.34,0,0,0,2-1.36l1.14,1.2a6.42,6.42,0,0,1-2.5,1.66A8.9,8.9,0,0,1,481.21,613.6Z" transform="translate(0 14.68)" />
          <path class="cls-7" d="M498.48,599.69a7.61,7.61,0,0,1,3.2.63,4.86,4.86,0,0,1,2.17,1.94,6.3,6.3,0,0,1,.78,3.28v7.93h-2v-7.75a4.23,4.23,0,0,0-1.18-3.26,4.66,4.66,0,0,0-3.32-1.11,6.28,6.28,0,0,0-2.77.58,4.22,4.22,0,0,0-1.82,1.7,5.16,5.16,0,0,0-.64,2.66v7.18h-2V599.82h1.94v3.74l-.31-.7a5.16,5.16,0,0,1,2.27-2.33A7.81,7.81,0,0,1,498.48,599.69Z" transform="translate(0 14.68)" />
          <path class="cls-7" d="M506.57,601.35v-1.53h9.24v1.53Zm7.05,12.25a4.65,4.65,0,0,1-3.24-1,3.8,3.8,0,0,1-1.14-2.94V596.8h2v12.71a2.44,2.44,0,0,0,.67,1.85,2.67,2.67,0,0,0,1.92.65,3.45,3.45,0,0,0,2.22-.7l.71,1.32a3.8,3.8,0,0,1-1.43.73A6.28,6.28,0,0,1,513.62,613.6Z" transform="translate(0 14.68)" />
          <path class="cls-7" d="M529.53,613.6a12.49,12.49,0,0,1-3.5-.48,8.13,8.13,0,0,1-2.59-1.21l.91-1.46a8.8,8.8,0,0,0,2.34,1.08,9.82,9.82,0,0,0,3,.45,5.84,5.84,0,0,0,3.08-.61,1.87,1.87,0,0,0,.94-1.62,1.47,1.47,0,0,0-.53-1.19,3.54,3.54,0,0,0-1.38-.64,16.53,16.53,0,0,0-1.91-.38c-.7-.11-1.4-.23-2.09-.37a7.76,7.76,0,0,1-1.89-.61,3.59,3.59,0,0,1-1.38-1.1,3.05,3.05,0,0,1-.53-1.87,3.18,3.18,0,0,1,.69-2,4.53,4.53,0,0,1,2-1.39,9,9,0,0,1,3.23-.5,12.06,12.06,0,0,1,2.91.35,8.46,8.46,0,0,1,2.39.92l-.89,1.48a7.13,7.13,0,0,0-2.13-.89,9.36,9.36,0,0,0-2.28-.28,5.39,5.39,0,0,0-3,.64,1.89,1.89,0,0,0-1,1.62,1.54,1.54,0,0,0,.53,1.23,3.74,3.74,0,0,0,1.4.68,15,15,0,0,0,1.9.41c.7.1,1.39.23,2.08.38a9.7,9.7,0,0,1,1.91.59,3.4,3.4,0,0,1,1.39,1.07,2.91,2.91,0,0,1,.53,1.81,3.09,3.09,0,0,1-.73,2.06,4.71,4.71,0,0,1-2.1,1.36A10.27,10.27,0,0,1,529.53,613.6Z" transform="translate(0 14.68)" />
          <path class="cls-7" d="M544.3,613.6a8.25,8.25,0,0,1-3.9-.9,7,7,0,0,1-2.7-2.48,7,7,0,0,1,0-7.21,6.92,6.92,0,0,1,2.7-2.44,9.15,9.15,0,0,1,7.85,0A7,7,0,0,1,551,603a6.6,6.6,0,0,1,1,3.6,6.7,6.7,0,0,1-1,3.6,6.85,6.85,0,0,1-2.72,2.47A8.43,8.43,0,0,1,544.3,613.6Zm0-1.64a6.09,6.09,0,0,0,2.88-.66,5.11,5.11,0,0,0,2-1.88,5.8,5.8,0,0,0,0-5.6,5.06,5.06,0,0,0-2-1.86,6,6,0,0,0-2.85-.66,6,6,0,0,0-2.84.66,5.11,5.11,0,0,0-2,1.86,5.33,5.33,0,0,0,2,7.48A5.94,5.94,0,0,0,544.3,612Z" transform="translate(0 14.68)" />
          <path class="cls-7" d="M554.86,613.47v-19.3h2v19.3Z" transform="translate(0 14.68)" />
          <path class="cls-7" d="M567.5,613.6a8,8,0,0,1-3.33-.65,4.94,4.94,0,0,1-2.21-2,6.23,6.23,0,0,1-.78-3.25v-7.93h2v7.72a4.3,4.3,0,0,0,1.18,3.29,4.7,4.7,0,0,0,3.32,1.1,6,6,0,0,0,2.72-.58,4.09,4.09,0,0,0,1.76-1.71,5.43,5.43,0,0,0,.61-2.67v-7.15h2v13.65h-1.93v-3.75l.31.68a5.2,5.2,0,0,1-2.2,2.35A7,7,0,0,1,567.5,613.6Z" transform="translate(0 14.68)" />
          <path class="cls-7" d="M576.92,601.35v-1.53h9.25v1.53ZM584,613.6a4.66,4.66,0,0,1-3.25-1,3.8,3.8,0,0,1-1.14-2.94V596.8h2v12.71a2.48,2.48,0,0,0,.66,1.85,2.67,2.67,0,0,0,1.92.65,3.46,3.46,0,0,0,2.23-.7l.71,1.32a3.77,3.77,0,0,1-1.44.73A6.21,6.21,0,0,1,584,613.6Z" transform="translate(0 14.68)" />
          <path class="cls-7" d="M590.64,596.8a1.53,1.53,0,0,1-1.06-.39,1.23,1.23,0,0,1-.42-.94,1.19,1.19,0,0,1,.42-.92,1.57,1.57,0,0,1,1.06-.38,1.58,1.58,0,0,1,1.05.37,1.15,1.15,0,0,1,.43.91,1.26,1.26,0,0,1-.42,1A1.47,1.47,0,0,1,590.64,596.8Zm-1,16.67V599.82h2v13.65Z" transform="translate(0 14.68)" />
          <path class="cls-7" d="M602.16,613.6a8.25,8.25,0,0,1-3.9-.9,7,7,0,0,1-2.7-2.48,7,7,0,0,1,0-7.21,6.92,6.92,0,0,1,2.7-2.44,9.15,9.15,0,0,1,7.85,0,7,7,0,0,1,2.7,2.45,6.6,6.6,0,0,1,1,3.6,6.7,6.7,0,0,1-1,3.6,6.85,6.85,0,0,1-2.72,2.47A8.43,8.43,0,0,1,602.16,613.6Zm0-1.64a6.11,6.11,0,0,0,2.88-.66,5.11,5.11,0,0,0,2-1.88,5.8,5.8,0,0,0,0-5.6,5.06,5.06,0,0,0-2-1.86,6,6,0,0,0-2.85-.66,6,6,0,0,0-2.84.66,5.11,5.11,0,0,0-2,1.86,5.33,5.33,0,0,0,2,7.48A5.94,5.94,0,0,0,602.16,612Z" transform="translate(0 14.68)" />
          <path class="cls-7" d="M620.35,599.69a7.65,7.65,0,0,1,3.2.63,4.84,4.84,0,0,1,2.16,1.94,6.2,6.2,0,0,1,.79,3.28v7.93h-2v-7.75a4.26,4.26,0,0,0-1.18-3.26,4.67,4.67,0,0,0-3.32-1.11,6.36,6.36,0,0,0-2.78.58,4.33,4.33,0,0,0-1.82,1.7,5.26,5.26,0,0,0-.64,2.66v7.18h-2V599.82h1.94v3.74l-.32-.7a5.23,5.23,0,0,1,2.28-2.33A7.78,7.78,0,0,1,620.35,599.69Z" transform="translate(0 14.68)" />
          <path class="cls-7" d="M634.78,613.6a12.49,12.49,0,0,1-3.5-.48,8,8,0,0,1-2.59-1.21l.91-1.46a8.73,8.73,0,0,0,2.33,1.08,9.89,9.89,0,0,0,3,.45,5.8,5.8,0,0,0,3.07-.61,1.84,1.84,0,0,0,.94-1.62,1.46,1.46,0,0,0-.52-1.19,3.54,3.54,0,0,0-1.38-.64,17,17,0,0,0-1.91-.38c-.7-.11-1.4-.23-2.09-.37a7.76,7.76,0,0,1-1.89-.61,3.59,3.59,0,0,1-1.38-1.1,3,3,0,0,1-.53-1.87,3.23,3.23,0,0,1,.68-2,4.63,4.63,0,0,1,2-1.39,9,9,0,0,1,3.23-.5,12,12,0,0,1,2.9.35,8.23,8.23,0,0,1,2.39.92l-.88,1.48a7.24,7.24,0,0,0-2.13-.89,9.36,9.36,0,0,0-2.28-.28,5.37,5.37,0,0,0-3,.64,1.89,1.89,0,0,0-1,1.62,1.54,1.54,0,0,0,.53,1.23,3.69,3.69,0,0,0,1.39.68,15.56,15.56,0,0,0,1.91.41c.69.1,1.38.23,2.08.38a9.6,9.6,0,0,1,1.9.59,3.43,3.43,0,0,1,1.4,1.07,2.9,2.9,0,0,1,.52,1.81,3.14,3.14,0,0,1-.72,2.06,4.75,4.75,0,0,1-2.11,1.36A10.21,10.21,0,0,1,634.78,613.6Z" transform="translate(0 14.68)" />
          <path class="cls-7" d="M643.66,613.6a1.5,1.5,0,0,1-1.07-.42,1.36,1.36,0,0,1-.44-1,1.31,1.31,0,0,1,.44-1,1.66,1.66,0,0,1,2.14,0,1.31,1.31,0,0,1,.44,1,1.36,1.36,0,0,1-.44,1A1.5,1.5,0,0,1,643.66,613.6Z" transform="translate(0 14.68)" />
          <path class="cls-6" d="M50.29,183.72v-23.8h10A14.52,14.52,0,0,1,67,161.41a11.1,11.1,0,0,1,4.53,4.18,12.84,12.84,0,0,1,0,12.45A11.1,11.1,0,0,1,67,182.22a14.39,14.39,0,0,1-6.71,1.5Zm3.4-3h6.43a11,11,0,0,0,5.11-1.12,8.15,8.15,0,0,0,3.35-3.15,9.82,9.82,0,0,0,0-9.37A8.15,8.15,0,0,0,65.23,164a10.91,10.91,0,0,0-5.11-1.13H53.69Z" transform="translate(0 14.68)" />
          <path class="cls-6" d="M85.92,183.92a10.5,10.5,0,0,1-5.08-1.19,8.54,8.54,0,0,1-3.4-3.26,9.26,9.26,0,0,1-1.21-4.76A9.51,9.51,0,0,1,77.4,170a8.48,8.48,0,0,1,3.23-3.25,9.26,9.26,0,0,1,4.65-1.17,9.1,9.1,0,0,1,4.62,1.15A8.19,8.19,0,0,1,93,169.93a10,10,0,0,1,1.14,4.88c0,.13,0,.29,0,.47s0,.36,0,.51H78.78v-2.34H92.42l-1.33.81a6.18,6.18,0,0,0-.71-3.09,5.45,5.45,0,0,0-2.06-2.12,6.37,6.37,0,0,0-6.07,0,5.33,5.33,0,0,0-2.07,2.14,6.42,6.42,0,0,0-.75,3.14v.55a6.14,6.14,0,0,0,.83,3.21,5.73,5.73,0,0,0,2.33,2.19,7.32,7.32,0,0,0,3.43.78,7.54,7.54,0,0,0,2.91-.54,6.46,6.46,0,0,0,2.3-1.63L93,181a7.91,7.91,0,0,1-3,2.17A10.53,10.53,0,0,1,85.92,183.92Z" transform="translate(0 14.68)" />
          <path class="cls-6" d="M103.87,183.92a14.53,14.53,0,0,1-4.26-.61,10,10,0,0,1-3.18-1.5l1.36-2.58a12.07,12.07,0,0,0,6.32,1.87,6.29,6.29,0,0,0,3.28-.65,2,2,0,0,0,1-1.8,1.59,1.59,0,0,0-.62-1.33,4.21,4.21,0,0,0-1.61-.71c-.67-.16-1.41-.3-2.23-.43s-1.63-.28-2.45-.47a9.76,9.76,0,0,1-2.24-.82,4.18,4.18,0,0,1-1.63-1.46,4.47,4.47,0,0,1-.61-2.5,4.6,4.6,0,0,1,.91-2.85,5.83,5.83,0,0,1,2.6-1.89,11,11,0,0,1,4-.66,16,16,0,0,1,3.59.42,8.85,8.85,0,0,1,3,1.21l-1.39,2.58a7.77,7.77,0,0,0-2.55-1.12,12.05,12.05,0,0,0-2.65-.31,5.91,5.91,0,0,0-3.2.7,2.09,2.09,0,0,0-1.05,1.79,1.68,1.68,0,0,0,.62,1.41,4.54,4.54,0,0,0,1.64.76,19.19,19.19,0,0,0,2.22.46c.82.13,1.64.29,2.45.48a9.78,9.78,0,0,1,2.23.8,4,4,0,0,1,2.26,3.87,4.39,4.39,0,0,1-1,2.82,6.2,6.2,0,0,1-2.69,1.86A11.66,11.66,0,0,1,103.87,183.92Z" transform="translate(0 14.68)" />
          <path class="cls-6" d="M117.37,162.23a2.21,2.21,0,0,1-1.58-.61,2,2,0,0,1-.63-1.5,2.05,2.05,0,0,1,.63-1.53,2.17,2.17,0,0,1,1.58-.61,2.22,2.22,0,0,1,1.58.59,2,2,0,0,1,.63,1.48,2.12,2.12,0,0,1-2.21,2.18Zm-1.63,21.49v-18H119v18Z" transform="translate(0 14.68)" />
          <path class="cls-6" d="M132.71,183a9.69,9.69,0,0,1-4.68-1.11,8.37,8.37,0,0,1-3.26-3.07,8.54,8.54,0,0,1-1.21-4.56,8.45,8.45,0,0,1,1.21-4.57,8.32,8.32,0,0,1,3.26-3,9.91,9.91,0,0,1,4.68-1.08,9.46,9.46,0,0,1,4.21.93,7.17,7.17,0,0,1,3,2.87,9.58,9.58,0,0,1,1.14,4.9,9.45,9.45,0,0,1-1.14,4.86,7.39,7.39,0,0,1-3,2.91A9.22,9.22,0,0,1,132.71,183Zm.4,7.55a16.86,16.86,0,0,1-4.81-.7,10.09,10.09,0,0,1-3.79-2l1.57-2.52a9.12,9.12,0,0,0,3.09,1.72,11.71,11.71,0,0,0,3.84.63,6.38,6.38,0,0,0,4.69-1.5,6.16,6.16,0,0,0,1.5-4.55V177.8l.34-3.57-.17-3.6V165.7h3.09v15.57c0,3.17-.79,5.51-2.38,7S136.17,190.52,133.11,190.52Zm0-10.41a6.66,6.66,0,0,0,3.2-.75,5.59,5.59,0,0,0,2.19-2.07,6.25,6.25,0,0,0,0-6.12,5.57,5.57,0,0,0-2.19-2.06,6.89,6.89,0,0,0-3.2-.73,7,7,0,0,0-3.21.73,5.49,5.49,0,0,0-2.21,2.06,6.25,6.25,0,0,0,0,6.12,5.52,5.52,0,0,0,2.21,2.07A6.73,6.73,0,0,0,133.08,180.11Z" transform="translate(0 14.68)" />
          <path class="cls-6" d="M158.31,165.53a8.47,8.47,0,0,1,3.89.85,6,6,0,0,1,2.63,2.58,9,9,0,0,1,1,4.39v10.37h-3.27v-10a5.48,5.48,0,0,0-1.27-3.94,4.73,4.73,0,0,0-3.59-1.33,6.48,6.48,0,0,0-3,.68,4.58,4.58,0,0,0-2,2,6.94,6.94,0,0,0-.7,3.29v9.29h-3.27v-18h3.13v4.86l-.51-1.29a6.3,6.3,0,0,1,2.72-2.76A8.91,8.91,0,0,1,158.31,165.53Z" transform="translate(0 14.68)" />
          <path class="cls-6" d="M179.86,183.92a10.53,10.53,0,0,1-5.08-1.19,8.54,8.54,0,0,1-3.4-3.26,10.08,10.08,0,0,1,0-9.52,8.34,8.34,0,0,1,3.23-3.25,9.82,9.82,0,0,1,9.26,0,8.21,8.21,0,0,1,3.15,3.25,10.13,10.13,0,0,1,1.13,4.88c0,.13,0,.29,0,.47s0,.36-.05.51H172.72v-2.34h13.64l-1.33.81a6.08,6.08,0,0,0-.71-3.09,5.45,5.45,0,0,0-2.06-2.12,6.37,6.37,0,0,0-6.07,0,5.4,5.4,0,0,0-2.07,2.14,6.42,6.42,0,0,0-.75,3.14v.55a6.24,6.24,0,0,0,.83,3.21,5.73,5.73,0,0,0,2.33,2.19,7.32,7.32,0,0,0,3.43.78,7.54,7.54,0,0,0,2.91-.54,6.46,6.46,0,0,0,2.3-1.63L187,181a8,8,0,0,1-3,2.17A10.61,10.61,0,0,1,179.86,183.92Z" transform="translate(0 14.68)" />
          <path class="cls-6" d="M192.65,183.72v-18h3.12v4.89l-.3-1.22a5.57,5.57,0,0,1,2.51-2.86,8.81,8.81,0,0,1,4.36-1v3.16a2.87,2.87,0,0,0-.39,0h-.36a5.55,5.55,0,0,0-4.15,1.57,6.2,6.2,0,0,0-1.53,4.52v9Z" transform="translate(0 14.68)" />
          <path class="cls-6" d="M50.29,243.72v-23.8h10A14.52,14.52,0,0,1,67,221.41a11.1,11.1,0,0,1,4.53,4.18,12.84,12.84,0,0,1,0,12.45A11.1,11.1,0,0,1,67,242.22a14.39,14.39,0,0,1-6.71,1.5Zm3.4-3h6.43a11,11,0,0,0,5.11-1.12,8.15,8.15,0,0,0,3.35-3.15,9.82,9.82,0,0,0,0-9.37A8.15,8.15,0,0,0,65.23,224a10.91,10.91,0,0,0-5.11-1.13H53.69Z" transform="translate(0 14.68)" />
          <path class="cls-6" d="M85.92,243.92a10.5,10.5,0,0,1-5.08-1.19,8.54,8.54,0,0,1-3.4-3.26,9.26,9.26,0,0,1-1.21-4.76A9.51,9.51,0,0,1,77.4,230a8.48,8.48,0,0,1,3.23-3.25,9.26,9.26,0,0,1,4.65-1.17,9.1,9.1,0,0,1,4.62,1.15A8.19,8.19,0,0,1,93,229.93a10,10,0,0,1,1.14,4.88c0,.13,0,.29,0,.47s0,.36,0,.51H78.78v-2.34H92.42l-1.33.81a6.18,6.18,0,0,0-.71-3.09,5.45,5.45,0,0,0-2.06-2.12,6.37,6.37,0,0,0-6.07,0,5.33,5.33,0,0,0-2.07,2.14,6.42,6.42,0,0,0-.75,3.14v.55a6.14,6.14,0,0,0,.83,3.21,5.73,5.73,0,0,0,2.33,2.19,7.32,7.32,0,0,0,3.43.78,7.54,7.54,0,0,0,2.91-.54,6.46,6.46,0,0,0,2.3-1.63L93,241a7.91,7.91,0,0,1-3,2.17A10.53,10.53,0,0,1,85.92,243.92Z" transform="translate(0 14.68)" />
          <path class="cls-6" d="M103.09,243.72l-7.89-18h3.4l7,16.32H104l7.14-16.32h3.19l-7.89,18Z" transform="translate(0 14.68)" />
          <path class="cls-6" d="M124.89,243.92a10.54,10.54,0,0,1-5.09-1.19,8.61,8.61,0,0,1-3.4-3.26,9.35,9.35,0,0,1-1.2-4.76,9.51,9.51,0,0,1,1.17-4.76,8.41,8.41,0,0,1,3.23-3.25,9.22,9.22,0,0,1,4.64-1.17,9.08,9.08,0,0,1,4.62,1.15,8.21,8.21,0,0,1,3.15,3.25,10,10,0,0,1,1.14,4.88c0,.13,0,.29,0,.47s0,.36,0,.51H117.75v-2.34h13.63l-1.33.81a6,6,0,0,0-.71-3.09,5.45,5.45,0,0,0-2.06-2.12,5.89,5.89,0,0,0-3-.77,6,6,0,0,0-3,.77,5.4,5.4,0,0,0-2.07,2.14,6.42,6.42,0,0,0-.75,3.14v.55a6.24,6.24,0,0,0,.83,3.21,5.79,5.79,0,0,0,2.33,2.19,7.36,7.36,0,0,0,3.44.78,7.53,7.53,0,0,0,2.9-.54,6.37,6.37,0,0,0,2.3-1.63L132,241a7.88,7.88,0,0,1-3,2.17A10.56,10.56,0,0,1,124.89,243.92Z" transform="translate(0 14.68)" />
          <path class="cls-6" d="M137.67,243.72V218.49h3.26v25.23Z" transform="translate(0 14.68)" />
          <path class="cls-6" d="M154.87,243.92a9.72,9.72,0,0,1-4.81-1.19,8.86,8.86,0,0,1-3.35-3.28,9.84,9.84,0,0,1,0-9.49,8.88,8.88,0,0,1,3.34-3.24,9.55,9.55,0,0,1,4.82-1.19,9.79,9.79,0,0,1,4.81,1.17A8.55,8.55,0,0,1,163,230a10,10,0,0,1,0,9.52,8.72,8.72,0,0,1-3.34,3.26A9.69,9.69,0,0,1,154.87,243.92Zm0-2.86a6.16,6.16,0,0,0,3.11-.78,5.5,5.5,0,0,0,2.16-2.22,7,7,0,0,0,.79-3.35,6.8,6.8,0,0,0-.79-3.35,5.64,5.64,0,0,0-2.16-2.2,6.55,6.55,0,0,0-6.2,0,6,6,0,0,0-2.18,2.2,6.6,6.6,0,0,0-.81,3.35,6.75,6.75,0,0,0,.81,3.35,5.81,5.81,0,0,0,2.18,2.22A6.12,6.12,0,0,0,154.87,241.06Z" transform="translate(0 14.68)" />
          <path class="cls-6" d="M168.74,250.31V225.7h3.13v4.86l-.2,4.18.34,4.18v11.39Zm9.56-6.39a8.27,8.27,0,0,1-4.1-1,7.56,7.56,0,0,1-3-3.07,10.69,10.69,0,0,1-1.1-5.1,10.94,10.94,0,0,1,1.07-5.1,7.21,7.21,0,0,1,2.92-3.06,8.53,8.53,0,0,1,4.17-1,9.34,9.34,0,0,1,4.69,1.15,8.51,8.51,0,0,1,3.23,3.21,10.36,10.36,0,0,1,0,9.64,8.42,8.42,0,0,1-3.23,3.23A9.35,9.35,0,0,1,178.3,243.92Zm-.27-2.86a6.22,6.22,0,0,0,3.11-.78,5.59,5.59,0,0,0,2.17-2.22,6.75,6.75,0,0,0,.8-3.35,6.59,6.59,0,0,0-.8-3.35,5.73,5.73,0,0,0-2.17-2.2,6.22,6.22,0,0,0-3.11-.78,6.13,6.13,0,0,0-3.08.78,5.83,5.83,0,0,0-2.18,2.2,6.7,6.7,0,0,0-.8,3.35,6.86,6.86,0,0,0,.8,3.35,5.68,5.68,0,0,0,2.18,2.22A6.13,6.13,0,0,0,178,241.06Z" transform="translate(0 14.68)" />
          <path class="cls-6" d="M200,243.92a10.57,10.57,0,0,1-5.09-1.19,8.61,8.61,0,0,1-3.4-3.26,9.35,9.35,0,0,1-1.2-4.76,9.51,9.51,0,0,1,1.17-4.76,8.41,8.41,0,0,1,3.23-3.25,9.22,9.22,0,0,1,4.64-1.17,9.05,9.05,0,0,1,4.62,1.15,8.21,8.21,0,0,1,3.15,3.25,10,10,0,0,1,1.14,4.88c0,.13,0,.29,0,.47s0,.36,0,.51H192.82v-2.34h13.63l-1.33.81a6,6,0,0,0-.71-3.09,5.39,5.39,0,0,0-2.06-2.12,5.89,5.89,0,0,0-3-.77,6,6,0,0,0-3,.77,5.4,5.4,0,0,0-2.07,2.14,6.42,6.42,0,0,0-.75,3.14v.55a6.15,6.15,0,0,0,.84,3.21,5.7,5.7,0,0,0,2.32,2.19,7.36,7.36,0,0,0,3.44.78,7.62,7.62,0,0,0,2.91-.54,6.42,6.42,0,0,0,2.29-1.63l1.8,2.11a7.88,7.88,0,0,1-3,2.17A10.56,10.56,0,0,1,200,243.92Z" transform="translate(0 14.68)" />
          <path class="cls-6" d="M212.74,243.72v-18h3.13v4.89l-.31-1.22a5.55,5.55,0,0,1,2.52-2.86,8.8,8.8,0,0,1,4.35-1v3.16a2.87,2.87,0,0,0-.39,0h-.36a5.58,5.58,0,0,0-4.15,1.57,6.2,6.2,0,0,0-1.53,4.52v9Z" transform="translate(0 14.68)" />
          <path class="cls-6" d="M53.69,300.76H67.56v3H50.29v-23.8h16.8v2.95H53.69Zm-.31-10.58H65.62v2.89H53.38Z" transform="translate(0 14.68)" />
          <path class="cls-6" d="M82.22,285.53a8.47,8.47,0,0,1,3.89.85A6,6,0,0,1,88.74,289a9,9,0,0,1,1,4.39v10.37H86.43v-10a5.48,5.48,0,0,0-1.27-3.94,4.73,4.73,0,0,0-3.59-1.33,6.48,6.48,0,0,0-3,.68,4.58,4.58,0,0,0-2,2,6.94,6.94,0,0,0-.7,3.29v9.29H72.59v-18h3.13v4.86l-.51-1.29a6.3,6.3,0,0,1,2.72-2.76A8.91,8.91,0,0,1,82.22,285.53Z" transform="translate(0 14.68)" />
          <path class="cls-6" d="M103.23,303a9.69,9.69,0,0,1-4.68-1.11,8.37,8.37,0,0,1-3.26-3.07,8.54,8.54,0,0,1-1.21-4.56,8.45,8.45,0,0,1,1.21-4.57,8.32,8.32,0,0,1,3.26-3.05,9.91,9.91,0,0,1,4.68-1.08,9.46,9.46,0,0,1,4.21.93,7.2,7.2,0,0,1,3,2.87,9.58,9.58,0,0,1,1.14,4.9,9.45,9.45,0,0,1-1.14,4.86,7.42,7.42,0,0,1-3,2.91A9.22,9.22,0,0,1,103.23,303Zm.41,7.55a16.93,16.93,0,0,1-4.82-.7,10.09,10.09,0,0,1-3.79-2l1.57-2.52A9.22,9.22,0,0,0,99.69,307a11.8,11.8,0,0,0,3.84.63,6.42,6.42,0,0,0,4.7-1.5,6.2,6.2,0,0,0,1.49-4.55V297.8l.34-3.57-.17-3.6V285.7H113v15.57c0,3.17-.8,5.51-2.38,7S106.7,310.52,103.64,310.52Zm0-10.41a6.66,6.66,0,0,0,3.2-.75,5.53,5.53,0,0,0,2.19-2.07,6.25,6.25,0,0,0,0-6.12,5.5,5.5,0,0,0-2.19-2.06,6.89,6.89,0,0,0-3.2-.73,7,7,0,0,0-3.21.73,5.49,5.49,0,0,0-2.21,2.06,6.25,6.25,0,0,0,0,6.12,5.52,5.52,0,0,0,2.21,2.07A6.73,6.73,0,0,0,103.6,300.11Z" transform="translate(0 14.68)" />
          <path class="cls-6" d="M120.84,282.23a2.2,2.2,0,0,1-1.58-.61,2,2,0,0,1-.63-1.5,2.05,2.05,0,0,1,.63-1.53,2.16,2.16,0,0,1,1.58-.61,2.24,2.24,0,0,1,1.58.59,2,2,0,0,1,.63,1.48,2.12,2.12,0,0,1-2.21,2.18Zm-1.63,21.49v-18h3.26v18Z" transform="translate(0 14.68)" />
          <path class="cls-6" d="M138.32,285.53a8.47,8.47,0,0,1,3.89.85,6,6,0,0,1,2.63,2.58,9,9,0,0,1,1,4.39v10.37h-3.27v-10a5.48,5.48,0,0,0-1.27-3.94,4.73,4.73,0,0,0-3.59-1.33,6.45,6.45,0,0,0-3,.68,4.65,4.65,0,0,0-2,2,7.06,7.06,0,0,0-.69,3.29v9.29h-3.27v-18h3.13v4.86l-.51-1.29a6.3,6.3,0,0,1,2.72-2.76A8.91,8.91,0,0,1,138.32,285.53Z" transform="translate(0 14.68)" />
          <path class="cls-6" d="M159.87,303.92a10.5,10.5,0,0,1-5.08-1.19,8.54,8.54,0,0,1-3.4-3.26,9.26,9.26,0,0,1-1.21-4.76,9.51,9.51,0,0,1,1.17-4.76,8.48,8.48,0,0,1,3.23-3.25,9.26,9.26,0,0,1,4.65-1.17,9.1,9.1,0,0,1,4.62,1.15,8.19,8.19,0,0,1,3.14,3.25,10,10,0,0,1,1.14,4.88c0,.13,0,.29,0,.47s0,.36-.05.51H152.73v-2.34h13.64l-1.33.81a6.18,6.18,0,0,0-.71-3.09,5.45,5.45,0,0,0-2.06-2.12,6.37,6.37,0,0,0-6.07,0,5.33,5.33,0,0,0-2.07,2.14,6.42,6.42,0,0,0-.75,3.14v.55a6.14,6.14,0,0,0,.83,3.21,5.73,5.73,0,0,0,2.33,2.19,7.32,7.32,0,0,0,3.43.78,7.54,7.54,0,0,0,2.91-.54,6.46,6.46,0,0,0,2.3-1.63L167,301a7.91,7.91,0,0,1-3,2.17A10.53,10.53,0,0,1,159.87,303.92Z" transform="translate(0 14.68)" />
          <path class="cls-6" d="M180.68,303.92a10.5,10.5,0,0,1-5.08-1.19,8.48,8.48,0,0,1-3.4-3.26,9.26,9.26,0,0,1-1.21-4.76,9.51,9.51,0,0,1,1.17-4.76,8.41,8.41,0,0,1,3.23-3.25,9.22,9.22,0,0,1,4.64-1.17,9.12,9.12,0,0,1,4.63,1.15,8.25,8.25,0,0,1,3.14,3.25,10,10,0,0,1,1.14,4.88,4.11,4.11,0,0,1,0,.47,3.67,3.67,0,0,1,0,.51H173.54v-2.34h13.63l-1.32.81a6.08,6.08,0,0,0-.72-3.09,5.43,5.43,0,0,0-2-2.12,6.37,6.37,0,0,0-6.07,0,5.36,5.36,0,0,0-2.08,2.14,6.42,6.42,0,0,0-.74,3.14v.55a6.14,6.14,0,0,0,.83,3.21,5.66,5.66,0,0,0,2.33,2.19,7.29,7.29,0,0,0,3.43.78,7.54,7.54,0,0,0,2.91-.54,6.34,6.34,0,0,0,2.29-1.63l1.81,2.11a8,8,0,0,1-3,2.17A10.53,10.53,0,0,1,180.68,303.92Z" transform="translate(0 14.68)" />
          <path class="cls-6" d="M193.46,303.72v-18h3.13v4.89l-.3-1.22a5.49,5.49,0,0,1,2.51-2.86,8.8,8.8,0,0,1,4.35-1v3.16a2.58,2.58,0,0,0-.39,0h-.35a5.55,5.55,0,0,0-4.15,1.57,6.2,6.2,0,0,0-1.53,4.52v9Z" transform="translate(0 14.68)" />
          <g id="Radio">
            <rect class="cls-3" x="1176.7" y="535.13" width="89.47" height="89.37" rx="29.5" />
            <path class="cls-8" d="M1237.66,565.15a35.64,35.64,0,0,0,2.95-4c2.92-4.61,3.53-8.54,1.74-11-2-2.8-6.67-3.18-12.44-1.49-2-5.67-5-9.24-8.48-9.24S1215,543,1213,548.65c-.48-.15-1-.28-1.43-.4-5.3-1.29-9.21-.62-11,1.89-2.38,3.32-.36,9.06,4.69,15-5,5.94-7.07,11.68-4.69,15,1.21,1.67,3.35,2.53,6.21,2.53a21,21,0,0,0,4.8-.64l1.42-.39c2,5.67,5,9.23,8.48,9.23s6.48-3.56,8.47-9.23a22.73,22.73,0,0,0,6.21,1c2.82,0,5-.81,6.24-2.51,1.8-2.5,1.18-6.43-1.75-11A31.47,31.47,0,0,0,1237.66,565.15Zm-1.56-15.68c2.26,0,3.91.6,4.74,1.75,1.31,1.82.66,5.09-1.8,8.95a33.2,33.2,0,0,1-2.63,3.57,52.15,52.15,0,0,0-4.26-4.1,49.08,49.08,0,0,0-1.69-9.25A21.09,21.09,0,0,1,1236.1,549.47Zm-9.36,23.06a54.57,54.57,0,0,1-5.32,3.4,53.77,53.77,0,0,1-5.29-3.4c-1.3-.93-2.5-1.86-3.62-2.8-.12-1.47-.18-3-.18-4.58s.06-3.11.18-4.58c1.13-1,2.32-1.89,3.62-2.81a57.08,57.08,0,0,1,5.3-3.4,57.13,57.13,0,0,1,5.31,3.4c1.26.9,2.47,1.85,3.62,2.82.12,1.47.17,3,.17,4.58s0,3.11-.17,4.58C1229.23,570.68,1228,571.63,1226.74,572.53Zm3.37-.2a45.94,45.94,0,0,1-1.39,7,45,45,0,0,1-5.37-2.34c1.5-.89,3-1.88,4.48-2.94C1228.62,573.49,1229.37,572.91,1230.11,572.33Zm-10.6,4.65a43.86,43.86,0,0,1-5.36,2.34,44.8,44.8,0,0,1-1.4-7c.75.58,1.5,1.15,2.29,1.72C1216.53,575.12,1218,576.09,1219.51,577Zm-9-9c-1-1-2-1.92-2.87-2.87.87-.94,1.82-1.9,2.87-2.86,0,.93-.08,1.89-.08,2.86S1210.5,567.07,1210.55,568Zm2.2-10a44.33,44.33,0,0,1,1.4-7,43.46,43.46,0,0,1,5.36,2.34c-1.48.89-3,1.86-4.47,2.92C1214.25,556.8,1213.5,557.37,1212.75,558Zm10.59-4.65a40.5,40.5,0,0,1,5.36-2.34,44.7,44.7,0,0,1,1.4,7c-.74-.58-1.5-1.16-2.28-1.72C1226.35,555.17,1224.85,554.2,1223.34,553.3Zm9,9q1.52,1.41,2.85,2.85c-.88,1-1.84,1.9-2.85,2.85,0-.93.06-1.89.06-2.85S1232.38,563.23,1232.34,562.3Zm-10.91-21c2.43,0,5,2.92,6.72,7.94a47.23,47.23,0,0,0-6.72,3,46.7,46.7,0,0,0-6.71-3C1216.49,544.18,1219,541.26,1221.43,541.26Zm-19.39,10c.83-1.16,2.47-1.76,4.7-1.76a18.85,18.85,0,0,1,4.36.58c.42.1.86.22,1.29.35a48.11,48.11,0,0,0-1.68,9.23,54.46,54.46,0,0,0-4.28,4.1C1201.94,558.36,1200.37,553.55,1202,551.22Zm9.06,29c-4.45,1.08-7.77.66-9.06-1.16-1.67-2.33-.1-7.15,4.42-12.53a54.27,54.27,0,0,0,4.27,4.1,48.86,48.86,0,0,0,1.69,9.23C1212,580,1211.53,580.12,1211.1,580.22Zm10.33,8.8c-2.42,0-4.94-2.93-6.71-7.94a48.77,48.77,0,0,0,6.71-3,46,46,0,0,0,6.72,3C1226.38,586.09,1223.86,589,1221.43,589Zm19.41-10c-1.41,2-5.26,2.31-10.36.83a48.47,48.47,0,0,0,1.68-9.25,53.82,53.82,0,0,0,4.26-4.1,31.82,31.82,0,0,1,2.63,3.56C1241.5,574,1242.15,577.24,1240.84,579.06Z" transform="translate(0 14.68)" />
            <path class="cls-9" d="M1241.5,547.85a3.13,3.13,0,1,0,3.12,3.12A3.13,3.13,0,0,0,1241.5,547.85Z" transform="translate(0 14.68)" />
            <path class="cls-9" d="M1221.43,586.39a3.13,3.13,0,1,0,3.13,3.12A3.12,3.12,0,0,0,1221.43,586.39Z" transform="translate(0 14.68)" />
            <circle class="cls-10" cx="1221.45" cy="579.83" r="6.08" />
            <path class="cls-9" d="M1201.2,547.83a3.13,3.13,0,1,0,3.12,3.13A3.13,3.13,0,0,0,1201.2,547.83Z" transform="translate(0 14.68)" />
          </g>
        </g>
      </g>
    </g>
  </g>
</svg>