<svg xmlns="http://www.w3.org/2000/svg" xmlns:xlink="http://www.w3.org/1999/xlink" viewBox="0 0 1298.8 647.54"><defs><style>.cls-1{fill:url(#radial-gradient);}.cls-2,.cls-23{fill:#666;}.cls-2{opacity:0.61;}.cls-3{fill:url(#linear-gradient);}.cls-4{fill:#fff;}.cls-5{fill:#abe2cf;}.cls-6{font-size:34px;fill:#7d7d7d;font-family:Calibri;letter-spacing:-0.04em;}.cls-7{letter-spacing:-0.05em;}.cls-8{letter-spacing:-0.04em;}.cls-9{letter-spacing:-0.05em;}.cls-10{letter-spacing:-0.06em;}.cls-11{letter-spacing:-0.06em;}.cls-12{letter-spacing:-0.05em;}.cls-13{letter-spacing:-0.05em;}.cls-14{letter-spacing:-0.05em;}.cls-15{letter-spacing:-0.05em;}.cls-16{letter-spacing:-0.05em;}.cls-17{letter-spacing:-0.05em;}.cls-18{letter-spacing:-0.05em;}.cls-19{letter-spacing:-0.04em;}.cls-20{letter-spacing:-0.06em;}.cls-21{letter-spacing:-0.05em;}.cls-22{letter-spacing:-0.05em;}.cls-23{opacity:0.38;}.cls-24{fill:#1c5366;}.cls-25{fill:#d9615b;}.cls-26{fill:#592464;}</style><radialGradient id="radial-gradient" cx="276.8" cy="111.77" r="858.66" gradientUnits="userSpaceOnUse"><stop offset="0" stop-color="#ff512a"/><stop offset="0.24" stop-color="#e38161"/><stop offset="0.49" stop-color="#cbab90"/><stop offset="0.71" stop-color="#bac9b2"/><stop offset="0.88" stop-color="#afdbc7"/><stop offset="1" stop-color="#abe2cf"/></radialGradient><linearGradient id="linear-gradient" x1="1044.77" y1="611.6" x2="745.15" y2="593.06" gradientUnits="userSpaceOnUse"><stop offset="0.05" stop-color="#d9615b"/><stop offset="0.99" stop-color="#592464"/></linearGradient></defs><g id="Layer_2" data-name="Layer 2"><g id="Layer_1-2" data-name="Layer 1"><g id="Git"><g id="name"><path class="cls-1" d="M636.12,415.61H306.3a30.67,30.67,0,0,1-30.66-30.67l0-239.22a30.67,30.67,0,0,1,30.67-30.66H485.05A30.67,30.67,0,0,0,515.72,84.4V55.09A30.67,30.67,0,0,1,546.4,24.43h721.73A30.67,30.67,0,0,1,1298.8,55.1l0,411a30.66,30.66,0,0,1-30.51,30.66l-88.85.44a30.67,30.67,0,0,0-30.52,30.66v89a30.67,30.67,0,0,1-30.69,30.67l-420.77-.26a30.67,30.67,0,0,1-30.65-30.67V446.28A30.67,30.67,0,0,0,636.12,415.61Z"/><path class="cls-2" d="M461,90.67l-430.65.85A30.35,30.35,0,0,1,0,61.17v-30A30.35,30.35,0,0,1,30.35.85L461,0a30.35,30.35,0,0,1,30.35,30.35v30A30.35,30.35,0,0,1,461,90.67Z"/><path class="cls-3" d="M733.65,589.33h2.72v22.91h-2.72Z"/><path class="cls-3" d="M740.27,595.92h2.59v2.4H743a5.69,5.69,0,0,1,2.11-2.08,5.81,5.81,0,0,1,3-.83,5.66,5.66,0,0,1,3.12.86,4.87,4.87,0,0,1,1.9,2.31,6.75,6.75,0,0,1,2.29-2.31,6.3,6.3,0,0,1,3.31-.86,5.2,5.2,0,0,1,4.24,1.71,7.07,7.07,0,0,1,1.43,4.66v10.46h-2.69v-10a4.81,4.81,0,0,0-.93-3.29,3.53,3.53,0,0,0-2.75-1,3.73,3.73,0,0,0-2.21.71,4.74,4.74,0,0,0-1.55,1.89,6,6,0,0,0-.56,2.56v9.21H751v-10a4.87,4.87,0,0,0-.93-3.33,3.49,3.49,0,0,0-2.72-1,3.68,3.68,0,0,0-2.21.72,4.8,4.8,0,0,0-1.55,1.93,6,6,0,0,0-.56,2.57v9.15h-2.72Z"/><path class="cls-3" d="M769.49,612.05a5.13,5.13,0,0,1-3-4.74,4.74,4.74,0,0,1,2-4,8,8,0,0,1,4.92-1.46,11.31,11.31,0,0,1,2.74.32,7,7,0,0,1,1.94.74v-1a3.67,3.67,0,0,0-1.28-2.92,4.79,4.79,0,0,0-3.24-1.11,5.55,5.55,0,0,0-2.51.59,4.67,4.67,0,0,0-1.84,1.65l-2.05-1.53a6.6,6.6,0,0,1,2.66-2.31,8.44,8.44,0,0,1,3.74-.83,7.41,7.41,0,0,1,5.22,1.74,6.17,6.17,0,0,1,1.89,4.76v10.33H778.1v-2.33H778a5.85,5.85,0,0,1-2.11,2,6.08,6.08,0,0,1-3.17.83A7,7,0,0,1,769.49,612.05Zm6-2.4a5.35,5.35,0,0,0,1.89-1.89,5,5,0,0,0,.71-2.59,6.86,6.86,0,0,0-1.89-.83,8.75,8.75,0,0,0-2.37-.32,5.26,5.26,0,0,0-3.38.93,3,3,0,0,0-1.13,2.4,2.66,2.66,0,0,0,1,2.17,4,4,0,0,0,2.59.83A4.91,4.91,0,0,0,775.5,609.65Z"/><path class="cls-3" d="M786.05,618.32a6.48,6.48,0,0,1-2.51-3.23L786,614a4.61,4.61,0,0,0,1.78,2.29,5.07,5.07,0,0,0,3,.88,5.15,5.15,0,0,0,3.92-1.47,5.81,5.81,0,0,0,1.39-4.16v-1.82H796a5.93,5.93,0,0,1-2.25,2,6.91,6.91,0,0,1-3.31.78,7.18,7.18,0,0,1-3.86-1.08,7.73,7.73,0,0,1-2.77-3.05,10.17,10.17,0,0,1,0-8.88,7.66,7.66,0,0,1,2.77-3,7.1,7.1,0,0,1,3.86-1.09,6.91,6.91,0,0,1,3.31.78,5.94,5.94,0,0,1,2.25,2.07h.13v-2.34h2.59V611.6a7.86,7.86,0,0,1-2.17,6,9,9,0,0,1-10.48.72Zm7.42-9a5.25,5.25,0,0,0,1.92-2.11,6.94,6.94,0,0,0,.72-3.26,7.05,7.05,0,0,0-.72-3.3,5.16,5.16,0,0,0-1.92-2.1,5.28,5.28,0,0,0-5.36,0,5.27,5.27,0,0,0-1.93,2.11,7,7,0,0,0-.72,3.27,7.05,7.05,0,0,0,.72,3.28,5,5,0,0,0,4.62,2.83A5,5,0,0,0,793.47,609.36Z"/><path class="cls-3" d="M802.29,592.34a1.87,1.87,0,0,1-.58-1.38,1.82,1.82,0,0,1,.58-1.36,2,2,0,0,1,2.75,0,1.86,1.86,0,0,1,.58,1.36,1.93,1.93,0,0,1-.56,1.38,1.89,1.89,0,0,1-1.4.57A1.87,1.87,0,0,1,802.29,592.34Zm0,3.58H805v16.32h-2.69Z"/><path class="cls-3" d="M808.62,595.92h2.6v2.4h.12a5.49,5.49,0,0,1,2.15-2.06,6.11,6.11,0,0,1,3.13-.85,5.77,5.77,0,0,1,4.5,1.71,6.71,6.71,0,0,1,1.55,4.66v10.46H820v-10a4.32,4.32,0,0,0-1.09-3.29,4.16,4.16,0,0,0-3-1,4,4,0,0,0-2.35.74,4.88,4.88,0,0,0-1.62,1.94,5.77,5.77,0,0,0-.58,2.51v9.18h-2.72Z"/><path class="cls-3" d="M829,611.63a7.73,7.73,0,0,1-2.89-3.08,9.41,9.41,0,0,1-1-4.44,9.74,9.74,0,0,1,1-4.33,7.85,7.85,0,0,1,2.79-3.19,7.46,7.46,0,0,1,4.14-1.18,7.87,7.87,0,0,1,4.16,1.07,7.11,7.11,0,0,1,2.71,3,9.53,9.53,0,0,1,.94,4.32,6.12,6.12,0,0,1-.06.83H827.76a6.44,6.44,0,0,0,.89,3.14,5.35,5.35,0,0,0,2,1.92,5.47,5.47,0,0,0,2.57.64,5.21,5.21,0,0,0,4.83-2.94l2.31,1.12a7.76,7.76,0,0,1-7.23,4.28A8,8,0,0,1,829,611.63Zm8.9-9.28a5.08,5.08,0,0,0-.58-2,4.33,4.33,0,0,0-1.6-1.73,5,5,0,0,0-2.75-.71,4.65,4.65,0,0,0-3.26,1.24,5.86,5.86,0,0,0-1.76,3.24Z"/><path class="cls-3" d="M857.29,586.9h2.47v29.18h-2.47Z"/><path class="cls-3" d="M877.71,589.33h8.22a6.89,6.89,0,0,1,3.25.8,6.29,6.29,0,0,1,2.42,2.21,5.83,5.83,0,0,1,.89,3.17,5.08,5.08,0,0,1-.84,2.91,5.6,5.6,0,0,1-2.29,1.92v.13a5.72,5.72,0,0,1,2.81,2,5.22,5.22,0,0,1,1.09,3.3,6.1,6.1,0,0,1-.94,3.34,6.5,6.5,0,0,1-2.53,2.32,7.16,7.16,0,0,1-3.41.83h-8.67Zm8.22,9.92a3.84,3.84,0,0,0,2-.54,4,4,0,0,0,1.36-1.4,3.46,3.46,0,0,0,.48-1.74,3.5,3.5,0,0,0-.47-1.71,3.79,3.79,0,0,0-1.31-1.39,3.52,3.52,0,0,0-2-.55h-5.63v7.33Zm.61,10.4a3.76,3.76,0,0,0,2.07-.58,4,4,0,0,0,1.4-1.48,3.92,3.92,0,0,0,.5-1.88,3.79,3.79,0,0,0-.51-1.87,3.9,3.9,0,0,0-1.44-1.47,4.13,4.13,0,0,0-2.15-.56h-6v7.84Z"/><path class="cls-3" d="M899,611.63a7.69,7.69,0,0,1-2.9-3.08,9.41,9.41,0,0,1-1-4.44,9.75,9.75,0,0,1,1-4.33,7.9,7.9,0,0,1,2.78-3.19,7.49,7.49,0,0,1,4.15-1.18,7.9,7.9,0,0,1,4.16,1.07,7.16,7.16,0,0,1,2.7,3,9.53,9.53,0,0,1,.94,4.32,6.12,6.12,0,0,1-.06.83H897.74a6.44,6.44,0,0,0,.9,3.14,5.25,5.25,0,0,0,2,1.92,5.48,5.48,0,0,0,2.58.64,5.23,5.23,0,0,0,4.83-2.94l2.3,1.12a8.08,8.08,0,0,1-2.85,3.12,8,8,0,0,1-4.38,1.16A7.89,7.89,0,0,1,899,611.63Zm8.89-9.28a5.23,5.23,0,0,0-.57-2,4.4,4.4,0,0,0-1.6-1.73,5,5,0,0,0-2.75-.71,4.69,4.69,0,0,0-3.27,1.24,5.92,5.92,0,0,0-1.76,3.24Z"/><path class="cls-3" d="M913.23,589.33H916v22.91h-2.72Z"/><path class="cls-3" d="M919.53,592.34A1.9,1.9,0,0,1,919,591a1.85,1.85,0,0,1,.57-1.36,1.94,1.94,0,0,1,1.38-.56,1.9,1.9,0,0,1,1.37.56,1.82,1.82,0,0,1,.58,1.36,1.93,1.93,0,0,1-.56,1.38,1.87,1.87,0,0,1-1.39.57A1.91,1.91,0,0,1,919.53,592.34Zm0,3.58h2.69v16.32h-2.69Z"/><path class="cls-3" d="M924.08,595.92H927L932,609h.07l5.12-13.12h2.85l-6.66,16.32h-2.75Z"/><path class="cls-3" d="M944.24,611.63a7.69,7.69,0,0,1-2.9-3.08,9.41,9.41,0,0,1-1-4.44,9.75,9.75,0,0,1,1-4.33,7.9,7.9,0,0,1,2.78-3.19,7.48,7.48,0,0,1,4.14-1.18,7.87,7.87,0,0,1,4.16,1.07,7.11,7.11,0,0,1,2.71,3,9.53,9.53,0,0,1,.94,4.32,6.12,6.12,0,0,1-.06.83H943a6.34,6.34,0,0,0,.9,3.14,5.25,5.25,0,0,0,2,1.92,5.47,5.47,0,0,0,2.57.64,5.23,5.23,0,0,0,4.84-2.94l2.3,1.12a8.08,8.08,0,0,1-2.85,3.12,8,8,0,0,1-4.38,1.16A7.89,7.89,0,0,1,944.24,611.63Zm8.89-9.28a5.23,5.23,0,0,0-.57-2,4.4,4.4,0,0,0-1.6-1.73,5,5,0,0,0-2.76-.71,4.67,4.67,0,0,0-3.26,1.24,5.86,5.86,0,0,0-1.76,3.24Z"/><path class="cls-3" d="M972.56,586.9H975v29.18h-2.46Z"/><path class="cls-3" d="M998.6,589.33h3.08l8.7,22.91h-3l-2.3-6.3h-9.89l-2.3,6.3h-3Zm5.57,14-3-8.26-.93-2.46h-.12l-.9,2.46-3,8.26Z"/><path class="cls-3" d="M1014.86,611.62a7.9,7.9,0,0,1-2.94-3.1,9.19,9.19,0,0,1-1.06-4.44,9.29,9.29,0,0,1,1.06-4.45,7.77,7.77,0,0,1,2.94-3.1,8.16,8.16,0,0,1,4.26-1.12,7.75,7.75,0,0,1,4.46,1.23,6.85,6.85,0,0,1,2.58,3.28l-2.47,1a4.71,4.71,0,0,0-1.81-2.29,5.18,5.18,0,0,0-2.89-.79,5,5,0,0,0-2.69.79,5.66,5.66,0,0,0-2,2.19,7.33,7.33,0,0,0,0,6.46,5.76,5.76,0,0,0,2,2.2,5,5,0,0,0,2.69.78,5.4,5.4,0,0,0,3-.8,4.76,4.76,0,0,0,1.86-2.27l2.43,1a7.15,7.15,0,0,1-2.67,3.27,7.79,7.79,0,0,1-4.46,1.24A8.08,8.08,0,0,1,1014.86,611.62Z"/><path class="cls-3" d="M1028.52,589.33h2.72v6.75l-.12,2.24h.12a5.4,5.4,0,0,1,2.13-2.08,6.35,6.35,0,0,1,3.19-.83,5.81,5.81,0,0,1,4.54,1.74,6.71,6.71,0,0,1,1.57,4.63v10.46H1040v-10a4.3,4.3,0,0,0-1.12-3.26,4.1,4.1,0,0,0-2.91-1.06,4,4,0,0,0-2.36.77,5.72,5.72,0,0,0-2.32,4.51v9.09h-2.72Z"/><path class="cls-3" d="M1049,611.63a7.76,7.76,0,0,1-2.9-3.08,9.41,9.41,0,0,1-1-4.44,9.75,9.75,0,0,1,1-4.33,7.9,7.9,0,0,1,2.78-3.19,7.49,7.49,0,0,1,4.15-1.18,7.87,7.87,0,0,1,4.16,1.07,7.16,7.16,0,0,1,2.7,3,9.53,9.53,0,0,1,1,4.32,6.2,6.2,0,0,1-.07.83h-12.93a6.55,6.55,0,0,0,.9,3.14,5.25,5.25,0,0,0,2,1.92,5.48,5.48,0,0,0,2.58.64,5.23,5.23,0,0,0,4.83-2.94l2.3,1.12a8.14,8.14,0,0,1-2.84,3.12,8.05,8.05,0,0,1-4.39,1.16A7.94,7.94,0,0,1,1049,611.63Zm8.9-9.28a5.42,5.42,0,0,0-.58-2,4.33,4.33,0,0,0-1.6-1.73,5,5,0,0,0-2.75-.71,4.69,4.69,0,0,0-3.27,1.24,5.92,5.92,0,0,0-1.76,3.24Z"/><path class="cls-3" d="M1063.47,592.34a1.87,1.87,0,0,1-.58-1.38,1.82,1.82,0,0,1,.58-1.36,1.9,1.9,0,0,1,1.37-.56,1.93,1.93,0,0,1,1.38.56,1.85,1.85,0,0,1,.57,1.36,1.89,1.89,0,0,1-.56,1.38,2,2,0,0,1-2.76,0Zm0,3.58h2.69v16.32h-2.69Z"/><path class="cls-3" d="M1068,595.92h2.91L1076,609h.06l5.12-13.12H1084l-6.66,16.32h-2.75Z"/><path class="cls-3" d="M1088.17,611.63a7.76,7.76,0,0,1-2.9-3.08,9.41,9.41,0,0,1-1-4.44,9.75,9.75,0,0,1,1-4.33,7.9,7.9,0,0,1,2.78-3.19,7.49,7.49,0,0,1,4.15-1.18,7.9,7.9,0,0,1,4.16,1.07,7.16,7.16,0,0,1,2.7,3,9.53,9.53,0,0,1,1,4.32,6.2,6.2,0,0,1-.07.83H1087a6.55,6.55,0,0,0,.9,3.14,5.25,5.25,0,0,0,2,1.92,5.48,5.48,0,0,0,2.58.64,5.23,5.23,0,0,0,4.83-2.94l2.3,1.12a8.14,8.14,0,0,1-2.84,3.12,8.05,8.05,0,0,1-4.39,1.16A7.94,7.94,0,0,1,1088.17,611.63Zm8.9-9.28a5.42,5.42,0,0,0-.58-2,4.33,4.33,0,0,0-1.6-1.73,5,5,0,0,0-2.75-.71,4.69,4.69,0,0,0-3.27,1.24,5.92,5.92,0,0,0-1.76,3.24Z"/><path class="cls-4" d="M64.56,60.8H59.83v-28h4.73Zm13.54-12H64.2V44.36H78.1Zm-.36-16h4.69v28H77.74Z"/><path class="cls-4" d="M88.44,35.92A2.71,2.71,0,0,1,86.35,35a3,3,0,0,1-.82-2.16,2.94,2.94,0,0,1,.82-2.08,2.71,2.71,0,0,1,2.09-.88,2.8,2.8,0,0,1,2.09.82,2.84,2.84,0,0,1,.82,2.1,3.19,3.19,0,0,1-.8,2.18A2.69,2.69,0,0,1,88.44,35.92ZM86.18,60.8V39.44H90.7V60.8Z"/><path class="cls-4" d="M106,43.6v-4h13v4Zm9.91,17.48a6.58,6.58,0,0,1-5-1.82,7.43,7.43,0,0,1-1.74-5.34V34.72h4.51v19a3.47,3.47,0,0,0,.73,2.36,2.54,2.54,0,0,0,2,.84,3.54,3.54,0,0,0,2.47-.88l1.31,3.56a5.43,5.43,0,0,1-2,1.08A8,8,0,0,1,115.89,61.08Z"/><path class="cls-4" d="M132.3,39.16a8.41,8.41,0,0,1,4.17,1,7.19,7.19,0,0,1,2.88,3.08,11.65,11.65,0,0,1,1.07,5.32V60.8h-4.55V49.2a6.38,6.38,0,0,0-1.2-4.24,4.27,4.27,0,0,0-3.42-1.4,5.53,5.53,0,0,0-2.84.72,4.71,4.71,0,0,0-1.91,2.14,8.34,8.34,0,0,0-.68,3.58V60.8h-4.51V31.12h4.51V45.24l-.94-1.8a7.11,7.11,0,0,1,2.93-3.16A8.78,8.78,0,0,1,132.3,39.16Z"/><path class="cls-4" d="M152.65,61.08A10.94,10.94,0,0,1,147,59.66a9.92,9.92,0,0,1-3.75-3.88,11.69,11.69,0,0,1-1.33-5.66,12,12,0,0,1,1.29-5.66,10,10,0,0,1,3.57-3.88A9.58,9.58,0,0,1,152,39.16,9.39,9.39,0,0,1,157,40.54a9.61,9.61,0,0,1,3.49,3.86,12.69,12.69,0,0,1,1.28,5.88c0,.19,0,.42,0,.7a7.15,7.15,0,0,1-.06.74H145.52V48.4h13.79l-1.82,1a6.77,6.77,0,0,0-.67-3.22,5.17,5.17,0,0,0-4.86-3A5.56,5.56,0,0,0,149,44a5.18,5.18,0,0,0-2,2.22,7.61,7.61,0,0,0-.69,3.32v.8a7.08,7.08,0,0,0,.79,3.4,5.55,5.55,0,0,0,2.23,2.3,6.75,6.75,0,0,0,3.39.82A6.7,6.7,0,0,0,158,54.52l2.47,3.12a8.67,8.67,0,0,1-3.33,2.56A11,11,0,0,1,152.65,61.08Z"/><path class="cls-4" d="M163.46,60.8V39.44h4.33v5.88l-.51-1.72A6.47,6.47,0,0,1,170,40.3a8.85,8.85,0,0,1,4.63-1.14v4.76a4.43,4.43,0,0,0-.51-.06l-.48,0a5.42,5.42,0,0,0-4.15,1.64,7.15,7.15,0,0,0-1.52,5V60.8Z"/><path class="cls-4" d="M184.76,61.08a10.94,10.94,0,0,1-5.66-1.42,9.78,9.78,0,0,1-3.75-3.88A11.69,11.69,0,0,1,174,50.12a12,12,0,0,1,1.29-5.66,9.9,9.9,0,0,1,3.57-3.88,9.54,9.54,0,0,1,5.19-1.42,9.39,9.39,0,0,1,5.06,1.38,9.61,9.61,0,0,1,3.49,3.86,12.69,12.69,0,0,1,1.27,5.88c0,.19,0,.42,0,.7s0,.53-.06.74h-16.2V48.4h13.8l-1.82,1a6.89,6.89,0,0,0-.67-3.22,5.44,5.44,0,0,0-2-2.2,5.37,5.37,0,0,0-2.91-.78,5.53,5.53,0,0,0-2.93.78,5.06,5.06,0,0,0-2,2.22,7.61,7.61,0,0,0-.69,3.32v.8a7.19,7.19,0,0,0,.78,3.4,5.58,5.58,0,0,0,2.24,2.3,6.75,6.75,0,0,0,3.39.82,6.7,6.7,0,0,0,5.28-2.36l2.47,3.12a8.82,8.82,0,0,1-3.33,2.56A11,11,0,0,1,184.76,61.08Z"/><path class="cls-4" d="M194.33,66.88,196.41,58l.69,3a2.94,2.94,0,0,1-2.17-.86,3.22,3.22,0,0,1-.85-2.38,3.3,3.3,0,0,1,.85-2.38,2.78,2.78,0,0,1,2.1-.9,2.71,2.71,0,0,1,2.12.92,3.39,3.39,0,0,1,.82,2.36,5.63,5.63,0,0,1-.07.9,8.3,8.3,0,0,1-.25,1.06c-.13.4-.3.91-.51,1.52l-1.9,5.68Z"/><path class="cls-4" d="M216.75,60.8v-28h4.74v28Z"/><path class="cls-4" d="M245.69,61.08a8.39,8.39,0,0,1-3.82-.82,6,6,0,0,1-3.42-5.58,6.69,6.69,0,0,1,.78-3.24,5.42,5.42,0,0,1,2.57-2.28,11.19,11.19,0,0,1,4.73-.84h5.64v3.32h-5.31a4.44,4.44,0,0,0-3.12.82,2.81,2.81,0,0,0-.81,2.06,2.58,2.58,0,0,0,1,2.12,4.21,4.21,0,0,0,2.73.8,5.49,5.49,0,0,0,3-.84,4.83,4.83,0,0,0,2-2.48l.73,3A5.49,5.49,0,0,1,250,60,8.08,8.08,0,0,1,245.69,61.08Zm6.12-.28V56.44l-.22-.88V48a4.63,4.63,0,0,0-1.22-3.42,5,5,0,0,0-3.7-1.22,9.4,9.4,0,0,0-3.16.56,8.08,8.08,0,0,0-2.7,1.56L239,41.84a11.07,11.07,0,0,1,3.75-2,14.82,14.82,0,0,1,4.48-.68,9,9,0,0,1,6.55,2.24c1.53,1.49,2.29,3.79,2.29,6.88V60.8Z"/><path class="cls-4" d="M283.73,39.16a8.31,8.31,0,0,1,4.13,1,6.81,6.81,0,0,1,2.83,3.08,12.25,12.25,0,0,1,1,5.32V60.8h-4.51V49.2A6.56,6.56,0,0,0,286,45a4,4,0,0,0-3.25-1.4,4.84,4.84,0,0,0-2.64.72,4.71,4.71,0,0,0-1.79,2.14,8.76,8.76,0,0,0-.63,3.54V60.8h-4.52V49.2A6.62,6.62,0,0,0,272.07,45a4,4,0,0,0-3.26-1.4,4.84,4.84,0,0,0-2.64.72,4.71,4.71,0,0,0-1.79,2.14,8.76,8.76,0,0,0-.63,3.54V60.8h-4.52V39.44h4.34v5.72l-.81-1.72a7.31,7.31,0,0,1,2.86-3.16,8.23,8.23,0,0,1,4.32-1.12,7.72,7.72,0,0,1,4.73,1.48,7.35,7.35,0,0,1,2.66,4.56l-1.75-.72a8.09,8.09,0,0,1,3.09-3.84A8.8,8.8,0,0,1,283.73,39.16Z"/><path class="cls-5" d="M321.77,61.2a13.8,13.8,0,0,1-5.48-1.06,12.9,12.9,0,0,1-4.35-3,14.17,14.17,0,0,1-2.87-4.56,16.77,16.77,0,0,1,0-11.52A13.89,13.89,0,0,1,312,36.48a13.08,13.08,0,0,1,4.37-3,14,14,0,0,1,5.55-1.06,14.18,14.18,0,0,1,5.81,1.16,11.56,11.56,0,0,1,4.38,3.4l-3,3.2a10,10,0,0,0-3.22-2.42,9.17,9.17,0,0,0-3.81-.78,9.43,9.43,0,0,0-3.73.72,8.6,8.6,0,0,0-2.93,2,9.54,9.54,0,0,0-1.93,3.12,11.65,11.65,0,0,0,0,7.9,9.53,9.53,0,0,0,1.93,3.14,8.71,8.71,0,0,0,2.91,2,9.35,9.35,0,0,0,3.72.72,10.3,10.3,0,0,0,3.65-.66,9.75,9.75,0,0,0,3.37-2.22l2.66,3.88a13.27,13.27,0,0,1-4.59,2.66A16.33,16.33,0,0,1,321.77,61.2Zm5.5-4.24V46.52h4.44V57.64Z"/><path class="cls-5" d="M340.66,61.08a8.39,8.39,0,0,1-3.82-.82A6.16,6.16,0,0,1,334.31,58a6.23,6.23,0,0,1-.89-3.3,6.69,6.69,0,0,1,.78-3.24,5.42,5.42,0,0,1,2.57-2.28,11.23,11.23,0,0,1,4.73-.84h5.64v3.32h-5.31a4.4,4.4,0,0,0-3.11.82,2.78,2.78,0,0,0-.82,2.06,2.58,2.58,0,0,0,1,2.12,4.25,4.25,0,0,0,2.73.8,5.47,5.47,0,0,0,3-.84,4.83,4.83,0,0,0,1.95-2.48l.73,3A5.45,5.45,0,0,1,345,60,8.08,8.08,0,0,1,340.66,61.08Zm6.12-.28V56.44l-.22-.88V48a4.63,4.63,0,0,0-1.22-3.42,5,5,0,0,0-3.69-1.22,9.41,9.41,0,0,0-3.17.56,8,8,0,0,0-2.69,1.56L334,41.84a11.07,11.07,0,0,1,3.75-2,14.87,14.87,0,0,1,4.48-.68,9,9,0,0,1,6.55,2.24c1.53,1.49,2.3,3.79,2.3,6.88V60.8Z"/><path class="cls-5" d="M365.2,39.16a8.41,8.41,0,0,1,4.17,1,7.11,7.11,0,0,1,2.87,3.08,11.52,11.52,0,0,1,1.08,5.32V60.8h-4.55V49.2A6.33,6.33,0,0,0,367.56,45a4.27,4.27,0,0,0-3.42-1.4,5.58,5.58,0,0,0-2.84.72,4.76,4.76,0,0,0-1.91,2.14,8.35,8.35,0,0,0-.67,3.58V60.8h-4.51V39.44h4.33v5.8l-.77-1.8a7.17,7.17,0,0,1,2.93-3.16A8.84,8.84,0,0,1,365.2,39.16Z"/><path class="cls-5" d="M385.55,61.08a10.94,10.94,0,0,1-5.66-1.42,9.78,9.78,0,0,1-3.75-3.88,11.69,11.69,0,0,1-1.33-5.66,12,12,0,0,1,1.29-5.66,9.9,9.9,0,0,1,3.57-3.88,9.54,9.54,0,0,1,5.19-1.42,9.39,9.39,0,0,1,5.06,1.38,9.61,9.61,0,0,1,3.49,3.86,12.69,12.69,0,0,1,1.27,5.88c0,.19,0,.42,0,.7s0,.53-.06.74h-16.2V48.4h13.8l-1.82,1a6.89,6.89,0,0,0-.67-3.22,5.44,5.44,0,0,0-2-2.2,5.37,5.37,0,0,0-2.91-.78,5.53,5.53,0,0,0-2.93.78,5.06,5.06,0,0,0-2,2.22,7.61,7.61,0,0,0-.69,3.32v.8a7.19,7.19,0,0,0,.78,3.4,5.58,5.58,0,0,0,2.24,2.3,6.75,6.75,0,0,0,3.39.82,6.7,6.7,0,0,0,5.28-2.36l2.47,3.12a8.82,8.82,0,0,1-3.33,2.56A11,11,0,0,1,385.55,61.08Z"/><path class="cls-5" d="M402.37,61.08a15.4,15.4,0,0,1-4.7-.7,12.12,12.12,0,0,1-3.57-1.7l1.75-3.8a11.67,11.67,0,0,0,3.13,1.5,11.94,11.94,0,0,0,3.68.58,5.88,5.88,0,0,0,3.07-.62,1.93,1.93,0,0,0,1-1.7A1.53,1.53,0,0,0,406,53.3a4.81,4.81,0,0,0-1.71-.7c-.7-.16-1.49-.31-2.35-.44a23.68,23.68,0,0,1-2.58-.54,8.54,8.54,0,0,1-2.35-1,5.12,5.12,0,0,1-1.71-1.78,5.9,5.9,0,0,1-.66-3,6,6,0,0,1,1.06-3.5,6.89,6.89,0,0,1,3-2.34,11.17,11.17,0,0,1,4.53-.84,16.64,16.64,0,0,1,3.95.5A10.78,10.78,0,0,1,410.56,41l-1.79,3.8A8.85,8.85,0,0,0,406,43.62a11.92,11.92,0,0,0-2.81-.34,5.7,5.7,0,0,0-3.06.66,2,2,0,0,0-1,1.7,1.66,1.66,0,0,0,.65,1.44,4.82,4.82,0,0,0,1.71.74c.71.17,1.49.33,2.35.48s1.72.33,2.57.56a9.92,9.92,0,0,1,2.34,1,4.59,4.59,0,0,1,1.73,1.74,6.46,6.46,0,0,1-.42,6.42,7,7,0,0,1-3,2.28A11.93,11.93,0,0,1,402.37,61.08Z"/><path class="cls-5" d="M423.37,39.16a8.41,8.41,0,0,1,4.17,1,7.11,7.11,0,0,1,2.87,3.08,11.52,11.52,0,0,1,1.08,5.32V60.8h-4.55V49.2a6.38,6.38,0,0,0-1.2-4.24,4.3,4.3,0,0,0-3.43-1.4,5.58,5.58,0,0,0-2.84.72,4.76,4.76,0,0,0-1.91,2.14,8.35,8.35,0,0,0-.67,3.58V60.8h-4.51V31.12h4.51V45.24l-.95-1.8a7.22,7.22,0,0,1,2.93-3.16A8.84,8.84,0,0,1,423.37,39.16Z"/><rect class="cls-2" x="5.58" y="145.5" width="240.1" height="240.1" rx="30.58"/><text class="cls-6" transform="translate(5.58 492.24) scale(1.09 1)">I am on a journ<tspan class="cls-7" x="187.06" y="0">e</tspan><tspan class="cls-8" x="202.34" y="0">y </tspan><tspan class="cls-9" x="222.56" y="0">t</tspan><tspan class="cls-8" x="232.18" y="0">o </tspan><tspan class="cls-10" x="254.94" y="0">r</tspan><tspan class="cls-8" x="264.92" y="0">eimagine f</tspan><tspan class="cls-11" x="395.46" y="0">r</tspan><tspan class="cls-8" x="405.34" y="0">o</tspan><tspan class="cls-12" x="421.84" y="0">n</tspan><tspan class="cls-13" x="437.96" y="0">t</tspan><tspan class="cls-8" x="447.55" y="0">end </tspan><tspan x="0" y="60">with 3d </tspan><tspan class="cls-14" x="100.4" y="60">c</tspan><tspan class="cls-8" x="113.07" y="60">o</tspan><tspan class="cls-15" x="129.57" y="60">n</tspan><tspan class="cls-16" x="145.69" y="60">t</tspan><tspan class="cls-8" x="155.29" y="60">e</tspan><tspan class="cls-15" x="170.78" y="60">n</tspan><tspan class="cls-8" x="186.9" y="60">t. Applying kn</tspan><tspan class="cls-17" x="355.83" y="60">o</tspan><tspan class="cls-8" x="372.2" y="60">wled</tspan><tspan class="cls-18" x="433.38" y="60">g</tspan><tspan class="cls-19" x="447.67" y="60">e f</tspan><tspan class="cls-11" x="478.36" y="60">r</tspan><tspan class="cls-8" x="488.24" y="60">om </tspan><tspan class="cls-20"><tspan x="0" y="120">v</tspan><tspan class="cls-8" x="13.43" y="120">arious domains </tspan><tspan class="cls-9" x="210.62" y="120">t</tspan><tspan class="cls-8" x="220.25" y="120">o p</tspan><tspan class="cls-11" x="259.44" y="120">r</tspan><tspan class="cls-21" x="269.32" y="120">o</tspan><tspan class="cls-8" x="285.67" y="120">vide </tspan><tspan class="cls-22" x="344.16" y="120">e</tspan><tspan class="cls-8" x="359.35" y="120">fficie</tspan><tspan class="cls-15" x="420.19" y="120">n</tspan><tspan class="cls-8" x="436.31" y="120">t solutions.</tspan></tspan></text><path class="cls-5" d="M40.66,214.55v-23.8h10a14.46,14.46,0,0,1,6.72,1.5,11,11,0,0,1,4.52,4.18,12.75,12.75,0,0,1,0,12.44,11,11,0,0,1-4.52,4.18,14.46,14.46,0,0,1-6.72,1.5Zm3.4-3h6.43a11,11,0,0,0,5.12-1.12A8.21,8.21,0,0,0,59,207.32,9.8,9.8,0,0,0,59,198a8.23,8.23,0,0,0-3.35-3.13,11,11,0,0,0-5.12-1.12H44.06Z"/><path class="cls-5" d="M76.3,214.75a10.43,10.43,0,0,1-5.09-1.19,8.61,8.61,0,0,1-3.4-3.26,9.33,9.33,0,0,1-1.2-4.76,9.51,9.51,0,0,1,1.17-4.76A8.48,8.48,0,0,1,71,197.53a9.22,9.22,0,0,1,4.64-1.17,9,9,0,0,1,4.62,1.16,8.19,8.19,0,0,1,3.15,3.24,10.05,10.05,0,0,1,1.14,4.88c0,.14,0,.3,0,.48s0,.35-.05.51H69.16v-2.35H82.79l-1.33.82a6,6,0,0,0-.71-3.1,5.52,5.52,0,0,0-2.06-2.12,5.89,5.89,0,0,0-3-.77,6,6,0,0,0-3,.77A5.4,5.4,0,0,0,70.55,202a6.49,6.49,0,0,0-.75,3.15v.54a6.24,6.24,0,0,0,.83,3.21,5.88,5.88,0,0,0,2.33,2.2,8,8,0,0,0,6.34.23,6.25,6.25,0,0,0,2.3-1.63l1.8,2.11a7.9,7.9,0,0,1-3,2.18A10.75,10.75,0,0,1,76.3,214.75Z"/><path class="cls-5" d="M94.25,214.75a14.6,14.6,0,0,1-4.27-.61,10,10,0,0,1-3.18-1.5l1.36-2.58a11.9,11.9,0,0,0,6.33,1.87,6.32,6.32,0,0,0,3.28-.64,2.07,2.07,0,0,0,1-1.81,1.58,1.58,0,0,0-.61-1.32,4.19,4.19,0,0,0-1.62-.72q-1-.24-2.22-.42c-.82-.13-1.64-.29-2.45-.48a9.66,9.66,0,0,1-2.25-.81A4.2,4.2,0,0,1,88,204.26a4.46,4.46,0,0,1-.61-2.49,4.66,4.66,0,0,1,.92-2.86A5.77,5.77,0,0,1,90.9,197a10.9,10.9,0,0,1,4-.66,15.91,15.91,0,0,1,3.59.42,9.22,9.22,0,0,1,3,1.21l-1.4,2.59a7.62,7.62,0,0,0-2.55-1.13,12,12,0,0,0-2.65-.3,5.94,5.94,0,0,0-3.2.69,2.09,2.09,0,0,0-1,1.79,1.69,1.69,0,0,0,.63,1.41,4.66,4.66,0,0,0,1.63.77,19.47,19.47,0,0,0,2.23.45c.81.13,1.63.29,2.45.48a9.87,9.87,0,0,1,2.22.8,4,4,0,0,1,2.26,3.88,4.37,4.37,0,0,1-1,2.82,6.15,6.15,0,0,1-2.68,1.85A11.69,11.69,0,0,1,94.25,214.75Z"/><path class="cls-5" d="M107.75,193.06a2.18,2.18,0,0,1-1.59-.61,2,2,0,0,1-.62-1.5,2,2,0,0,1,.62-1.53,2.38,2.38,0,0,1,3.17,0,1.94,1.94,0,0,1,.63,1.48,2.14,2.14,0,0,1-2.21,2.17Zm-1.64,21.49v-18h3.27v18Z"/><path class="cls-5" d="M123.08,213.8a9.83,9.83,0,0,1-4.68-1.1,8.47,8.47,0,0,1-3.26-3.08,9.22,9.22,0,0,1,0-9.13,8.3,8.3,0,0,1,3.26-3,9.82,9.82,0,0,1,4.68-1.09,9.5,9.5,0,0,1,4.22.93,7.25,7.25,0,0,1,3,2.88,11,11,0,0,1,0,9.76,7.37,7.37,0,0,1-3,2.9A9.13,9.13,0,0,1,123.08,213.8Zm.41,7.55a16.46,16.46,0,0,1-4.81-.7,9.8,9.8,0,0,1-3.79-2l1.56-2.51a9.38,9.38,0,0,0,3.09,1.71,11.82,11.82,0,0,0,3.85.63,6.44,6.44,0,0,0,4.69-1.49,6.24,6.24,0,0,0,1.49-4.56v-3.81l.34-3.57-.17-3.6v-4.93h3.1V212.1c0,3.17-.8,5.51-2.38,7S126.55,221.35,123.49,221.35Zm0-10.4a6.66,6.66,0,0,0,3.2-.75,5.55,5.55,0,0,0,2.19-2.08,6.25,6.25,0,0,0,0-6.12,5.41,5.41,0,0,0-2.19-2.05,6.77,6.77,0,0,0-3.2-.73,6.84,6.84,0,0,0-3.21.73A5.4,5.4,0,0,0,118,202a6.25,6.25,0,0,0,0,6.12,5.54,5.54,0,0,0,2.21,2.08A6.73,6.73,0,0,0,123.45,211Z"/><path class="cls-5" d="M148.68,196.36a8.47,8.47,0,0,1,3.89.85,6.14,6.14,0,0,1,2.64,2.58,9.12,9.12,0,0,1,.95,4.39v10.37H152.9v-10a5.48,5.48,0,0,0-1.28-3.94,4.75,4.75,0,0,0-3.59-1.33,6.44,6.44,0,0,0-3,.68,4.71,4.71,0,0,0-2,2,7,7,0,0,0-.7,3.3v9.28h-3.26v-18h3.13v4.86l-.51-1.29a6.18,6.18,0,0,1,2.72-2.75A8.87,8.87,0,0,1,148.68,196.36Z"/><path class="cls-5" d="M170.24,214.75a10.46,10.46,0,0,1-5.09-1.19,8.61,8.61,0,0,1-3.4-3.26,9.33,9.33,0,0,1-1.2-4.76,9.51,9.51,0,0,1,1.17-4.76,8.48,8.48,0,0,1,3.23-3.25,9.22,9.22,0,0,1,4.64-1.17,9,9,0,0,1,4.62,1.16,8.19,8.19,0,0,1,3.15,3.24,10.05,10.05,0,0,1,1.14,4.88c0,.14,0,.3,0,.48s0,.35,0,.51H163.1v-2.35h13.63l-1.33.82a6,6,0,0,0-.71-3.1,5.45,5.45,0,0,0-2.06-2.12,5.89,5.89,0,0,0-3-.77,6,6,0,0,0-3,.77,5.4,5.4,0,0,0-2.07,2.14,6.49,6.49,0,0,0-.75,3.15v.54a6.15,6.15,0,0,0,.84,3.21,5.79,5.79,0,0,0,2.32,2.2,7.36,7.36,0,0,0,3.44.78,7.43,7.43,0,0,0,2.91-.55,6.3,6.3,0,0,0,2.29-1.63l1.8,2.11a7.9,7.9,0,0,1-3,2.18A10.75,10.75,0,0,1,170.24,214.75Z"/><path class="cls-5" d="M183,214.55v-18h3.13v4.9l-.31-1.23a5.49,5.49,0,0,1,2.52-2.85,8.8,8.8,0,0,1,4.35-1v3.16l-.39,0H192a5.56,5.56,0,0,0-4.15,1.56,6.2,6.2,0,0,0-1.53,4.52v9Z"/><path class="cls-5" d="M40.66,274.55v-23.8h10a14.46,14.46,0,0,1,6.72,1.5,11,11,0,0,1,4.52,4.18,12.75,12.75,0,0,1,0,12.44,11,11,0,0,1-4.52,4.18,14.46,14.46,0,0,1-6.72,1.5Zm3.4-3h6.43a11,11,0,0,0,5.12-1.12A8.21,8.21,0,0,0,59,267.32,9.8,9.8,0,0,0,59,258a8.23,8.23,0,0,0-3.35-3.13,11,11,0,0,0-5.12-1.12H44.06Z"/><path class="cls-5" d="M76.3,274.75a10.43,10.43,0,0,1-5.09-1.19,8.61,8.61,0,0,1-3.4-3.26,9.33,9.33,0,0,1-1.2-4.76,9.51,9.51,0,0,1,1.17-4.76A8.48,8.48,0,0,1,71,257.53a9.22,9.22,0,0,1,4.64-1.17,9,9,0,0,1,4.62,1.16,8.19,8.19,0,0,1,3.15,3.24,10.05,10.05,0,0,1,1.14,4.88c0,.14,0,.3,0,.48s0,.35-.05.51H69.16v-2.35H82.79l-1.33.82a6,6,0,0,0-.71-3.1,5.52,5.52,0,0,0-2.06-2.12,5.89,5.89,0,0,0-3-.77,6,6,0,0,0-3,.77A5.4,5.4,0,0,0,70.55,262a6.49,6.49,0,0,0-.75,3.15v.54a6.24,6.24,0,0,0,.83,3.21,5.88,5.88,0,0,0,2.33,2.2,8,8,0,0,0,6.34.23,6.25,6.25,0,0,0,2.3-1.63l1.8,2.11a7.9,7.9,0,0,1-3,2.18A10.75,10.75,0,0,1,76.3,274.75Z"/><path class="cls-5" d="M93.47,274.55l-7.89-18H89l7,16.32H94.35l7.14-16.32h3.2l-7.89,18Z"/><path class="cls-5" d="M115.26,274.75a10.39,10.39,0,0,1-5.08-1.19,8.48,8.48,0,0,1-3.4-3.26,9.23,9.23,0,0,1-1.21-4.76,9.51,9.51,0,0,1,1.17-4.76,8.48,8.48,0,0,1,3.23-3.25,9.22,9.22,0,0,1,4.64-1.17,9,9,0,0,1,4.63,1.16,8.23,8.23,0,0,1,3.14,3.24,10.05,10.05,0,0,1,1.14,4.88,4.19,4.19,0,0,1,0,.48,4,4,0,0,1,0,.51H108.12v-2.35h13.63l-1.32.82a6.1,6.1,0,0,0-.72-3.1,5.5,5.5,0,0,0-2-2.12,6.37,6.37,0,0,0-6.07,0,5.36,5.36,0,0,0-2.08,2.14,6.49,6.49,0,0,0-.74,3.15v.54a6.14,6.14,0,0,0,.83,3.21,5.75,5.75,0,0,0,2.33,2.2,7.29,7.29,0,0,0,3.43.78,7.36,7.36,0,0,0,2.91-.55,6.22,6.22,0,0,0,2.29-1.63l1.81,2.11a8,8,0,0,1-3.05,2.18A10.72,10.72,0,0,1,115.26,274.75Z"/><path class="cls-5" d="M128,274.55V249.32h3.27v25.23Z"/><path class="cls-5" d="M145.25,274.75a9.59,9.59,0,0,1-4.81-1.19,8.66,8.66,0,0,1-3.35-3.28,9.15,9.15,0,0,1-1.23-4.74,9.05,9.05,0,0,1,1.23-4.74,8.81,8.81,0,0,1,3.33-3.25,9.66,9.66,0,0,1,4.83-1.19,9.81,9.81,0,0,1,4.81,1.17,8.6,8.6,0,0,1,3.33,3.25,10,10,0,0,1,0,9.52,8.69,8.69,0,0,1-3.33,3.26A9.61,9.61,0,0,1,145.25,274.75Zm0-2.85a6.22,6.22,0,0,0,3.11-.78,5.59,5.59,0,0,0,2.16-2.23,6.94,6.94,0,0,0,.78-3.35,6.83,6.83,0,0,0-.78-3.35,5.55,5.55,0,0,0-2.16-2.19,6.22,6.22,0,0,0-3.11-.78,6.13,6.13,0,0,0-3.1.78,5.85,5.85,0,0,0-2.17,2.19,6.52,6.52,0,0,0-.82,3.35,6.63,6.63,0,0,0,.82,3.35,5.89,5.89,0,0,0,2.17,2.23A6.13,6.13,0,0,0,145.25,271.9Z"/><path class="cls-5" d="M159.12,281.14V256.53h3.13v4.86l-.21,4.18.34,4.19v11.38Zm9.55-6.39a8.23,8.23,0,0,1-4.09-1,7.52,7.52,0,0,1-3-3.08,10.57,10.57,0,0,1-1.11-5.1,10.94,10.94,0,0,1,1.07-5.1,7.23,7.23,0,0,1,2.93-3.06,8.46,8.46,0,0,1,4.16-1,9.31,9.31,0,0,1,4.7,1.16,8.65,8.65,0,0,1,3.23,3.21,9.45,9.45,0,0,1,1.18,4.81,9.58,9.58,0,0,1-1.18,4.83,8.63,8.63,0,0,1-3.23,3.23A9.41,9.41,0,0,1,168.67,274.75Zm-.27-2.85a6.19,6.19,0,0,0,3.11-.78,5.7,5.7,0,0,0,2.18-2.23,6.83,6.83,0,0,0,.8-3.35,6.72,6.72,0,0,0-.8-3.35,5.66,5.66,0,0,0-2.18-2.19,6.53,6.53,0,0,0-6.19,0,5.71,5.71,0,0,0-2.17,2.19,6.72,6.72,0,0,0-.8,3.35,6.83,6.83,0,0,0,.8,3.35,5.75,5.75,0,0,0,2.17,2.23A6.16,6.16,0,0,0,168.4,271.9Z"/><path class="cls-5" d="M190.33,274.75a10.39,10.39,0,0,1-5.08-1.19,8.54,8.54,0,0,1-3.4-3.26,9.23,9.23,0,0,1-1.21-4.76,9.51,9.51,0,0,1,1.17-4.76,8.54,8.54,0,0,1,3.23-3.25,9.22,9.22,0,0,1,4.64-1.17,9,9,0,0,1,4.63,1.16,8.16,8.16,0,0,1,3.14,3.24,10.05,10.05,0,0,1,1.14,4.88c0,.14,0,.3,0,.48s0,.35-.06.51H183.19v-2.35h13.63l-1.32.82a6.1,6.1,0,0,0-.72-3.1,5.43,5.43,0,0,0-2.05-2.12,6.37,6.37,0,0,0-6.07,0,5.36,5.36,0,0,0-2.08,2.14,6.6,6.6,0,0,0-.74,3.15v.54a6.14,6.14,0,0,0,.83,3.21,5.75,5.75,0,0,0,2.33,2.2,8,8,0,0,0,6.34.23,6.22,6.22,0,0,0,2.29-1.63l1.81,2.11a7.94,7.94,0,0,1-3.05,2.18A10.72,10.72,0,0,1,190.33,274.75Z"/><path class="cls-5" d="M203.11,274.55v-18h3.13v4.9l-.3-1.23a5.43,5.43,0,0,1,2.51-2.85,8.8,8.8,0,0,1,4.35-1v3.16l-.39,0h-.35a5.54,5.54,0,0,0-4.15,1.56,6.2,6.2,0,0,0-1.53,4.52v9Z"/><path class="cls-5" d="M44.06,331.59H57.94v3H40.66v-23.8h16.8v3H44.06ZM43.76,321H56v2.89H43.76Z"/><path class="cls-5" d="M72.59,316.36a8.47,8.47,0,0,1,3.89.85,6.14,6.14,0,0,1,2.64,2.58,9.12,9.12,0,0,1,.95,4.39v10.37H76.81v-10a5.48,5.48,0,0,0-1.28-3.94,4.75,4.75,0,0,0-3.59-1.33,6.44,6.44,0,0,0-3,.68,4.71,4.71,0,0,0-2,2,7,7,0,0,0-.7,3.3v9.28H63v-18H66.1v4.86l-.51-1.29a6.18,6.18,0,0,1,2.72-2.75A8.87,8.87,0,0,1,72.59,316.36Z"/><path class="cls-5" d="M93.6,333.8a9.79,9.79,0,0,1-4.67-1.1,8.93,8.93,0,0,1-3.27-12.21,8.39,8.39,0,0,1,3.27-3,9.78,9.78,0,0,1,4.67-1.09,9.5,9.5,0,0,1,4.22.93,7.2,7.2,0,0,1,3,2.88,11,11,0,0,1,0,9.76,7.31,7.31,0,0,1-3,2.9A9.13,9.13,0,0,1,93.6,333.8Zm.41,7.55a16.51,16.51,0,0,1-4.81-.7,9.88,9.88,0,0,1-3.79-2L87,336.15a9.33,9.33,0,0,0,3.1,1.71,11.71,11.71,0,0,0,3.84.63A6.44,6.44,0,0,0,98.6,337a6.2,6.2,0,0,0,1.5-4.56v-3.81l.34-3.57-.17-3.6v-4.93h3.09V332.1c0,3.17-.79,5.51-2.38,7S97.07,341.35,94,341.35ZM94,331a6.62,6.62,0,0,0,3.19-.75,5.55,5.55,0,0,0,2.19-2.08,6.25,6.25,0,0,0,0-6.12A5.41,5.41,0,0,0,97.17,320a6.73,6.73,0,0,0-3.19-.73,6.85,6.85,0,0,0-3.22.73A5.46,5.46,0,0,0,88.55,322a6.25,6.25,0,0,0,0,6.12,5.61,5.61,0,0,0,2.21,2.08A6.74,6.74,0,0,0,94,331Z"/><path class="cls-5" d="M111.21,313.06a2.17,2.17,0,0,1-1.58-.61A2,2,0,0,1,109,311a2.05,2.05,0,0,1,.63-1.53,2.21,2.21,0,0,1,1.58-.61,2.19,2.19,0,0,1,1.58.6,1.94,1.94,0,0,1,.63,1.48,2.12,2.12,0,0,1-2.21,2.17Zm-1.63,21.49v-18h3.27v18Z"/><path class="cls-5" d="M128.69,316.36a8.47,8.47,0,0,1,3.89.85,6.19,6.19,0,0,1,2.64,2.58,9.12,9.12,0,0,1,.95,4.39v10.37h-3.26v-10a5.48,5.48,0,0,0-1.28-3.94,4.77,4.77,0,0,0-3.59-1.33,6.44,6.44,0,0,0-3,.68,4.71,4.71,0,0,0-2,2,7,7,0,0,0-.7,3.3v9.28h-3.26v-18h3.13v4.86l-.51-1.29a6.13,6.13,0,0,1,2.72-2.75A8.87,8.87,0,0,1,128.69,316.36Z"/><path class="cls-5" d="M150.24,334.75a10.42,10.42,0,0,1-5.08-1.19,8.61,8.61,0,0,1-3.4-3.26,9.33,9.33,0,0,1-1.2-4.76,9.51,9.51,0,0,1,1.17-4.76,8.48,8.48,0,0,1,3.23-3.25,9.22,9.22,0,0,1,4.64-1.17,9,9,0,0,1,4.62,1.16,8.19,8.19,0,0,1,3.15,3.24,10.05,10.05,0,0,1,1.14,4.88c0,.14,0,.3,0,.48s0,.35-.05.51H143.11v-2.35h13.63l-1.33.82a6,6,0,0,0-.71-3.1,5.52,5.52,0,0,0-2.06-2.12,5.89,5.89,0,0,0-3-.77,6,6,0,0,0-3,.77A5.4,5.4,0,0,0,144.5,322a6.49,6.49,0,0,0-.75,3.15v.54a6.24,6.24,0,0,0,.83,3.21,5.88,5.88,0,0,0,2.33,2.2,8,8,0,0,0,6.34.23,6.25,6.25,0,0,0,2.3-1.63l1.8,2.11a8,8,0,0,1-3,2.18A10.77,10.77,0,0,1,150.24,334.75Z"/><path class="cls-5" d="M171.05,334.75a10.42,10.42,0,0,1-5.08-1.19,8.54,8.54,0,0,1-3.4-3.26,10.08,10.08,0,0,1,0-9.52,8.41,8.41,0,0,1,3.23-3.25,9.19,9.19,0,0,1,4.64-1.17,9,9,0,0,1,4.62,1.16,8.19,8.19,0,0,1,3.15,3.24,10.05,10.05,0,0,1,1.14,4.88c0,.14,0,.3,0,.48s0,.35-.05.51H163.91v-2.35h13.64l-1.33.82a6.09,6.09,0,0,0-.71-3.1,5.52,5.52,0,0,0-2.06-2.12,6.37,6.37,0,0,0-6.07,0,5.4,5.4,0,0,0-2.07,2.14,6.49,6.49,0,0,0-.75,3.15v.54a6.24,6.24,0,0,0,.83,3.21,5.82,5.82,0,0,0,2.33,2.2,8,8,0,0,0,6.34.23,6.34,6.34,0,0,0,2.3-1.63l1.8,2.11a8,8,0,0,1-3,2.18A10.81,10.81,0,0,1,171.05,334.75Z"/><path class="cls-5" d="M183.84,334.55v-18H187v4.9l-.31-1.23a5.49,5.49,0,0,1,2.52-2.85,8.75,8.75,0,0,1,4.35-1v3.16l-.39,0h-.36a5.54,5.54,0,0,0-4.15,1.56,6.2,6.2,0,0,0-1.53,4.52v9Z"/><g id="Radio"><rect class="cls-23" x="1176.82" y="528.99" width="89.47" height="89.37" rx="29.5"/><path class="cls-24" d="M1237.78,573.69a33.31,33.31,0,0,0,3-4c2.93-4.61,3.54-8.54,1.75-11-2-2.8-6.67-3.18-12.45-1.49-2-5.67-5-9.23-8.47-9.23s-6.48,3.56-8.48,9.23c-.48-.15-1-.28-1.42-.4-5.31-1.29-9.22-.62-11,1.89-2.38,3.32-.36,9.06,4.68,15-5,5.94-7.06,11.69-4.68,15,1.21,1.67,3.34,2.53,6.21,2.53a20.89,20.89,0,0,0,4.79-.64l1.43-.39c2,5.67,5,9.23,8.47,9.23s6.49-3.56,8.48-9.23a22.36,22.36,0,0,0,6.21,1c2.82,0,5-.81,6.23-2.51,1.81-2.5,1.18-6.43-1.74-11A30,30,0,0,0,1237.78,573.69ZM1236.23,558c2.25,0,3.91.59,4.74,1.74,1.31,1.82.65,5.09-1.81,9a32.76,32.76,0,0,1-2.63,3.56,53.89,53.89,0,0,0-4.26-4.1,48.32,48.32,0,0,0-1.68-9.25A21,21,0,0,1,1236.23,558Zm-9.36,23.05a54.69,54.69,0,0,1-5.33,3.4,53.77,53.77,0,0,1-5.29-3.4q-1.93-1.4-3.62-2.8c-.11-1.47-.17-3-.17-4.58s.06-3.11.17-4.58c1.14-1,2.33-1.89,3.62-2.81a58.54,58.54,0,0,1,5.31-3.4,59.91,59.91,0,0,1,5.31,3.4c1.26.9,2.47,1.85,3.62,2.82.11,1.47.17,3,.17,4.58s-.06,3.11-.17,4.58C1229.35,579.23,1228.13,580.17,1226.87,581.07Zm3.37-.2a44.7,44.7,0,0,1-1.4,7,43.32,43.32,0,0,1-5.36-2.34c1.5-.89,3-1.87,4.48-2.94C1228.74,582,1229.5,581.45,1230.24,580.87Zm-10.6,4.65a45.25,45.25,0,0,1-5.36,2.34,44.8,44.8,0,0,1-1.4-7c.74.58,1.5,1.15,2.28,1.72C1216.66,583.66,1218.16,584.63,1219.64,585.52Zm-9-9c-1.05-1-2-1.92-2.86-2.87.87-.94,1.81-1.9,2.86-2.86,0,.93-.07,1.89-.07,2.86S1210.63,575.61,1210.67,576.54Zm2.21-10a44.33,44.33,0,0,1,1.4-7,43.46,43.46,0,0,1,5.36,2.34c-1.48.89-3,1.86-4.48,2.93Q1214,565.62,1212.88,566.49Zm10.58-4.65a40.59,40.59,0,0,1,5.37-2.34,45.94,45.94,0,0,1,1.39,7c-.74-.58-1.49-1.16-2.28-1.71C1226.47,563.71,1225,562.74,1223.46,561.84Zm9,9q1.53,1.41,2.85,2.85c-.87,1-1.83,1.9-2.85,2.85,0-.93.06-1.89.06-2.85S1232.51,571.77,1232.46,570.84Zm-10.9-21c2.43,0,4.94,2.92,6.72,7.94a47.86,47.86,0,0,0-6.72,3,47.92,47.92,0,0,0-6.72-3C1216.62,552.72,1219.15,549.8,1221.56,549.8Zm-19.39,10c.82-1.16,2.47-1.76,4.69-1.76a18.78,18.78,0,0,1,4.36.58c.42.1.86.22,1.3.35a49,49,0,0,0-1.69,9.23,56.14,56.14,0,0,0-4.27,4.1C1202.06,566.9,1200.49,562.09,1202.17,559.76Zm9,29c-4.45,1.08-7.76.66-9-1.16-1.68-2.33-.11-7.15,4.42-12.53a52.51,52.51,0,0,0,4.27,4.1,48.86,48.86,0,0,0,1.69,9.23C1212.08,588.54,1211.66,588.66,1211.22,588.76Zm10.34,8.8c-2.43,0-4.94-2.92-6.72-7.94a48.34,48.34,0,0,0,6.72-3,46.73,46.73,0,0,0,6.72,3C1226.5,594.64,1224,597.56,1221.56,597.56Zm19.41-10c-1.41,2-5.27,2.31-10.37.83a49.23,49.23,0,0,0,1.69-9.25,55.6,55.6,0,0,0,4.26-4.1,33.12,33.12,0,0,1,2.63,3.56C1241.62,582.51,1242.28,585.78,1241,587.6Z"/><path class="cls-25" d="M1241.62,556.39a3.13,3.13,0,1,0,3.13,3.12A3.12,3.12,0,0,0,1241.62,556.39Z"/><path class="cls-25" d="M1221.56,594.93a3.13,3.13,0,1,0,3.13,3.12A3.13,3.13,0,0,0,1221.56,594.93Z"/><circle class="cls-26" cx="1221.57" cy="573.69" r="6.08"/><path class="cls-25" d="M1201.32,556.37a3.13,3.13,0,1,0,3.13,3.13A3.13,3.13,0,0,0,1201.32,556.37Z"/></g></g></g></g></g></svg>
