<svg xmlns="http://www.w3.org/2000/svg" viewBox="0 0 747.75 238.85">
  <defs>
    <style>
      .cls-1 {
        fill: #666;
        opacity: 0.61;
      }
      .cls-2 {
        fill: #fff;
      }
      .cls-3 {
        fill: #abe2cf;
      }
    </style>
  </defs>
  <g id="Layer_2" data-name="Layer 2">
    <g id="Layer_1-2" data-name="Layer 1">
      <g id="Git">
        <g id="name">
          <rect class="cls-1" width="747.75" height="238.85" rx="59.55" />
          <path
            class="cls-2"
            d="M95.08,143.09H88v-42h7.1Zm20.31-18H94.54v-6.66h20.85Zm-.54-24h7v42h-7Z"
          />
          <path
            class="cls-2"
            d="M130.9,105.77a4.11,4.11,0,0,1-3.14-1.32,4.58,4.58,0,0,1-1.23-3.24,4.42,4.42,0,0,1,1.23-3.12,4.11,4.11,0,0,1,3.14-1.32,4.21,4.21,0,0,1,4.37,4.38,4.75,4.75,0,0,1-1.2,3.27A4,4,0,0,1,130.9,105.77Zm-3.38,37.32v-32h6.77v32Z"
          />
          <path
            class="cls-2"
            d="M157.22,117.29v-6h19.44v6Zm14.85,26.22q-4.8,0-7.43-2.73c-1.74-1.82-2.62-4.49-2.62-8V104h6.77v28.56a5.23,5.23,0,0,0,1.1,3.54,3.8,3.8,0,0,0,3.05,1.26,5.38,5.38,0,0,0,3.72-1.32l2,5.34a8.27,8.27,0,0,1-3,1.62A12,12,0,0,1,172.07,143.51Z"
          />
          <path
            class="cls-2"
            d="M196.7,110.63a12.67,12.67,0,0,1,6.25,1.5,10.7,10.7,0,0,1,4.31,4.62,17.27,17.27,0,0,1,1.61,8v18.36h-6.82v-17.4q0-4.26-1.8-6.36a6.42,6.42,0,0,0-5.14-2.1,8.33,8.33,0,0,0-4.26,1.08,7.13,7.13,0,0,0-2.86,3.21,12.43,12.43,0,0,0-1,5.37v16.2h-6.77V98.57H187v21.18l-1.42-2.7a10.71,10.71,0,0,1,4.39-4.74A13.31,13.31,0,0,1,196.7,110.63Z"
          />
          <path
            class="cls-2"
            d="M227.22,143.51a16.47,16.47,0,0,1-8.49-2.13,14.79,14.79,0,0,1-5.63-5.82,17.57,17.57,0,0,1-2-8.49,18,18,0,0,1,1.94-8.49,14.88,14.88,0,0,1,5.35-5.82,14.4,14.4,0,0,1,7.78-2.13,14.08,14.08,0,0,1,7.59,2.07,14.36,14.36,0,0,1,5.24,5.79,19,19,0,0,1,1.92,8.82q0,.42,0,1.05c0,.42-.05.79-.08,1.11h-24.3v-5h20.69l-2.73,1.56a10.14,10.14,0,0,0-1-4.83,7.75,7.75,0,0,0-7.29-4.47,8.31,8.31,0,0,0-4.39,1.17,7.61,7.61,0,0,0-3,3.33,11.4,11.4,0,0,0-1,5v1.2a10.66,10.66,0,0,0,1.18,5.1,8.34,8.34,0,0,0,3.36,3.45,10.13,10.13,0,0,0,5.07,1.23,10.53,10.53,0,0,0,4.43-.9,10.38,10.38,0,0,0,3.49-2.64l3.71,4.68a13.09,13.09,0,0,1-5,3.84A16.63,16.63,0,0,1,227.22,143.51Z"
          />
          <path
            class="cls-2"
            d="M243.44,143.09v-32h6.49v8.82l-.76-2.58a9.66,9.66,0,0,1,4.1-5,13.19,13.19,0,0,1,6.93-1.71v7.14l-.76-.09-.71,0a8.1,8.1,0,0,0-6.23,2.46q-2.3,2.46-2.29,7.5v15.48Z"
          />
          <path
            class="cls-2"
            d="M275.38,143.51a16.47,16.47,0,0,1-8.49-2.13,14.79,14.79,0,0,1-5.63-5.82,17.68,17.68,0,0,1-2-8.49,18,18,0,0,1,1.94-8.49,14.88,14.88,0,0,1,5.35-5.82,14.4,14.4,0,0,1,7.78-2.13,14.08,14.08,0,0,1,7.59,2.07,14.36,14.36,0,0,1,5.24,5.79,19,19,0,0,1,1.92,8.82q0,.42,0,1.05c0,.42-.05.79-.08,1.11h-24.3v-5h20.69l-2.73,1.56a10.14,10.14,0,0,0-1-4.83,7.75,7.75,0,0,0-7.29-4.47,8.31,8.31,0,0,0-4.39,1.17,7.61,7.61,0,0,0-3,3.33,11.4,11.4,0,0,0-1,5v1.2a10.66,10.66,0,0,0,1.18,5.1,8.34,8.34,0,0,0,3.36,3.45,10.13,10.13,0,0,0,5.07,1.23,10.53,10.53,0,0,0,4.43-.9,10.38,10.38,0,0,0,3.49-2.64l3.71,4.68a13.09,13.09,0,0,1-5,3.84A16.63,16.63,0,0,1,275.38,143.51Z"
          />
          <path
            class="cls-2"
            d="M289.74,152.21l3.11-13.38,1,4.5a4.4,4.4,0,0,1-3.25-1.29,4.86,4.86,0,0,1-1.28-3.57,5,5,0,0,1,1.28-3.57,4.17,4.17,0,0,1,3.14-1.35,4.09,4.09,0,0,1,3.2,1.38,5.16,5.16,0,0,1,1.22,3.54,7.84,7.84,0,0,1-.11,1.35,11.91,11.91,0,0,1-.38,1.59c-.18.6-.43,1.36-.76,2.28l-2.84,8.52Z"
          />
          <path class="cls-2" d="M323.37,143.09v-42h7.1v42Z" />
          <path
            class="cls-2"
            d="M366.78,143.51a12.66,12.66,0,0,1-5.73-1.23,9.09,9.09,0,0,1-3.8-3.42,9.32,9.32,0,0,1-1.34-5,10,10,0,0,1,1.18-4.86,8.09,8.09,0,0,1,3.85-3.42,16.82,16.82,0,0,1,7.1-1.26h8.46v5h-8c-2.3,0-3.85.41-4.67,1.23a4.19,4.19,0,0,0-1.23,3.09,3.88,3.88,0,0,0,1.48,3.18,6.29,6.29,0,0,0,4.09,1.2,8.28,8.28,0,0,0,4.51-1.26,7.33,7.33,0,0,0,2.92-3.72l1.09,4.5a8.18,8.18,0,0,1-3.5,4.38A12,12,0,0,1,366.78,143.51Zm9.17-.42v-6.54l-.32-1.32V123.89a6.94,6.94,0,0,0-1.83-5.13q-1.83-1.83-5.54-1.83a14,14,0,0,0-4.75.84,12.24,12.24,0,0,0-4.05,2.34l-2.67-5.46a16.57,16.57,0,0,1,5.62-3,22.15,22.15,0,0,1,6.72-1q6.39,0,9.83,3.36t3.44,10.32v18.78Z"
          />
          <path
            class="cls-2"
            d="M423.84,110.63a12.56,12.56,0,0,1,6.2,1.5,10.26,10.26,0,0,1,4.23,4.62,18.13,18.13,0,0,1,1.53,8v18.36H429v-17.4q0-4.26-1.72-6.36a6,6,0,0,0-4.89-2.1,7.31,7.31,0,0,0-4,1.08,7.07,7.07,0,0,0-2.67,3.21,12.93,12.93,0,0,0-1,5.31v16.26h-6.77v-17.4q0-4.26-1.72-6.36a6,6,0,0,0-4.89-2.1,7.25,7.25,0,0,0-3.95,1.08,7.09,7.09,0,0,0-2.68,3.21,12.93,12.93,0,0,0-1,5.31v16.26h-6.77v-32h6.5v8.58l-1.2-2.58a10.85,10.85,0,0,1,4.29-4.74,12.36,12.36,0,0,1,6.47-1.68,11.63,11.63,0,0,1,7.1,2.22,10.91,10.91,0,0,1,4,6.84l-2.62-1.08a12.12,12.12,0,0,1,4.64-5.76A13.23,13.23,0,0,1,423.84,110.63Z"
          />
          <path
            class="cls-3"
            d="M480.9,143.69a20.84,20.84,0,0,1-8.22-1.59,19.23,19.23,0,0,1-6.52-4.53,20.93,20.93,0,0,1-4.32-6.84,25.16,25.16,0,0,1,0-17.28,20.69,20.69,0,0,1,4.35-6.84,19.45,19.45,0,0,1,6.55-4.53,22.62,22.62,0,0,1,17,.15,17.22,17.22,0,0,1,6.58,5.1l-4.47,4.8A14.9,14.9,0,0,0,487,108.5a13.71,13.71,0,0,0-5.7-1.17,14.16,14.16,0,0,0-5.6,1.08,12.78,12.78,0,0,0-4.39,3.06,14.16,14.16,0,0,0-2.9,4.68,17.4,17.4,0,0,0,0,11.85,14.09,14.09,0,0,0,2.9,4.71,12.85,12.85,0,0,0,4.36,3.06,14,14,0,0,0,5.57,1.08,15.55,15.55,0,0,0,5.49-1,14.57,14.57,0,0,0,5.05-3.33l4,5.82a19.9,19.9,0,0,1-6.88,4A24.57,24.57,0,0,1,480.9,143.69Zm8.25-6.36V121.67h6.66v16.68Z"
          />
          <path
            class="cls-3"
            d="M509.24,143.51a12.63,12.63,0,0,1-5.73-1.23,9.09,9.09,0,0,1-3.8-3.42,9.32,9.32,0,0,1-1.34-5,9.93,9.93,0,0,1,1.18-4.86,8.09,8.09,0,0,1,3.85-3.42,16.8,16.8,0,0,1,7.09-1.26H519v5h-8c-2.3,0-3.85.41-4.67,1.23a4.19,4.19,0,0,0-1.23,3.09,3.9,3.9,0,0,0,1.47,3.18,6.34,6.34,0,0,0,4.1,1.2,8.25,8.25,0,0,0,4.5-1.26,7.22,7.22,0,0,0,2.92-3.72l1.1,4.5a8.18,8.18,0,0,1-3.5,4.38A12,12,0,0,1,509.24,143.51Zm9.17-.42v-6.54l-.33-1.32V123.89a6.93,6.93,0,0,0-1.82-5.13q-1.83-1.83-5.55-1.83a14,14,0,0,0-4.75.84,12.29,12.29,0,0,0-4,2.34l-2.67-5.46a16.57,16.57,0,0,1,5.62-3,22.15,22.15,0,0,1,6.72-1q6.39,0,9.83,3.36t3.44,10.32v18.78Z"
          />
          <path
            class="cls-3"
            d="M546,110.63a12.65,12.65,0,0,1,6.25,1.5,10.72,10.72,0,0,1,4.32,4.62,17.4,17.4,0,0,1,1.61,8v18.36h-6.83v-17.4q0-4.26-1.8-6.36a6.39,6.39,0,0,0-5.13-2.1,8.33,8.33,0,0,0-4.26,1.08,7.15,7.15,0,0,0-2.87,3.21,12.58,12.58,0,0,0-1,5.37v16.2h-6.77v-32h6.5v8.7l-1.15-2.7a10.74,10.74,0,0,1,4.4-4.74A13.25,13.25,0,0,1,546,110.63Z"
          />
          <path
            class="cls-3"
            d="M576.56,143.51a16.47,16.47,0,0,1-8.49-2.13,14.77,14.77,0,0,1-5.62-5.82,17.57,17.57,0,0,1-2-8.49,18,18,0,0,1,1.93-8.49,14.91,14.91,0,0,1,5.36-5.82,14.35,14.35,0,0,1,7.78-2.13,14.08,14.08,0,0,1,7.59,2.07,14.43,14.43,0,0,1,5.24,5.79,19.12,19.12,0,0,1,1.91,8.82q0,.42,0,1.05c0,.42,0,.79-.08,1.11h-24.3v-5h20.7l-2.73,1.56a10.26,10.26,0,0,0-1-4.83,7.77,7.77,0,0,0-7.29-4.47,8.34,8.34,0,0,0-4.4,1.17,7.65,7.65,0,0,0-3,3.33,11.26,11.26,0,0,0-1,5v1.2a10.78,10.78,0,0,0,1.17,5.1,8.34,8.34,0,0,0,3.36,3.45,10.19,10.19,0,0,0,5.08,1.23,10.07,10.07,0,0,0,7.92-3.54l3.71,4.68a13.13,13.13,0,0,1-5,3.84A16.6,16.6,0,0,1,576.56,143.51Z"
          />
          <path
            class="cls-3"
            d="M601.79,143.51a23.24,23.24,0,0,1-7-1,18,18,0,0,1-5.35-2.55l2.62-5.7a17.17,17.17,0,0,0,4.69,2.25,18.08,18.08,0,0,0,5.52.87,8.77,8.77,0,0,0,4.61-.93,2.88,2.88,0,0,0,1.45-2.55,2.31,2.31,0,0,0-1-2,7.26,7.26,0,0,0-2.57-1.05c-1.06-.24-2.23-.46-3.52-.66a38.24,38.24,0,0,1-3.88-.81,12.63,12.63,0,0,1-3.52-1.5,7.65,7.65,0,0,1-2.57-2.67,10.06,10.06,0,0,1,.6-9.75,10.43,10.43,0,0,1,4.45-3.51,16.81,16.81,0,0,1,6.8-1.26,24.65,24.65,0,0,1,5.93.75,16.44,16.44,0,0,1,5.05,2.07l-2.68,5.7a13.22,13.22,0,0,0-4.15-1.83,18,18,0,0,0-4.2-.51,8.55,8.55,0,0,0-4.59,1,3,3,0,0,0-1.53,2.55,2.52,2.52,0,0,0,1,2.16,7.27,7.27,0,0,0,2.57,1.11c1.06.26,2.23.5,3.52.72s2.58.5,3.85.84a14.3,14.3,0,0,1,3.52,1.44,7.08,7.08,0,0,1,2.6,2.61,9.75,9.75,0,0,1-.63,9.63,10.55,10.55,0,0,1-4.53,3.42A18.07,18.07,0,0,1,601.79,143.51Z"
          />
          <path
            class="cls-3"
            d="M633.3,110.63a12.67,12.67,0,0,1,6.25,1.5,10.7,10.7,0,0,1,4.31,4.62,17.27,17.27,0,0,1,1.61,8v18.36h-6.82v-17.4q0-4.26-1.8-6.36a6.42,6.42,0,0,0-5.14-2.1,8.33,8.33,0,0,0-4.26,1.08,7.13,7.13,0,0,0-2.86,3.21,12.43,12.43,0,0,0-1,5.37v16.2h-6.77V98.57h6.77v21.18l-1.42-2.7a10.71,10.71,0,0,1,4.39-4.74A13.31,13.31,0,0,1,633.3,110.63Z"
          />
        </g>
      </g>
    </g>
  </g>
</svg>
